M48
; DRILL file {KiCad (5.1.10)-1} date 08/20/21 09:58:35
; FORMAT={-:-/ absolute / inch / decimal}
; #@! TF.CreationDate,2021-08-20T09:58:35-04:00
; #@! TF.GenerationSoftware,Kicad,Pcbnew,(5.1.10)-1
; #@! TF.FileFunction,Plated,1,2,PTH
FMAT,2
INCH
T1C0.0157
T2C0.0315
T3C0.0354
T4C0.0394
T5C0.0512
T6C0.0591
%
G90
G05
T1
X1.874Y-5.5748
X1.876Y-5.3484
X2.0709Y-4.9547
X2.0709Y-5.6122
X2.0984Y-3.7224
X2.2717Y-5.3484
X2.2717Y-5.6496
X2.6654Y-5.3484
X2.6654Y-5.6929
X2.8642Y-5.5748
X2.8661Y-4.9508
X2.8996Y-3.2244
X2.9004Y-3.1232
X3.0571Y-5.3465
X3.0571Y-5.6122
X3.2579Y-5.6535
X3.2598Y-4.9567
X3.4508Y-5.6929
X3.4547Y-5.3484
X3.8445Y-5.3465
X3.8445Y-5.5748
X4.0453Y-4.9567
X4.0472Y-5.6122
X4.2362Y-5.6535
X4.2382Y-5.3465
X4.437Y-4.9587
X4.437Y-5.6929
X4.6378Y-5.3484
X4.6378Y-5.5748
X4.8327Y-4.9547
X4.8346Y-5.6122
X5.0217Y-5.6535
X5.0256Y-5.3465
X5.4252Y-5.6929
X5.4272Y-5.3484
X5.6181Y-5.5748
X5.6201Y-4.9567
X5.6654Y-3.3307
X5.6693Y-3.4311
X5.6732Y-3.5295
X5.815Y-5.3504
X5.815Y-5.6122
X6.0157Y-4.9547
X6.0157Y-5.6535
X6.2067Y-5.3465
X6.2067Y-5.6929
T2
X1.9972Y-2.6232
X1.9972Y-2.7232
X1.9972Y-2.8232
X1.9972Y-2.9232
X1.9972Y-3.0232
X1.9972Y-3.1232
X1.9972Y-3.2232
X1.9972Y-3.3232
X1.9972Y-3.4232
X1.9972Y-3.5232
X1.9972Y-3.6232
X1.9972Y-3.7232
X1.9972Y-3.8232
X1.9972Y-3.9232
X1.9972Y-4.0232
X2.5972Y-2.6232
X2.5972Y-2.7232
X2.5972Y-2.8232
X2.5972Y-2.9232
X2.5972Y-3.0232
X2.5972Y-3.1232
X2.5972Y-3.2232
X2.5972Y-3.3232
X2.5972Y-3.4232
X2.5972Y-3.5232
X2.5972Y-3.6232
X2.5972Y-3.7232
X2.5972Y-3.8232
X2.5972Y-3.9232
X2.5972Y-4.0232
X3.1496Y-4.3346
X3.1496Y-4.7283
X3.5433Y-4.3346
X3.5433Y-4.7283
X3.7402Y-4.1496
X3.937Y-4.3346
X3.937Y-4.7283
X4.1339Y-4.1496
X4.3307Y-4.3346
X4.3307Y-4.7283
X4.7244Y-4.3346
X4.7244Y-4.7283
T3
X1.7717Y-5.3476
X1.7717Y-5.4476
X1.9685Y-4.9539
X1.9685Y-5.0539
X2.1654Y-5.3476
X2.1654Y-5.4476
X2.5591Y-5.3476
X2.5591Y-5.4476
X2.7559Y-4.9539
X2.7559Y-5.0539
X2.9528Y-5.3476
X2.9528Y-5.4476
X3.1496Y-4.9539
X3.1496Y-5.0539
X3.3465Y-5.3476
X3.3465Y-5.4476
X3.7402Y-5.3476
X3.7402Y-5.4476
X3.937Y-4.9539
X3.937Y-5.0539
X4.1339Y-5.3476
X4.1339Y-5.4476
X4.3307Y-4.9539
X4.3307Y-5.0539
X4.5276Y-5.3476
X4.5276Y-5.4476
X4.7244Y-4.9539
X4.7244Y-5.0539
X4.9213Y-5.3476
X4.9213Y-5.4476
X5.315Y-5.3476
X5.315Y-5.4476
X5.5118Y-4.9539
X5.5118Y-5.0539
X5.7087Y-5.3476
X5.7087Y-5.4476
X5.9055Y-4.9539
X5.9055Y-5.0539
X6.1024Y-5.3476
X6.1024Y-5.4476
T4
X6.2362Y-3.2283
X6.2362Y-3.3283
X6.2362Y-3.4283
X6.2362Y-3.5283
T5
X3.757Y-2.2197
X3.7767Y-2.5071
X3.9381Y-2.0661
X4.0365Y-2.3339
X4.1428Y-2.3811
T6
X3.6398Y-3.4882
X4.2303Y-3.4882
T0
M30
