%TF.GenerationSoftware,KiCad,Pcbnew,(5.1.10)-1*%
%TF.CreationDate,2021-08-20T09:58:33-04:00*%
%TF.ProjectId,UltraSonic Theremin,556c7472-6153-46f6-9e69-632054686572,rev?*%
%TF.SameCoordinates,Original*%
%TF.FileFunction,Legend,Top*%
%TF.FilePolarity,Positive*%
%FSLAX46Y46*%
G04 Gerber Fmt 4.6, Leading zero omitted, Abs format (unit mm)*
G04 Created by KiCad (PCBNEW (5.1.10)-1) date 2021-08-20 09:58:33*
%MOMM*%
%LPD*%
G01*
G04 APERTURE LIST*
%ADD10C,0.300000*%
%ADD11C,0.250000*%
%ADD12C,0.120000*%
%ADD13C,0.010000*%
%ADD14C,0.150000*%
%ADD15C,0.200000*%
%ADD16C,3.300000*%
%ADD17O,1.600000X1.600000*%
%ADD18R,1.600000X1.600000*%
%ADD19C,1.800000*%
%ADD20R,1.800000X1.800000*%
%ADD21O,4.000000X2.200000*%
%ADD22O,2.200000X4.000000*%
%ADD23R,2.200000X4.000000*%
%ADD24C,2.500000*%
%ADD25R,2.500000X2.500000*%
%ADD26C,1.600000*%
%ADD27R,1.700000X1.700000*%
%ADD28O,1.700000X1.700000*%
G04 APERTURE END LIST*
D10*
X48285714Y-113083333D02*
X49238095Y-113083333D01*
X48095238Y-113654761D02*
X48761904Y-111654761D01*
X49428571Y-113654761D01*
X50095238Y-113654761D02*
X50095238Y-112321428D01*
X50095238Y-112702380D02*
X50190476Y-112511904D01*
X50285714Y-112416666D01*
X50476190Y-112321428D01*
X50666666Y-112321428D01*
X52190476Y-113654761D02*
X52190476Y-111654761D01*
X52190476Y-113559523D02*
X52000000Y-113654761D01*
X51619047Y-113654761D01*
X51428571Y-113559523D01*
X51333333Y-113464285D01*
X51238095Y-113273809D01*
X51238095Y-112702380D01*
X51333333Y-112511904D01*
X51428571Y-112416666D01*
X51619047Y-112321428D01*
X52000000Y-112321428D01*
X52190476Y-112416666D01*
X54000000Y-112321428D02*
X54000000Y-113654761D01*
X53142857Y-112321428D02*
X53142857Y-113369047D01*
X53238095Y-113559523D01*
X53428571Y-113654761D01*
X53714285Y-113654761D01*
X53904761Y-113559523D01*
X54000000Y-113464285D01*
X54952380Y-113654761D02*
X54952380Y-112321428D01*
X54952380Y-111654761D02*
X54857142Y-111750000D01*
X54952380Y-111845238D01*
X55047619Y-111750000D01*
X54952380Y-111654761D01*
X54952380Y-111845238D01*
X55904761Y-112321428D02*
X55904761Y-113654761D01*
X55904761Y-112511904D02*
X56000000Y-112416666D01*
X56190476Y-112321428D01*
X56476190Y-112321428D01*
X56666666Y-112416666D01*
X56761904Y-112607142D01*
X56761904Y-113654761D01*
X58000000Y-113654761D02*
X57809523Y-113559523D01*
X57714285Y-113464285D01*
X57619047Y-113273809D01*
X57619047Y-112702380D01*
X57714285Y-112511904D01*
X57809523Y-112416666D01*
X58000000Y-112321428D01*
X58285714Y-112321428D01*
X58476190Y-112416666D01*
X58571428Y-112511904D01*
X58666666Y-112702380D01*
X58666666Y-113273809D01*
X58571428Y-113464285D01*
X58476190Y-113559523D01*
X58285714Y-113654761D01*
X58000000Y-113654761D01*
X61047619Y-113654761D02*
X61047619Y-111654761D01*
X62190476Y-113654761D01*
X62190476Y-111654761D01*
X64000000Y-113654761D02*
X64000000Y-112607142D01*
X63904761Y-112416666D01*
X63714285Y-112321428D01*
X63333333Y-112321428D01*
X63142857Y-112416666D01*
X64000000Y-113559523D02*
X63809523Y-113654761D01*
X63333333Y-113654761D01*
X63142857Y-113559523D01*
X63047619Y-113369047D01*
X63047619Y-113178571D01*
X63142857Y-112988095D01*
X63333333Y-112892857D01*
X63809523Y-112892857D01*
X64000000Y-112797619D01*
X64952380Y-112321428D02*
X64952380Y-113654761D01*
X64952380Y-112511904D02*
X65047619Y-112416666D01*
X65238095Y-112321428D01*
X65523809Y-112321428D01*
X65714285Y-112416666D01*
X65809523Y-112607142D01*
X65809523Y-113654761D01*
X67047619Y-113654761D02*
X66857142Y-113559523D01*
X66761904Y-113464285D01*
X66666666Y-113273809D01*
X66666666Y-112702380D01*
X66761904Y-112511904D01*
X66857142Y-112416666D01*
X67047619Y-112321428D01*
X67333333Y-112321428D01*
X67523809Y-112416666D01*
X67619047Y-112511904D01*
X67714285Y-112702380D01*
X67714285Y-113273809D01*
X67619047Y-113464285D01*
X67523809Y-113559523D01*
X67333333Y-113654761D01*
X67047619Y-113654761D01*
X44571428Y-116764285D02*
X44476190Y-116859523D01*
X44190476Y-116954761D01*
X44000000Y-116954761D01*
X43714285Y-116859523D01*
X43523809Y-116669047D01*
X43428571Y-116478571D01*
X43333333Y-116097619D01*
X43333333Y-115811904D01*
X43428571Y-115430952D01*
X43523809Y-115240476D01*
X43714285Y-115050000D01*
X44000000Y-114954761D01*
X44190476Y-114954761D01*
X44476190Y-115050000D01*
X44571428Y-115145238D01*
X45428571Y-116954761D02*
X45428571Y-114954761D01*
X46285714Y-116954761D02*
X46285714Y-115907142D01*
X46190476Y-115716666D01*
X46000000Y-115621428D01*
X45714285Y-115621428D01*
X45523809Y-115716666D01*
X45428571Y-115811904D01*
X47238095Y-116954761D02*
X47238095Y-115621428D01*
X47238095Y-116002380D02*
X47333333Y-115811904D01*
X47428571Y-115716666D01*
X47619047Y-115621428D01*
X47809523Y-115621428D01*
X48761904Y-116954761D02*
X48571428Y-116859523D01*
X48476190Y-116764285D01*
X48380952Y-116573809D01*
X48380952Y-116002380D01*
X48476190Y-115811904D01*
X48571428Y-115716666D01*
X48761904Y-115621428D01*
X49047619Y-115621428D01*
X49238095Y-115716666D01*
X49333333Y-115811904D01*
X49428571Y-116002380D01*
X49428571Y-116573809D01*
X49333333Y-116764285D01*
X49238095Y-116859523D01*
X49047619Y-116954761D01*
X48761904Y-116954761D01*
X50285714Y-116954761D02*
X50285714Y-115621428D01*
X50285714Y-115811904D02*
X50380952Y-115716666D01*
X50571428Y-115621428D01*
X50857142Y-115621428D01*
X51047619Y-115716666D01*
X51142857Y-115907142D01*
X51142857Y-116954761D01*
X51142857Y-115907142D02*
X51238095Y-115716666D01*
X51428571Y-115621428D01*
X51714285Y-115621428D01*
X51904761Y-115716666D01*
X52000000Y-115907142D01*
X52000000Y-116954761D01*
X53809523Y-116954761D02*
X53809523Y-115907142D01*
X53714285Y-115716666D01*
X53523809Y-115621428D01*
X53142857Y-115621428D01*
X52952380Y-115716666D01*
X53809523Y-116859523D02*
X53619047Y-116954761D01*
X53142857Y-116954761D01*
X52952380Y-116859523D01*
X52857142Y-116669047D01*
X52857142Y-116478571D01*
X52952380Y-116288095D01*
X53142857Y-116192857D01*
X53619047Y-116192857D01*
X53809523Y-116097619D01*
X54476190Y-115621428D02*
X55238095Y-115621428D01*
X54761904Y-114954761D02*
X54761904Y-116669047D01*
X54857142Y-116859523D01*
X55047619Y-116954761D01*
X55238095Y-116954761D01*
X55904761Y-116954761D02*
X55904761Y-115621428D01*
X55904761Y-114954761D02*
X55809523Y-115050000D01*
X55904761Y-115145238D01*
X56000000Y-115050000D01*
X55904761Y-114954761D01*
X55904761Y-115145238D01*
X57714285Y-116859523D02*
X57523809Y-116954761D01*
X57142857Y-116954761D01*
X56952380Y-116859523D01*
X56857142Y-116764285D01*
X56761904Y-116573809D01*
X56761904Y-116002380D01*
X56857142Y-115811904D01*
X56952380Y-115716666D01*
X57142857Y-115621428D01*
X57523809Y-115621428D01*
X57714285Y-115716666D01*
X59809523Y-114954761D02*
X60952380Y-114954761D01*
X60380952Y-116954761D02*
X60380952Y-114954761D01*
X61619047Y-116954761D02*
X61619047Y-114954761D01*
X62476190Y-116954761D02*
X62476190Y-115907142D01*
X62380952Y-115716666D01*
X62190476Y-115621428D01*
X61904761Y-115621428D01*
X61714285Y-115716666D01*
X61619047Y-115811904D01*
X64190476Y-116859523D02*
X64000000Y-116954761D01*
X63619047Y-116954761D01*
X63428571Y-116859523D01*
X63333333Y-116669047D01*
X63333333Y-115907142D01*
X63428571Y-115716666D01*
X63619047Y-115621428D01*
X64000000Y-115621428D01*
X64190476Y-115716666D01*
X64285714Y-115907142D01*
X64285714Y-116097619D01*
X63333333Y-116288095D01*
X65142857Y-116954761D02*
X65142857Y-115621428D01*
X65142857Y-116002380D02*
X65238095Y-115811904D01*
X65333333Y-115716666D01*
X65523809Y-115621428D01*
X65714285Y-115621428D01*
X67142857Y-116859523D02*
X66952380Y-116954761D01*
X66571428Y-116954761D01*
X66380952Y-116859523D01*
X66285714Y-116669047D01*
X66285714Y-115907142D01*
X66380952Y-115716666D01*
X66571428Y-115621428D01*
X66952380Y-115621428D01*
X67142857Y-115716666D01*
X67238095Y-115907142D01*
X67238095Y-116097619D01*
X66285714Y-116288095D01*
X68095238Y-116954761D02*
X68095238Y-115621428D01*
X68095238Y-115811904D02*
X68190476Y-115716666D01*
X68380952Y-115621428D01*
X68666666Y-115621428D01*
X68857142Y-115716666D01*
X68952380Y-115907142D01*
X68952380Y-116954761D01*
X68952380Y-115907142D02*
X69047619Y-115716666D01*
X69238095Y-115621428D01*
X69523809Y-115621428D01*
X69714285Y-115716666D01*
X69809523Y-115907142D01*
X69809523Y-116954761D01*
X70761904Y-116954761D02*
X70761904Y-115621428D01*
X70761904Y-114954761D02*
X70666666Y-115050000D01*
X70761904Y-115145238D01*
X70857142Y-115050000D01*
X70761904Y-114954761D01*
X70761904Y-115145238D01*
X71714285Y-115621428D02*
X71714285Y-116954761D01*
X71714285Y-115811904D02*
X71809523Y-115716666D01*
X72000000Y-115621428D01*
X72285714Y-115621428D01*
X72476190Y-115716666D01*
X72571428Y-115907142D01*
X72571428Y-116954761D01*
D11*
X134779761Y-94473809D02*
X136398809Y-94473809D01*
X136589285Y-94378571D01*
X136684523Y-94283333D01*
X136779761Y-94092857D01*
X136779761Y-93711904D01*
X136684523Y-93521428D01*
X136589285Y-93426190D01*
X136398809Y-93330952D01*
X134779761Y-93330952D01*
X136779761Y-91426190D02*
X136779761Y-92378571D01*
X134779761Y-92378571D01*
X134779761Y-91045238D02*
X134779761Y-89902380D01*
X136779761Y-90473809D02*
X134779761Y-90473809D01*
X136779761Y-88092857D02*
X135827380Y-88759523D01*
X136779761Y-89235714D02*
X134779761Y-89235714D01*
X134779761Y-88473809D01*
X134875000Y-88283333D01*
X134970238Y-88188095D01*
X135160714Y-88092857D01*
X135446428Y-88092857D01*
X135636904Y-88188095D01*
X135732142Y-88283333D01*
X135827380Y-88473809D01*
X135827380Y-89235714D01*
X136208333Y-87330952D02*
X136208333Y-86378571D01*
X136779761Y-87521428D02*
X134779761Y-86854761D01*
X136779761Y-86188095D01*
X136684523Y-85616666D02*
X136779761Y-85330952D01*
X136779761Y-84854761D01*
X136684523Y-84664285D01*
X136589285Y-84569047D01*
X136398809Y-84473809D01*
X136208333Y-84473809D01*
X136017857Y-84569047D01*
X135922619Y-84664285D01*
X135827380Y-84854761D01*
X135732142Y-85235714D01*
X135636904Y-85426190D01*
X135541666Y-85521428D01*
X135351190Y-85616666D01*
X135160714Y-85616666D01*
X134970238Y-85521428D01*
X134875000Y-85426190D01*
X134779761Y-85235714D01*
X134779761Y-84759523D01*
X134875000Y-84473809D01*
X134779761Y-83235714D02*
X134779761Y-82854761D01*
X134875000Y-82664285D01*
X135065476Y-82473809D01*
X135446428Y-82378571D01*
X136113095Y-82378571D01*
X136494047Y-82473809D01*
X136684523Y-82664285D01*
X136779761Y-82854761D01*
X136779761Y-83235714D01*
X136684523Y-83426190D01*
X136494047Y-83616666D01*
X136113095Y-83711904D01*
X135446428Y-83711904D01*
X135065476Y-83616666D01*
X134875000Y-83426190D01*
X134779761Y-83235714D01*
X136779761Y-81521428D02*
X134779761Y-81521428D01*
X136779761Y-80378571D01*
X134779761Y-80378571D01*
X136779761Y-79426190D02*
X134779761Y-79426190D01*
X136589285Y-77330952D02*
X136684523Y-77426190D01*
X136779761Y-77711904D01*
X136779761Y-77902380D01*
X136684523Y-78188095D01*
X136494047Y-78378571D01*
X136303571Y-78473809D01*
X135922619Y-78569047D01*
X135636904Y-78569047D01*
X135255952Y-78473809D01*
X135065476Y-78378571D01*
X134875000Y-78188095D01*
X134779761Y-77902380D01*
X134779761Y-77711904D01*
X134875000Y-77426190D01*
X134970238Y-77330952D01*
X139934523Y-91473809D02*
X140029761Y-91188095D01*
X140029761Y-90711904D01*
X139934523Y-90521428D01*
X139839285Y-90426190D01*
X139648809Y-90330952D01*
X139458333Y-90330952D01*
X139267857Y-90426190D01*
X139172619Y-90521428D01*
X139077380Y-90711904D01*
X138982142Y-91092857D01*
X138886904Y-91283333D01*
X138791666Y-91378571D01*
X138601190Y-91473809D01*
X138410714Y-91473809D01*
X138220238Y-91378571D01*
X138125000Y-91283333D01*
X138029761Y-91092857D01*
X138029761Y-90616666D01*
X138125000Y-90330952D01*
X138982142Y-89473809D02*
X138982142Y-88807142D01*
X140029761Y-88521428D02*
X140029761Y-89473809D01*
X138029761Y-89473809D01*
X138029761Y-88521428D01*
X140029761Y-87664285D02*
X138029761Y-87664285D01*
X140029761Y-86521428D01*
X138029761Y-86521428D01*
X139934523Y-85664285D02*
X140029761Y-85378571D01*
X140029761Y-84902380D01*
X139934523Y-84711904D01*
X139839285Y-84616666D01*
X139648809Y-84521428D01*
X139458333Y-84521428D01*
X139267857Y-84616666D01*
X139172619Y-84711904D01*
X139077380Y-84902380D01*
X138982142Y-85283333D01*
X138886904Y-85473809D01*
X138791666Y-85569047D01*
X138601190Y-85664285D01*
X138410714Y-85664285D01*
X138220238Y-85569047D01*
X138125000Y-85473809D01*
X138029761Y-85283333D01*
X138029761Y-84807142D01*
X138125000Y-84521428D01*
X138029761Y-83283333D02*
X138029761Y-82902380D01*
X138125000Y-82711904D01*
X138315476Y-82521428D01*
X138696428Y-82426190D01*
X139363095Y-82426190D01*
X139744047Y-82521428D01*
X139934523Y-82711904D01*
X140029761Y-82902380D01*
X140029761Y-83283333D01*
X139934523Y-83473809D01*
X139744047Y-83664285D01*
X139363095Y-83759523D01*
X138696428Y-83759523D01*
X138315476Y-83664285D01*
X138125000Y-83473809D01*
X138029761Y-83283333D01*
X140029761Y-80426190D02*
X139077380Y-81092857D01*
X140029761Y-81569047D02*
X138029761Y-81569047D01*
X138029761Y-80807142D01*
X138125000Y-80616666D01*
X138220238Y-80521428D01*
X138410714Y-80426190D01*
X138696428Y-80426190D01*
X138886904Y-80521428D01*
X138982142Y-80616666D01*
X139077380Y-80807142D01*
X139077380Y-81569047D01*
X58683333Y-94357142D02*
X58683333Y-93404761D01*
X59254761Y-94547619D02*
X57254761Y-93880952D01*
X59254761Y-93214285D01*
X59254761Y-91404761D02*
X58302380Y-92071428D01*
X59254761Y-92547619D02*
X57254761Y-92547619D01*
X57254761Y-91785714D01*
X57350000Y-91595238D01*
X57445238Y-91500000D01*
X57635714Y-91404761D01*
X57921428Y-91404761D01*
X58111904Y-91500000D01*
X58207142Y-91595238D01*
X58302380Y-91785714D01*
X58302380Y-92547619D01*
X59254761Y-90547619D02*
X57254761Y-90547619D01*
X57254761Y-90071428D01*
X57350000Y-89785714D01*
X57540476Y-89595238D01*
X57730952Y-89500000D01*
X58111904Y-89404761D01*
X58397619Y-89404761D01*
X58778571Y-89500000D01*
X58969047Y-89595238D01*
X59159523Y-89785714D01*
X59254761Y-90071428D01*
X59254761Y-90547619D01*
X57254761Y-88547619D02*
X58873809Y-88547619D01*
X59064285Y-88452380D01*
X59159523Y-88357142D01*
X59254761Y-88166666D01*
X59254761Y-87785714D01*
X59159523Y-87595238D01*
X59064285Y-87500000D01*
X58873809Y-87404761D01*
X57254761Y-87404761D01*
X59254761Y-86452380D02*
X57254761Y-86452380D01*
X59254761Y-85500000D02*
X57254761Y-85500000D01*
X59254761Y-84357142D01*
X57254761Y-84357142D01*
X57254761Y-83023809D02*
X57254761Y-82642857D01*
X57350000Y-82452380D01*
X57540476Y-82261904D01*
X57921428Y-82166666D01*
X58588095Y-82166666D01*
X58969047Y-82261904D01*
X59159523Y-82452380D01*
X59254761Y-82642857D01*
X59254761Y-83023809D01*
X59159523Y-83214285D01*
X58969047Y-83404761D01*
X58588095Y-83500000D01*
X57921428Y-83500000D01*
X57540476Y-83404761D01*
X57350000Y-83214285D01*
X57254761Y-83023809D01*
X59254761Y-79785714D02*
X57254761Y-79785714D01*
X59254761Y-78642857D01*
X57254761Y-78642857D01*
X58683333Y-77785714D02*
X58683333Y-76833333D01*
X59254761Y-77976190D02*
X57254761Y-77309523D01*
X59254761Y-76642857D01*
X59254761Y-75976190D02*
X57254761Y-75976190D01*
X59254761Y-74833333D01*
X57254761Y-74833333D01*
X57254761Y-73500000D02*
X57254761Y-73119047D01*
X57350000Y-72928571D01*
X57540476Y-72738095D01*
X57921428Y-72642857D01*
X58588095Y-72642857D01*
X58969047Y-72738095D01*
X59159523Y-72928571D01*
X59254761Y-73119047D01*
X59254761Y-73500000D01*
X59159523Y-73690476D01*
X58969047Y-73880952D01*
X58588095Y-73976190D01*
X57921428Y-73976190D01*
X57540476Y-73880952D01*
X57350000Y-73690476D01*
X57254761Y-73500000D01*
D12*
X127950000Y-108100000D02*
X147950000Y-108100000D01*
X127950000Y-63100000D02*
X147950000Y-63100000D01*
X147950000Y-63100000D02*
X147950000Y-108100000D01*
X127950000Y-63100000D02*
X127950000Y-108100000D01*
D13*
%TO.C,G\u002A\u002A\u002A*%
G36*
X130827885Y-59091813D02*
G01*
X130963019Y-59195169D01*
X131122007Y-59342835D01*
X131165408Y-59387365D01*
X131322496Y-59555296D01*
X131417103Y-59675555D01*
X131465070Y-59781772D01*
X131482237Y-59907574D01*
X131484445Y-60064698D01*
X131484445Y-60407555D01*
X130637778Y-60407555D01*
X130637778Y-59730222D01*
X130639119Y-59443525D01*
X130645047Y-59251155D01*
X130658416Y-59134564D01*
X130682085Y-59075202D01*
X130718908Y-59054522D01*
X130742075Y-59052888D01*
X130827885Y-59091813D01*
G37*
X130827885Y-59091813D02*
X130963019Y-59195169D01*
X131122007Y-59342835D01*
X131165408Y-59387365D01*
X131322496Y-59555296D01*
X131417103Y-59675555D01*
X131465070Y-59781772D01*
X131482237Y-59907574D01*
X131484445Y-60064698D01*
X131484445Y-60407555D01*
X130637778Y-60407555D01*
X130637778Y-59730222D01*
X130639119Y-59443525D01*
X130645047Y-59251155D01*
X130658416Y-59134564D01*
X130682085Y-59075202D01*
X130718908Y-59054522D01*
X130742075Y-59052888D01*
X130827885Y-59091813D01*
G36*
X145934223Y-60097111D02*
G01*
X146240811Y-60407555D01*
X144410223Y-60407555D01*
X144410223Y-59786666D01*
X145627634Y-59786666D01*
X145934223Y-60097111D01*
G37*
X145934223Y-60097111D02*
X146240811Y-60407555D01*
X144410223Y-60407555D01*
X144410223Y-59786666D01*
X145627634Y-59786666D01*
X145934223Y-60097111D01*
G36*
X125068547Y-57677800D02*
G01*
X125196184Y-57772475D01*
X125354116Y-57915824D01*
X125522929Y-58087561D01*
X125683210Y-58267395D01*
X125815544Y-58435040D01*
X125900519Y-58570207D01*
X125920039Y-58623382D01*
X126025601Y-58896673D01*
X126216887Y-59128268D01*
X126468747Y-59297695D01*
X126756028Y-59384483D01*
X126863813Y-59391555D01*
X126972660Y-59404292D01*
X127079503Y-59453060D01*
X127208615Y-59553692D01*
X127384265Y-59722024D01*
X127409973Y-59747878D01*
X127763128Y-60104201D01*
X127642469Y-60213545D01*
X127514683Y-60274393D01*
X127304079Y-60317284D01*
X127039398Y-60341517D01*
X126749383Y-60346389D01*
X126462778Y-60331198D01*
X126208326Y-60295242D01*
X126050918Y-60252423D01*
X125694936Y-60067297D01*
X125374820Y-59798002D01*
X125106691Y-59467086D01*
X124906669Y-59097101D01*
X124790873Y-58710595D01*
X124768413Y-58458335D01*
X124784334Y-58233663D01*
X124825162Y-58010072D01*
X124882466Y-57818151D01*
X124947816Y-57688492D01*
X124990619Y-57652090D01*
X125068547Y-57677800D01*
G37*
X125068547Y-57677800D02*
X125196184Y-57772475D01*
X125354116Y-57915824D01*
X125522929Y-58087561D01*
X125683210Y-58267395D01*
X125815544Y-58435040D01*
X125900519Y-58570207D01*
X125920039Y-58623382D01*
X126025601Y-58896673D01*
X126216887Y-59128268D01*
X126468747Y-59297695D01*
X126756028Y-59384483D01*
X126863813Y-59391555D01*
X126972660Y-59404292D01*
X127079503Y-59453060D01*
X127208615Y-59553692D01*
X127384265Y-59722024D01*
X127409973Y-59747878D01*
X127763128Y-60104201D01*
X127642469Y-60213545D01*
X127514683Y-60274393D01*
X127304079Y-60317284D01*
X127039398Y-60341517D01*
X126749383Y-60346389D01*
X126462778Y-60331198D01*
X126208326Y-60295242D01*
X126050918Y-60252423D01*
X125694936Y-60067297D01*
X125374820Y-59798002D01*
X125106691Y-59467086D01*
X124906669Y-59097101D01*
X124790873Y-58710595D01*
X124768413Y-58458335D01*
X124784334Y-58233663D01*
X124825162Y-58010072D01*
X124882466Y-57818151D01*
X124947816Y-57688492D01*
X124990619Y-57652090D01*
X125068547Y-57677800D01*
G36*
X129518827Y-58433710D02*
G01*
X129654856Y-58553080D01*
X129803586Y-58698344D01*
X130129778Y-59021132D01*
X130129778Y-60351111D01*
X129283111Y-60351111D01*
X129283111Y-59363333D01*
X129284464Y-58972638D01*
X129292679Y-58686866D01*
X129313988Y-58498052D01*
X129354627Y-58398231D01*
X129420829Y-58379438D01*
X129518827Y-58433710D01*
G37*
X129518827Y-58433710D02*
X129654856Y-58553080D01*
X129803586Y-58698344D01*
X130129778Y-59021132D01*
X130129778Y-60351111D01*
X129283111Y-60351111D01*
X129283111Y-59363333D01*
X129284464Y-58972638D01*
X129292679Y-58686866D01*
X129313988Y-58498052D01*
X129354627Y-58398231D01*
X129420829Y-58379438D01*
X129518827Y-58433710D01*
G36*
X131639667Y-57755906D02*
G01*
X132015292Y-57757949D01*
X132297326Y-57764121D01*
X132505041Y-57776076D01*
X132657709Y-57795466D01*
X132774599Y-57823947D01*
X132871616Y-57861634D01*
X133082877Y-58014371D01*
X133221792Y-58232183D01*
X133282641Y-58489016D01*
X133259708Y-58758815D01*
X133147271Y-59015526D01*
X133130313Y-59040278D01*
X133035347Y-59149641D01*
X132911451Y-59234256D01*
X132726603Y-59313044D01*
X132588692Y-59360312D01*
X132550189Y-59386004D01*
X132556377Y-59434686D01*
X132616881Y-59520365D01*
X132741332Y-59657050D01*
X132913247Y-59832518D01*
X133089161Y-60013018D01*
X133230808Y-60165115D01*
X133321798Y-60270767D01*
X133347111Y-60310026D01*
X133294813Y-60327884D01*
X133154467Y-60341821D01*
X132950898Y-60349885D01*
X132824295Y-60351111D01*
X132301478Y-60351111D01*
X130637778Y-58684633D01*
X130637778Y-58432000D01*
X131463324Y-58432000D01*
X131625556Y-58601333D01*
X131741595Y-58704785D01*
X131861580Y-58755146D01*
X132034064Y-58770287D01*
X132085686Y-58770666D01*
X132274766Y-58761394D01*
X132383593Y-58727124D01*
X132442014Y-58661488D01*
X132487969Y-58559098D01*
X132484155Y-58492571D01*
X132415310Y-58454294D01*
X132266170Y-58436654D01*
X132021473Y-58432040D01*
X131981884Y-58432000D01*
X131463324Y-58432000D01*
X130637778Y-58432000D01*
X130637778Y-57754666D01*
X131639667Y-57755906D01*
G37*
X131639667Y-57755906D02*
X132015292Y-57757949D01*
X132297326Y-57764121D01*
X132505041Y-57776076D01*
X132657709Y-57795466D01*
X132774599Y-57823947D01*
X132871616Y-57861634D01*
X133082877Y-58014371D01*
X133221792Y-58232183D01*
X133282641Y-58489016D01*
X133259708Y-58758815D01*
X133147271Y-59015526D01*
X133130313Y-59040278D01*
X133035347Y-59149641D01*
X132911451Y-59234256D01*
X132726603Y-59313044D01*
X132588692Y-59360312D01*
X132550189Y-59386004D01*
X132556377Y-59434686D01*
X132616881Y-59520365D01*
X132741332Y-59657050D01*
X132913247Y-59832518D01*
X133089161Y-60013018D01*
X133230808Y-60165115D01*
X133321798Y-60270767D01*
X133347111Y-60310026D01*
X133294813Y-60327884D01*
X133154467Y-60341821D01*
X132950898Y-60349885D01*
X132824295Y-60351111D01*
X132301478Y-60351111D01*
X130637778Y-58684633D01*
X130637778Y-58432000D01*
X131463324Y-58432000D01*
X131625556Y-58601333D01*
X131741595Y-58704785D01*
X131861580Y-58755146D01*
X132034064Y-58770287D01*
X132085686Y-58770666D01*
X132274766Y-58761394D01*
X132383593Y-58727124D01*
X132442014Y-58661488D01*
X132487969Y-58559098D01*
X132484155Y-58492571D01*
X132415310Y-58454294D01*
X132266170Y-58436654D01*
X132021473Y-58432040D01*
X131981884Y-58432000D01*
X131463324Y-58432000D01*
X130637778Y-58432000D01*
X130637778Y-57754666D01*
X131639667Y-57755906D01*
G36*
X133763307Y-58497227D02*
G01*
X133893831Y-58604787D01*
X134035010Y-58746421D01*
X134168188Y-58903112D01*
X134274707Y-59055841D01*
X134335911Y-59185588D01*
X134341010Y-59206776D01*
X134431602Y-59400661D01*
X134610078Y-59552717D01*
X134854146Y-59645715D01*
X134924819Y-59657991D01*
X135086216Y-59703363D01*
X135246521Y-59806662D01*
X135406830Y-59955488D01*
X135671086Y-60223779D01*
X135488454Y-60287445D01*
X135304402Y-60325183D01*
X135056866Y-60343027D01*
X134793557Y-60340571D01*
X134562185Y-60317412D01*
X134467118Y-60296095D01*
X134172898Y-60154427D01*
X133905063Y-59928896D01*
X133691468Y-59648521D01*
X133563243Y-59354486D01*
X133535566Y-59154531D01*
X133536189Y-58901172D01*
X133562300Y-58649521D01*
X133608850Y-58460409D01*
X133662094Y-58442761D01*
X133763307Y-58497227D01*
G37*
X133763307Y-58497227D02*
X133893831Y-58604787D01*
X134035010Y-58746421D01*
X134168188Y-58903112D01*
X134274707Y-59055841D01*
X134335911Y-59185588D01*
X134341010Y-59206776D01*
X134431602Y-59400661D01*
X134610078Y-59552717D01*
X134854146Y-59645715D01*
X134924819Y-59657991D01*
X135086216Y-59703363D01*
X135246521Y-59806662D01*
X135406830Y-59955488D01*
X135671086Y-60223779D01*
X135488454Y-60287445D01*
X135304402Y-60325183D01*
X135056866Y-60343027D01*
X134793557Y-60340571D01*
X134562185Y-60317412D01*
X134467118Y-60296095D01*
X134172898Y-60154427D01*
X133905063Y-59928896D01*
X133691468Y-59648521D01*
X133563243Y-59354486D01*
X133535566Y-59154531D01*
X133536189Y-58901172D01*
X133562300Y-58649521D01*
X133608850Y-58460409D01*
X133662094Y-58442761D01*
X133763307Y-58497227D01*
G36*
X136787569Y-58362574D02*
G01*
X136922054Y-58476866D01*
X137075774Y-58637841D01*
X137227836Y-58821354D01*
X137357346Y-59003258D01*
X137443409Y-59159407D01*
X137459851Y-59205082D01*
X137563751Y-59426741D01*
X137721261Y-59589366D01*
X137907167Y-59669385D01*
X137961223Y-59673777D01*
X138061405Y-59706083D01*
X138207275Y-59788518D01*
X138369032Y-59899359D01*
X138516875Y-60016883D01*
X138621004Y-60119367D01*
X138652889Y-60177973D01*
X138601510Y-60250632D01*
X138464467Y-60303192D01*
X138267408Y-60334381D01*
X138035976Y-60342930D01*
X137795817Y-60327566D01*
X137572575Y-60287020D01*
X137429996Y-60238576D01*
X137180855Y-60084603D01*
X136948826Y-59866010D01*
X136768791Y-59619495D01*
X136698771Y-59469277D01*
X136660346Y-59308156D01*
X136634715Y-59100344D01*
X136622012Y-58873294D01*
X136622367Y-58654460D01*
X136635915Y-58471298D01*
X136662788Y-58351259D01*
X136693212Y-58319111D01*
X136787569Y-58362574D01*
G37*
X136787569Y-58362574D02*
X136922054Y-58476866D01*
X137075774Y-58637841D01*
X137227836Y-58821354D01*
X137357346Y-59003258D01*
X137443409Y-59159407D01*
X137459851Y-59205082D01*
X137563751Y-59426741D01*
X137721261Y-59589366D01*
X137907167Y-59669385D01*
X137961223Y-59673777D01*
X138061405Y-59706083D01*
X138207275Y-59788518D01*
X138369032Y-59899359D01*
X138516875Y-60016883D01*
X138621004Y-60119367D01*
X138652889Y-60177973D01*
X138601510Y-60250632D01*
X138464467Y-60303192D01*
X138267408Y-60334381D01*
X138035976Y-60342930D01*
X137795817Y-60327566D01*
X137572575Y-60287020D01*
X137429996Y-60238576D01*
X137180855Y-60084603D01*
X136948826Y-59866010D01*
X136768791Y-59619495D01*
X136698771Y-59469277D01*
X136660346Y-59308156D01*
X136634715Y-59100344D01*
X136622012Y-58873294D01*
X136622367Y-58654460D01*
X136635915Y-58471298D01*
X136662788Y-58351259D01*
X136693212Y-58319111D01*
X136787569Y-58362574D01*
G36*
X140186827Y-58433710D02*
G01*
X140322856Y-58553080D01*
X140471586Y-58698344D01*
X140797778Y-59021132D01*
X140797778Y-60351111D01*
X139951111Y-60351111D01*
X139951111Y-59363333D01*
X139952464Y-58972638D01*
X139960679Y-58686866D01*
X139981988Y-58498052D01*
X140022627Y-58398231D01*
X140088829Y-58379438D01*
X140186827Y-58433710D01*
G37*
X140186827Y-58433710D02*
X140322856Y-58553080D01*
X140471586Y-58698344D01*
X140797778Y-59021132D01*
X140797778Y-60351111D01*
X139951111Y-60351111D01*
X139951111Y-59363333D01*
X139952464Y-58972638D01*
X139960679Y-58686866D01*
X139981988Y-58498052D01*
X140022627Y-58398231D01*
X140088829Y-58379438D01*
X140186827Y-58433710D01*
G36*
X142518077Y-59067067D02*
G01*
X142683580Y-59217320D01*
X142789212Y-59322636D01*
X143112000Y-59648829D01*
X143112000Y-60351111D01*
X142265334Y-60351111D01*
X142265334Y-59673777D01*
X142269410Y-59351154D01*
X142287674Y-59135237D01*
X142329173Y-59019960D01*
X142402957Y-58999259D01*
X142518077Y-59067067D01*
G37*
X142518077Y-59067067D02*
X142683580Y-59217320D01*
X142789212Y-59322636D01*
X143112000Y-59648829D01*
X143112000Y-60351111D01*
X142265334Y-60351111D01*
X142265334Y-59673777D01*
X142269410Y-59351154D01*
X142287674Y-59135237D01*
X142329173Y-59019960D01*
X142402957Y-58999259D01*
X142518077Y-59067067D01*
G36*
X147119556Y-58319111D02*
G01*
X146195134Y-58319111D01*
X145813329Y-58321908D01*
X145531838Y-58332265D01*
X145338180Y-58353135D01*
X145219872Y-58387467D01*
X145164434Y-58438212D01*
X145159386Y-58508320D01*
X145175101Y-58560258D01*
X145211056Y-58598491D01*
X145296367Y-58625990D01*
X145448376Y-58645303D01*
X145684427Y-58658981D01*
X145895742Y-58666190D01*
X146195560Y-58677100D01*
X146406603Y-58692242D01*
X146552984Y-58715683D01*
X146658816Y-58751489D01*
X146748213Y-58803725D01*
X146759819Y-58811888D01*
X146959916Y-59013906D01*
X147075092Y-59257097D01*
X147109593Y-59519244D01*
X147067668Y-59778132D01*
X146953562Y-60011544D01*
X146771523Y-60197265D01*
X146525796Y-60313079D01*
X146470445Y-60325696D01*
X146374406Y-60332939D01*
X146284703Y-60303394D01*
X146175593Y-60221892D01*
X146021334Y-60073264D01*
X145992595Y-60044126D01*
X145684079Y-59730222D01*
X145943350Y-59730222D01*
X146162583Y-59703085D01*
X146286807Y-59623501D01*
X146312512Y-59494207D01*
X146301971Y-59450708D01*
X146278195Y-59400504D01*
X146231252Y-59367370D01*
X146140675Y-59347794D01*
X145986000Y-59338263D01*
X145746759Y-59335267D01*
X145628322Y-59335111D01*
X145342563Y-59332805D01*
X145143648Y-59323218D01*
X145005576Y-59302344D01*
X144902349Y-59266175D01*
X144807969Y-59210706D01*
X144804129Y-59208111D01*
X144654562Y-59075258D01*
X144514683Y-58902297D01*
X144485037Y-58855333D01*
X144387913Y-58589473D01*
X144393825Y-58324694D01*
X144494915Y-58083207D01*
X144683324Y-57887223D01*
X144862192Y-57789308D01*
X144974108Y-57754361D01*
X145120661Y-57729119D01*
X145319749Y-57712269D01*
X145589270Y-57702501D01*
X145947121Y-57698502D01*
X146104698Y-57698222D01*
X147119556Y-57698222D01*
X147119556Y-58319111D01*
G37*
X147119556Y-58319111D02*
X146195134Y-58319111D01*
X145813329Y-58321908D01*
X145531838Y-58332265D01*
X145338180Y-58353135D01*
X145219872Y-58387467D01*
X145164434Y-58438212D01*
X145159386Y-58508320D01*
X145175101Y-58560258D01*
X145211056Y-58598491D01*
X145296367Y-58625990D01*
X145448376Y-58645303D01*
X145684427Y-58658981D01*
X145895742Y-58666190D01*
X146195560Y-58677100D01*
X146406603Y-58692242D01*
X146552984Y-58715683D01*
X146658816Y-58751489D01*
X146748213Y-58803725D01*
X146759819Y-58811888D01*
X146959916Y-59013906D01*
X147075092Y-59257097D01*
X147109593Y-59519244D01*
X147067668Y-59778132D01*
X146953562Y-60011544D01*
X146771523Y-60197265D01*
X146525796Y-60313079D01*
X146470445Y-60325696D01*
X146374406Y-60332939D01*
X146284703Y-60303394D01*
X146175593Y-60221892D01*
X146021334Y-60073264D01*
X145992595Y-60044126D01*
X145684079Y-59730222D01*
X145943350Y-59730222D01*
X146162583Y-59703085D01*
X146286807Y-59623501D01*
X146312512Y-59494207D01*
X146301971Y-59450708D01*
X146278195Y-59400504D01*
X146231252Y-59367370D01*
X146140675Y-59347794D01*
X145986000Y-59338263D01*
X145746759Y-59335267D01*
X145628322Y-59335111D01*
X145342563Y-59332805D01*
X145143648Y-59323218D01*
X145005576Y-59302344D01*
X144902349Y-59266175D01*
X144807969Y-59210706D01*
X144804129Y-59208111D01*
X144654562Y-59075258D01*
X144514683Y-58902297D01*
X144485037Y-58855333D01*
X144387913Y-58589473D01*
X144393825Y-58324694D01*
X144494915Y-58083207D01*
X144683324Y-57887223D01*
X144862192Y-57789308D01*
X144974108Y-57754361D01*
X145120661Y-57729119D01*
X145319749Y-57712269D01*
X145589270Y-57702501D01*
X145947121Y-57698502D01*
X146104698Y-57698222D01*
X147119556Y-57698222D01*
X147119556Y-58319111D01*
G36*
X136124351Y-59224888D02*
G01*
X136271333Y-59231931D01*
X136337448Y-59241913D01*
X136338667Y-59243551D01*
X136307185Y-59362398D01*
X136225614Y-59526138D01*
X136113262Y-59706626D01*
X135989438Y-59875714D01*
X135873452Y-60005258D01*
X135784613Y-60067111D01*
X135772450Y-60068888D01*
X135716550Y-60032221D01*
X135606526Y-59936605D01*
X135481562Y-59817672D01*
X135338866Y-59664117D01*
X135284957Y-59571105D01*
X135303417Y-59537034D01*
X135382528Y-59467062D01*
X135445104Y-59364917D01*
X135486802Y-59291243D01*
X135546842Y-59248519D01*
X135653312Y-59228385D01*
X135834300Y-59222477D01*
X135924394Y-59222222D01*
X136124351Y-59224888D01*
G37*
X136124351Y-59224888D02*
X136271333Y-59231931D01*
X136337448Y-59241913D01*
X136338667Y-59243551D01*
X136307185Y-59362398D01*
X136225614Y-59526138D01*
X136113262Y-59706626D01*
X135989438Y-59875714D01*
X135873452Y-60005258D01*
X135784613Y-60067111D01*
X135772450Y-60068888D01*
X135716550Y-60032221D01*
X135606526Y-59936605D01*
X135481562Y-59817672D01*
X135338866Y-59664117D01*
X135284957Y-59571105D01*
X135303417Y-59537034D01*
X135382528Y-59467062D01*
X135445104Y-59364917D01*
X135486802Y-59291243D01*
X135546842Y-59248519D01*
X135653312Y-59228385D01*
X135834300Y-59222477D01*
X135924394Y-59222222D01*
X136124351Y-59224888D01*
G36*
X139443111Y-58451251D02*
G01*
X139433627Y-58870929D01*
X139401950Y-59201141D01*
X139343240Y-59463969D01*
X139252661Y-59681494D01*
X139133220Y-59865591D01*
X138993700Y-60010516D01*
X138857343Y-60058106D01*
X138704708Y-60008056D01*
X138516352Y-59860060D01*
X138511778Y-59855810D01*
X138286000Y-59645555D01*
X138434012Y-59491107D01*
X138519446Y-59386712D01*
X138579820Y-59266832D01*
X138619224Y-59110491D01*
X138641748Y-58896711D01*
X138651482Y-58604515D01*
X138652889Y-58368500D01*
X138652889Y-57754666D01*
X139443111Y-57754666D01*
X139443111Y-58451251D01*
G37*
X139443111Y-58451251D02*
X139433627Y-58870929D01*
X139401950Y-59201141D01*
X139343240Y-59463969D01*
X139252661Y-59681494D01*
X139133220Y-59865591D01*
X138993700Y-60010516D01*
X138857343Y-60058106D01*
X138704708Y-60008056D01*
X138516352Y-59860060D01*
X138511778Y-59855810D01*
X138286000Y-59645555D01*
X138434012Y-59491107D01*
X138519446Y-59386712D01*
X138579820Y-59266832D01*
X138619224Y-59110491D01*
X138641748Y-58896711D01*
X138651482Y-58604515D01*
X138652889Y-58368500D01*
X138652889Y-57754666D01*
X139443111Y-57754666D01*
X139443111Y-58451251D01*
G36*
X128395456Y-58775018D02*
G01*
X128582022Y-58786747D01*
X128695486Y-58803858D01*
X128718667Y-58817056D01*
X128701731Y-58893782D01*
X128658639Y-59036973D01*
X128628806Y-59127173D01*
X128554563Y-59284734D01*
X128438159Y-59468205D01*
X128299888Y-59652291D01*
X128160040Y-59811696D01*
X128038906Y-59921127D01*
X127963917Y-59956000D01*
X127896576Y-59918154D01*
X127773284Y-59816952D01*
X127615826Y-59670893D01*
X127541109Y-59596955D01*
X127370716Y-59418990D01*
X127276110Y-59302604D01*
X127248444Y-59234668D01*
X127275738Y-59203190D01*
X127360982Y-59134623D01*
X127459846Y-59007658D01*
X127483574Y-58969567D01*
X127600929Y-58770666D01*
X128159798Y-58770666D01*
X128395456Y-58775018D01*
G37*
X128395456Y-58775018D02*
X128582022Y-58786747D01*
X128695486Y-58803858D01*
X128718667Y-58817056D01*
X128701731Y-58893782D01*
X128658639Y-59036973D01*
X128628806Y-59127173D01*
X128554563Y-59284734D01*
X128438159Y-59468205D01*
X128299888Y-59652291D01*
X128160040Y-59811696D01*
X128038906Y-59921127D01*
X127963917Y-59956000D01*
X127896576Y-59918154D01*
X127773284Y-59816952D01*
X127615826Y-59670893D01*
X127541109Y-59596955D01*
X127370716Y-59418990D01*
X127276110Y-59302604D01*
X127248444Y-59234668D01*
X127275738Y-59203190D01*
X127360982Y-59134623D01*
X127459846Y-59007658D01*
X127483574Y-58969567D01*
X127600929Y-58770666D01*
X128159798Y-58770666D01*
X128395456Y-58775018D01*
G36*
X144071556Y-58319111D02*
G01*
X143112000Y-58319111D01*
X143112000Y-58827111D01*
X143107287Y-59086237D01*
X143091801Y-59247011D01*
X143063520Y-59323629D01*
X143039678Y-59335111D01*
X142968507Y-59297122D01*
X142844078Y-59196293D01*
X142690139Y-59052329D01*
X142648498Y-59010555D01*
X142446834Y-58784061D01*
X142336609Y-58606464D01*
X142311599Y-58516666D01*
X142293556Y-58347333D01*
X141799667Y-58331024D01*
X141305778Y-58314716D01*
X141305778Y-57698222D01*
X144071556Y-57698222D01*
X144071556Y-58319111D01*
G37*
X144071556Y-58319111D02*
X143112000Y-58319111D01*
X143112000Y-58827111D01*
X143107287Y-59086237D01*
X143091801Y-59247011D01*
X143063520Y-59323629D01*
X143039678Y-59335111D01*
X142968507Y-59297122D01*
X142844078Y-59196293D01*
X142690139Y-59052329D01*
X142648498Y-59010555D01*
X142446834Y-58784061D01*
X142336609Y-58606464D01*
X142311599Y-58516666D01*
X142293556Y-58347333D01*
X141799667Y-58331024D01*
X141305778Y-58314716D01*
X141305778Y-57698222D01*
X144071556Y-57698222D01*
X144071556Y-58319111D01*
G36*
X135074415Y-57670073D02*
G01*
X135267628Y-57700022D01*
X135442025Y-57739572D01*
X135565030Y-57782705D01*
X135604889Y-57818823D01*
X135649845Y-57863758D01*
X135678101Y-57867555D01*
X135772249Y-57912988D01*
X135899191Y-58031527D01*
X136038855Y-58196531D01*
X136171172Y-58381359D01*
X136276069Y-58559372D01*
X136333478Y-58703927D01*
X136338667Y-58744359D01*
X136286906Y-58757081D01*
X136150329Y-58766312D01*
X135956998Y-58770274D01*
X135929445Y-58770309D01*
X135716346Y-58767594D01*
X135585894Y-58753139D01*
X135507856Y-58716791D01*
X135452003Y-58648395D01*
X135423777Y-58600466D01*
X135264524Y-58427004D01*
X135044057Y-58339511D01*
X134825809Y-58339704D01*
X134665463Y-58395157D01*
X134511566Y-58494649D01*
X134399653Y-58610443D01*
X134364087Y-58700111D01*
X134340843Y-58762773D01*
X134269239Y-58745840D01*
X134142270Y-58645552D01*
X133995904Y-58502555D01*
X133734064Y-58234444D01*
X133990216Y-58001244D01*
X134157818Y-57868373D01*
X134322891Y-57768987D01*
X134417628Y-57733133D01*
X134608506Y-57694257D01*
X134761862Y-57663059D01*
X134894967Y-57655746D01*
X135074415Y-57670073D01*
G37*
X135074415Y-57670073D02*
X135267628Y-57700022D01*
X135442025Y-57739572D01*
X135565030Y-57782705D01*
X135604889Y-57818823D01*
X135649845Y-57863758D01*
X135678101Y-57867555D01*
X135772249Y-57912988D01*
X135899191Y-58031527D01*
X136038855Y-58196531D01*
X136171172Y-58381359D01*
X136276069Y-58559372D01*
X136333478Y-58703927D01*
X136338667Y-58744359D01*
X136286906Y-58757081D01*
X136150329Y-58766312D01*
X135956998Y-58770274D01*
X135929445Y-58770309D01*
X135716346Y-58767594D01*
X135585894Y-58753139D01*
X135507856Y-58716791D01*
X135452003Y-58648395D01*
X135423777Y-58600466D01*
X135264524Y-58427004D01*
X135044057Y-58339511D01*
X134825809Y-58339704D01*
X134665463Y-58395157D01*
X134511566Y-58494649D01*
X134399653Y-58610443D01*
X134364087Y-58700111D01*
X134340843Y-58762773D01*
X134269239Y-58745840D01*
X134142270Y-58645552D01*
X133995904Y-58502555D01*
X133734064Y-58234444D01*
X133990216Y-58001244D01*
X134157818Y-57868373D01*
X134322891Y-57768987D01*
X134417628Y-57733133D01*
X134608506Y-57694257D01*
X134761862Y-57663059D01*
X134894967Y-57655746D01*
X135074415Y-57670073D01*
G36*
X130073334Y-58234444D02*
G01*
X130066436Y-58489868D01*
X130046565Y-58652977D01*
X130014952Y-58714018D01*
X130012699Y-58714222D01*
X129946138Y-58677568D01*
X129822807Y-58580147D01*
X129666004Y-58440773D01*
X129617588Y-58395185D01*
X129436035Y-58211039D01*
X129330642Y-58072889D01*
X129286742Y-57959696D01*
X129283111Y-57915408D01*
X129283111Y-57754666D01*
X130073334Y-57754666D01*
X130073334Y-58234444D01*
G37*
X130073334Y-58234444D02*
X130066436Y-58489868D01*
X130046565Y-58652977D01*
X130014952Y-58714018D01*
X130012699Y-58714222D01*
X129946138Y-58677568D01*
X129822807Y-58580147D01*
X129666004Y-58440773D01*
X129617588Y-58395185D01*
X129436035Y-58211039D01*
X129330642Y-58072889D01*
X129286742Y-57959696D01*
X129283111Y-57915408D01*
X129283111Y-57754666D01*
X130073334Y-57754666D01*
X130073334Y-58234444D01*
G36*
X140741334Y-58234444D02*
G01*
X140734436Y-58489868D01*
X140714565Y-58652977D01*
X140682952Y-58714018D01*
X140680699Y-58714222D01*
X140614138Y-58677568D01*
X140490807Y-58580147D01*
X140334004Y-58440773D01*
X140285588Y-58395185D01*
X140104035Y-58211039D01*
X139998642Y-58072889D01*
X139954742Y-57959696D01*
X139951111Y-57915408D01*
X139951111Y-57754666D01*
X140741334Y-57754666D01*
X140741334Y-58234444D01*
G37*
X140741334Y-58234444D02*
X140734436Y-58489868D01*
X140714565Y-58652977D01*
X140682952Y-58714018D01*
X140680699Y-58714222D01*
X140614138Y-58677568D01*
X140490807Y-58580147D01*
X140334004Y-58440773D01*
X140285588Y-58395185D01*
X140104035Y-58211039D01*
X139998642Y-58072889D01*
X139954742Y-57959696D01*
X139951111Y-57915408D01*
X139951111Y-57754666D01*
X140741334Y-57754666D01*
X140741334Y-58234444D01*
G36*
X137411111Y-58206222D02*
G01*
X137405445Y-58449385D01*
X137386960Y-58594058D01*
X137353430Y-58654143D01*
X137338789Y-58657777D01*
X137267604Y-58619914D01*
X137142763Y-58519356D01*
X136987945Y-58375650D01*
X136943678Y-58331585D01*
X136767250Y-58136858D01*
X136655566Y-57977964D01*
X136620889Y-57880029D01*
X136628963Y-57814402D01*
X136669482Y-57776826D01*
X136766895Y-57759546D01*
X136945649Y-57754804D01*
X137016000Y-57754666D01*
X137411111Y-57754666D01*
X137411111Y-58206222D01*
G37*
X137411111Y-58206222D02*
X137405445Y-58449385D01*
X137386960Y-58594058D01*
X137353430Y-58654143D01*
X137338789Y-58657777D01*
X137267604Y-58619914D01*
X137142763Y-58519356D01*
X136987945Y-58375650D01*
X136943678Y-58331585D01*
X136767250Y-58136858D01*
X136655566Y-57977964D01*
X136620889Y-57880029D01*
X136628963Y-57814402D01*
X136669482Y-57776826D01*
X136766895Y-57759546D01*
X136945649Y-57754804D01*
X137016000Y-57754666D01*
X137411111Y-57754666D01*
X137411111Y-58206222D01*
G36*
X127014484Y-56527276D02*
G01*
X127427859Y-56621406D01*
X127813227Y-56799170D01*
X128154489Y-57057550D01*
X128435548Y-57393527D01*
X128573578Y-57641777D01*
X128650687Y-57818862D01*
X128703159Y-57960072D01*
X128718116Y-58022777D01*
X128683951Y-58057758D01*
X128572162Y-58079879D01*
X128369788Y-58090787D01*
X128168334Y-58092634D01*
X127618000Y-58091935D01*
X127489233Y-57893174D01*
X127279856Y-57659022D01*
X127030377Y-57520026D01*
X126761065Y-57475954D01*
X126492191Y-57526574D01*
X126244026Y-57671653D01*
X126037556Y-57909820D01*
X125949812Y-58027174D01*
X125877009Y-58088636D01*
X125866592Y-58091159D01*
X125803806Y-58054256D01*
X125684060Y-57953547D01*
X125528111Y-57807101D01*
X125443259Y-57722589D01*
X125078000Y-57351844D01*
X125402848Y-57047433D01*
X125767282Y-56776857D01*
X126168098Y-56601984D01*
X126589198Y-56519796D01*
X127014484Y-56527276D01*
G37*
X127014484Y-56527276D02*
X127427859Y-56621406D01*
X127813227Y-56799170D01*
X128154489Y-57057550D01*
X128435548Y-57393527D01*
X128573578Y-57641777D01*
X128650687Y-57818862D01*
X128703159Y-57960072D01*
X128718116Y-58022777D01*
X128683951Y-58057758D01*
X128572162Y-58079879D01*
X128369788Y-58090787D01*
X128168334Y-58092634D01*
X127618000Y-58091935D01*
X127489233Y-57893174D01*
X127279856Y-57659022D01*
X127030377Y-57520026D01*
X126761065Y-57475954D01*
X126492191Y-57526574D01*
X126244026Y-57671653D01*
X126037556Y-57909820D01*
X125949812Y-58027174D01*
X125877009Y-58088636D01*
X125866592Y-58091159D01*
X125803806Y-58054256D01*
X125684060Y-57953547D01*
X125528111Y-57807101D01*
X125443259Y-57722589D01*
X125078000Y-57351844D01*
X125402848Y-57047433D01*
X125767282Y-56776857D01*
X126168098Y-56601984D01*
X126589198Y-56519796D01*
X127014484Y-56527276D01*
G36*
X135230552Y-55027813D02*
G01*
X135365685Y-55131169D01*
X135524673Y-55278835D01*
X135568075Y-55323365D01*
X135725162Y-55491296D01*
X135819770Y-55611555D01*
X135867737Y-55717772D01*
X135884904Y-55843574D01*
X135887111Y-56000698D01*
X135887111Y-56343555D01*
X135040445Y-56343555D01*
X135040445Y-55666222D01*
X135041786Y-55379525D01*
X135047713Y-55187155D01*
X135061083Y-55070564D01*
X135084751Y-55011202D01*
X135121574Y-54990522D01*
X135144742Y-54988888D01*
X135230552Y-55027813D01*
G37*
X135230552Y-55027813D02*
X135365685Y-55131169D01*
X135524673Y-55278835D01*
X135568075Y-55323365D01*
X135725162Y-55491296D01*
X135819770Y-55611555D01*
X135867737Y-55717772D01*
X135884904Y-55843574D01*
X135887111Y-56000698D01*
X135887111Y-56343555D01*
X135040445Y-56343555D01*
X135040445Y-55666222D01*
X135041786Y-55379525D01*
X135047713Y-55187155D01*
X135061083Y-55070564D01*
X135084751Y-55011202D01*
X135121574Y-54990522D01*
X135144742Y-54988888D01*
X135230552Y-55027813D01*
G36*
X121568991Y-53613800D02*
G01*
X121696628Y-53708475D01*
X121854560Y-53851824D01*
X122023374Y-54023561D01*
X122183654Y-54203395D01*
X122315989Y-54371040D01*
X122400963Y-54506207D01*
X122420483Y-54559382D01*
X122526045Y-54832673D01*
X122717331Y-55064268D01*
X122969191Y-55233695D01*
X123256472Y-55320483D01*
X123364258Y-55327555D01*
X123473104Y-55340292D01*
X123579948Y-55389060D01*
X123709060Y-55489692D01*
X123884710Y-55658024D01*
X123910417Y-55683878D01*
X124263573Y-56040201D01*
X124142913Y-56149545D01*
X124015128Y-56210393D01*
X123804523Y-56253284D01*
X123539842Y-56277517D01*
X123249828Y-56282389D01*
X122963223Y-56267198D01*
X122708771Y-56231242D01*
X122551362Y-56188423D01*
X122195380Y-56003297D01*
X121875265Y-55734002D01*
X121607136Y-55403086D01*
X121407113Y-55033101D01*
X121291317Y-54646595D01*
X121268857Y-54394335D01*
X121284778Y-54169663D01*
X121325606Y-53946072D01*
X121382911Y-53754151D01*
X121448261Y-53624492D01*
X121491063Y-53588090D01*
X121568991Y-53613800D01*
G37*
X121568991Y-53613800D02*
X121696628Y-53708475D01*
X121854560Y-53851824D01*
X122023374Y-54023561D01*
X122183654Y-54203395D01*
X122315989Y-54371040D01*
X122400963Y-54506207D01*
X122420483Y-54559382D01*
X122526045Y-54832673D01*
X122717331Y-55064268D01*
X122969191Y-55233695D01*
X123256472Y-55320483D01*
X123364258Y-55327555D01*
X123473104Y-55340292D01*
X123579948Y-55389060D01*
X123709060Y-55489692D01*
X123884710Y-55658024D01*
X123910417Y-55683878D01*
X124263573Y-56040201D01*
X124142913Y-56149545D01*
X124015128Y-56210393D01*
X123804523Y-56253284D01*
X123539842Y-56277517D01*
X123249828Y-56282389D01*
X122963223Y-56267198D01*
X122708771Y-56231242D01*
X122551362Y-56188423D01*
X122195380Y-56003297D01*
X121875265Y-55734002D01*
X121607136Y-55403086D01*
X121407113Y-55033101D01*
X121291317Y-54646595D01*
X121268857Y-54394335D01*
X121284778Y-54169663D01*
X121325606Y-53946072D01*
X121382911Y-53754151D01*
X121448261Y-53624492D01*
X121491063Y-53588090D01*
X121568991Y-53613800D01*
G36*
X126941236Y-55425511D02*
G01*
X127081089Y-55533351D01*
X127239190Y-55682478D01*
X127391516Y-55847848D01*
X127514043Y-56004419D01*
X127582746Y-56127149D01*
X127589778Y-56161747D01*
X127582296Y-56225621D01*
X127544078Y-56263076D01*
X127451466Y-56281119D01*
X127280802Y-56286755D01*
X127166445Y-56287111D01*
X126743111Y-56287111D01*
X126743111Y-55835555D01*
X126746011Y-55609015D01*
X126757998Y-55473124D01*
X126784010Y-55405717D01*
X126828980Y-55384631D01*
X126843656Y-55384000D01*
X126941236Y-55425511D01*
G37*
X126941236Y-55425511D02*
X127081089Y-55533351D01*
X127239190Y-55682478D01*
X127391516Y-55847848D01*
X127514043Y-56004419D01*
X127582746Y-56127149D01*
X127589778Y-56161747D01*
X127582296Y-56225621D01*
X127544078Y-56263076D01*
X127451466Y-56281119D01*
X127280802Y-56286755D01*
X127166445Y-56287111D01*
X126743111Y-56287111D01*
X126743111Y-55835555D01*
X126746011Y-55609015D01*
X126757998Y-55473124D01*
X126784010Y-55405717D01*
X126828980Y-55384631D01*
X126843656Y-55384000D01*
X126941236Y-55425511D01*
G36*
X129303468Y-55082382D02*
G01*
X129428839Y-55181743D01*
X129590878Y-55325736D01*
X129682326Y-55412222D01*
X129860077Y-55573308D01*
X130018835Y-55698389D01*
X130134713Y-55769458D01*
X130168982Y-55779111D01*
X130262806Y-55817475D01*
X130399323Y-55917214D01*
X130524889Y-56033111D01*
X130774171Y-56287111D01*
X129170223Y-56287111D01*
X129170223Y-55666222D01*
X129174750Y-55363884D01*
X129188917Y-55165870D01*
X129213598Y-55063952D01*
X129236259Y-55045333D01*
X129303468Y-55082382D01*
G37*
X129303468Y-55082382D02*
X129428839Y-55181743D01*
X129590878Y-55325736D01*
X129682326Y-55412222D01*
X129860077Y-55573308D01*
X130018835Y-55698389D01*
X130134713Y-55769458D01*
X130168982Y-55779111D01*
X130262806Y-55817475D01*
X130399323Y-55917214D01*
X130524889Y-56033111D01*
X130774171Y-56287111D01*
X129170223Y-56287111D01*
X129170223Y-55666222D01*
X129174750Y-55363884D01*
X129188917Y-55165870D01*
X129213598Y-55063952D01*
X129236259Y-55045333D01*
X129303468Y-55082382D01*
G36*
X132289345Y-54858295D02*
G01*
X132420997Y-54958699D01*
X132576299Y-55097046D01*
X132730711Y-55249615D01*
X132859697Y-55392684D01*
X132938718Y-55502532D01*
X132952000Y-55540858D01*
X132984523Y-55570172D01*
X133089746Y-55590652D01*
X133279148Y-55603300D01*
X133564209Y-55609117D01*
X133742223Y-55609777D01*
X134532445Y-55609777D01*
X134532445Y-56287111D01*
X132105334Y-56287111D01*
X132105334Y-55553333D01*
X132106613Y-55252505D01*
X132112074Y-55046803D01*
X132124147Y-54918476D01*
X132145266Y-54849774D01*
X132177861Y-54822946D01*
X132205878Y-54819555D01*
X132289345Y-54858295D01*
G37*
X132289345Y-54858295D02*
X132420997Y-54958699D01*
X132576299Y-55097046D01*
X132730711Y-55249615D01*
X132859697Y-55392684D01*
X132938718Y-55502532D01*
X132952000Y-55540858D01*
X132984523Y-55570172D01*
X133089746Y-55590652D01*
X133279148Y-55603300D01*
X133564209Y-55609117D01*
X133742223Y-55609777D01*
X134532445Y-55609777D01*
X134532445Y-56287111D01*
X132105334Y-56287111D01*
X132105334Y-55553333D01*
X132106613Y-55252505D01*
X132112074Y-55046803D01*
X132124147Y-54918476D01*
X132145266Y-54849774D01*
X132177861Y-54822946D01*
X132205878Y-54819555D01*
X132289345Y-54858295D01*
G36*
X136042334Y-53691906D02*
G01*
X136417958Y-53693949D01*
X136699993Y-53700121D01*
X136907708Y-53712076D01*
X137060375Y-53731466D01*
X137177266Y-53759947D01*
X137274282Y-53797634D01*
X137485543Y-53950371D01*
X137624458Y-54168183D01*
X137685308Y-54425016D01*
X137662374Y-54694815D01*
X137549938Y-54951526D01*
X137532979Y-54976278D01*
X137438044Y-55085616D01*
X137314201Y-55170212D01*
X137129433Y-55248984D01*
X136991303Y-55296333D01*
X136954662Y-55321659D01*
X136961426Y-55370342D01*
X137021047Y-55455651D01*
X137142974Y-55590852D01*
X137336660Y-55789213D01*
X137356946Y-55809624D01*
X137831952Y-56287111D01*
X136704144Y-56287111D01*
X135872295Y-55453872D01*
X135040445Y-54620633D01*
X135040445Y-54368000D01*
X135865991Y-54368000D01*
X136028223Y-54537333D01*
X136144262Y-54640785D01*
X136264246Y-54691146D01*
X136436731Y-54706287D01*
X136488352Y-54706666D01*
X136677433Y-54697394D01*
X136786259Y-54663124D01*
X136844681Y-54597488D01*
X136890636Y-54495098D01*
X136886822Y-54428571D01*
X136817977Y-54390294D01*
X136668837Y-54372654D01*
X136424140Y-54368040D01*
X136384551Y-54368000D01*
X135865991Y-54368000D01*
X135040445Y-54368000D01*
X135040445Y-53690666D01*
X136042334Y-53691906D01*
G37*
X136042334Y-53691906D02*
X136417958Y-53693949D01*
X136699993Y-53700121D01*
X136907708Y-53712076D01*
X137060375Y-53731466D01*
X137177266Y-53759947D01*
X137274282Y-53797634D01*
X137485543Y-53950371D01*
X137624458Y-54168183D01*
X137685308Y-54425016D01*
X137662374Y-54694815D01*
X137549938Y-54951526D01*
X137532979Y-54976278D01*
X137438044Y-55085616D01*
X137314201Y-55170212D01*
X137129433Y-55248984D01*
X136991303Y-55296333D01*
X136954662Y-55321659D01*
X136961426Y-55370342D01*
X137021047Y-55455651D01*
X137142974Y-55590852D01*
X137336660Y-55789213D01*
X137356946Y-55809624D01*
X137831952Y-56287111D01*
X136704144Y-56287111D01*
X135872295Y-55453872D01*
X135040445Y-54620633D01*
X135040445Y-54368000D01*
X135865991Y-54368000D01*
X136028223Y-54537333D01*
X136144262Y-54640785D01*
X136264246Y-54691146D01*
X136436731Y-54706287D01*
X136488352Y-54706666D01*
X136677433Y-54697394D01*
X136786259Y-54663124D01*
X136844681Y-54597488D01*
X136890636Y-54495098D01*
X136886822Y-54428571D01*
X136817977Y-54390294D01*
X136668837Y-54372654D01*
X136424140Y-54368040D01*
X136384551Y-54368000D01*
X135865991Y-54368000D01*
X135040445Y-54368000D01*
X135040445Y-53690666D01*
X136042334Y-53691906D01*
G36*
X138671658Y-53613800D02*
G01*
X138799295Y-53708475D01*
X138957227Y-53851824D01*
X139126040Y-54023561D01*
X139286321Y-54203395D01*
X139418655Y-54371040D01*
X139503630Y-54506207D01*
X139523150Y-54559382D01*
X139628712Y-54832673D01*
X139819998Y-55064268D01*
X140071858Y-55233695D01*
X140359139Y-55320483D01*
X140466924Y-55327555D01*
X140575771Y-55340292D01*
X140682614Y-55389060D01*
X140811726Y-55489692D01*
X140987376Y-55658024D01*
X141013084Y-55683878D01*
X141366240Y-56040201D01*
X141245580Y-56149545D01*
X141117795Y-56210393D01*
X140907190Y-56253284D01*
X140642509Y-56277517D01*
X140352494Y-56282389D01*
X140065890Y-56267198D01*
X139811437Y-56231242D01*
X139654029Y-56188423D01*
X139298047Y-56003297D01*
X138977931Y-55734002D01*
X138709803Y-55403086D01*
X138509780Y-55033101D01*
X138393984Y-54646595D01*
X138371524Y-54394335D01*
X138387445Y-54169663D01*
X138428273Y-53946072D01*
X138485577Y-53754151D01*
X138550927Y-53624492D01*
X138593730Y-53588090D01*
X138671658Y-53613800D01*
G37*
X138671658Y-53613800D02*
X138799295Y-53708475D01*
X138957227Y-53851824D01*
X139126040Y-54023561D01*
X139286321Y-54203395D01*
X139418655Y-54371040D01*
X139503630Y-54506207D01*
X139523150Y-54559382D01*
X139628712Y-54832673D01*
X139819998Y-55064268D01*
X140071858Y-55233695D01*
X140359139Y-55320483D01*
X140466924Y-55327555D01*
X140575771Y-55340292D01*
X140682614Y-55389060D01*
X140811726Y-55489692D01*
X140987376Y-55658024D01*
X141013084Y-55683878D01*
X141366240Y-56040201D01*
X141245580Y-56149545D01*
X141117795Y-56210393D01*
X140907190Y-56253284D01*
X140642509Y-56277517D01*
X140352494Y-56282389D01*
X140065890Y-56267198D01*
X139811437Y-56231242D01*
X139654029Y-56188423D01*
X139298047Y-56003297D01*
X138977931Y-55734002D01*
X138709803Y-55403086D01*
X138509780Y-55033101D01*
X138393984Y-54646595D01*
X138371524Y-54394335D01*
X138387445Y-54169663D01*
X138428273Y-53946072D01*
X138485577Y-53754151D01*
X138550927Y-53624492D01*
X138593730Y-53588090D01*
X138671658Y-53613800D01*
G36*
X143121938Y-54369710D02*
G01*
X143257967Y-54489080D01*
X143406697Y-54634344D01*
X143732889Y-54957132D01*
X143732889Y-56287111D01*
X142886223Y-56287111D01*
X142886223Y-55299333D01*
X142887575Y-54908638D01*
X142895790Y-54622866D01*
X142917099Y-54434052D01*
X142957738Y-54334231D01*
X143023940Y-54315438D01*
X143121938Y-54369710D01*
G37*
X143121938Y-54369710D02*
X143257967Y-54489080D01*
X143406697Y-54634344D01*
X143732889Y-54957132D01*
X143732889Y-56287111D01*
X142886223Y-56287111D01*
X142886223Y-55299333D01*
X142887575Y-54908638D01*
X142895790Y-54622866D01*
X142917099Y-54434052D01*
X142957738Y-54334231D01*
X143023940Y-54315438D01*
X143121938Y-54369710D01*
G36*
X145453188Y-55003067D02*
G01*
X145618692Y-55153320D01*
X145724323Y-55258636D01*
X146047111Y-55584829D01*
X146047111Y-56287111D01*
X145200445Y-56287111D01*
X145200445Y-55609777D01*
X145204521Y-55287154D01*
X145222785Y-55071237D01*
X145264284Y-54955960D01*
X145338069Y-54935259D01*
X145453188Y-55003067D01*
G37*
X145453188Y-55003067D02*
X145618692Y-55153320D01*
X145724323Y-55258636D01*
X146047111Y-55584829D01*
X146047111Y-56287111D01*
X145200445Y-56287111D01*
X145200445Y-55609777D01*
X145204521Y-55287154D01*
X145222785Y-55071237D01*
X145264284Y-54955960D01*
X145338069Y-54935259D01*
X145453188Y-55003067D01*
G36*
X148659279Y-55427582D02*
G01*
X148776553Y-55512030D01*
X148923221Y-55640832D01*
X149077886Y-55792771D01*
X149219152Y-55946627D01*
X149325622Y-56081183D01*
X149375899Y-56175220D01*
X149377334Y-56186702D01*
X149363598Y-56238427D01*
X149307213Y-56268801D01*
X149185408Y-56283223D01*
X148975413Y-56287095D01*
X148954000Y-56287111D01*
X148530667Y-56287111D01*
X148530667Y-55867108D01*
X148538735Y-55644399D01*
X148560617Y-55483031D01*
X148592797Y-55408708D01*
X148659279Y-55427582D01*
G37*
X148659279Y-55427582D02*
X148776553Y-55512030D01*
X148923221Y-55640832D01*
X149077886Y-55792771D01*
X149219152Y-55946627D01*
X149325622Y-56081183D01*
X149375899Y-56175220D01*
X149377334Y-56186702D01*
X149363598Y-56238427D01*
X149307213Y-56268801D01*
X149185408Y-56283223D01*
X148975413Y-56287095D01*
X148954000Y-56287111D01*
X148530667Y-56287111D01*
X148530667Y-55867108D01*
X148538735Y-55644399D01*
X148560617Y-55483031D01*
X148592797Y-55408708D01*
X148659279Y-55427582D01*
G36*
X130446979Y-53694721D02*
G01*
X130752206Y-53709572D01*
X130980463Y-53739253D01*
X131149608Y-53787793D01*
X131277500Y-53859227D01*
X131381995Y-53957584D01*
X131417040Y-53999997D01*
X131551748Y-54250529D01*
X131574667Y-54514528D01*
X131497703Y-54762549D01*
X131431066Y-54906737D01*
X131414708Y-55005224D01*
X131448629Y-55113383D01*
X131497703Y-55215228D01*
X131577627Y-55450750D01*
X131574484Y-55629211D01*
X131512529Y-55792647D01*
X131400159Y-55964480D01*
X131263746Y-56114056D01*
X131129662Y-56210723D01*
X131057022Y-56230666D01*
X130954172Y-56192105D01*
X130816624Y-56093544D01*
X130734301Y-56017030D01*
X130525691Y-55803395D01*
X130643846Y-55685241D01*
X130722333Y-55584853D01*
X130719087Y-55493142D01*
X130694128Y-55440268D01*
X130650395Y-55375314D01*
X130587917Y-55340018D01*
X130478548Y-55328522D01*
X130294143Y-55334967D01*
X130212403Y-55340008D01*
X129798550Y-55366568D01*
X129484386Y-55049091D01*
X129170223Y-54731615D01*
X129170223Y-54349444D01*
X129960445Y-54349444D01*
X130009386Y-54505768D01*
X130146646Y-54605891D01*
X130357883Y-54640564D01*
X130409025Y-54638748D01*
X130570563Y-54620117D01*
X130651187Y-54580265D01*
X130682812Y-54501678D01*
X130685050Y-54487272D01*
X130676719Y-54370386D01*
X130601001Y-54298610D01*
X130442159Y-54263444D01*
X130256778Y-54255975D01*
X130078835Y-54262314D01*
X129988415Y-54287886D01*
X129960729Y-54340508D01*
X129960445Y-54349444D01*
X129170223Y-54349444D01*
X129170223Y-53690666D01*
X130046924Y-53690666D01*
X130446979Y-53694721D01*
G37*
X130446979Y-53694721D02*
X130752206Y-53709572D01*
X130980463Y-53739253D01*
X131149608Y-53787793D01*
X131277500Y-53859227D01*
X131381995Y-53957584D01*
X131417040Y-53999997D01*
X131551748Y-54250529D01*
X131574667Y-54514528D01*
X131497703Y-54762549D01*
X131431066Y-54906737D01*
X131414708Y-55005224D01*
X131448629Y-55113383D01*
X131497703Y-55215228D01*
X131577627Y-55450750D01*
X131574484Y-55629211D01*
X131512529Y-55792647D01*
X131400159Y-55964480D01*
X131263746Y-56114056D01*
X131129662Y-56210723D01*
X131057022Y-56230666D01*
X130954172Y-56192105D01*
X130816624Y-56093544D01*
X130734301Y-56017030D01*
X130525691Y-55803395D01*
X130643846Y-55685241D01*
X130722333Y-55584853D01*
X130719087Y-55493142D01*
X130694128Y-55440268D01*
X130650395Y-55375314D01*
X130587917Y-55340018D01*
X130478548Y-55328522D01*
X130294143Y-55334967D01*
X130212403Y-55340008D01*
X129798550Y-55366568D01*
X129484386Y-55049091D01*
X129170223Y-54731615D01*
X129170223Y-54349444D01*
X129960445Y-54349444D01*
X130009386Y-54505768D01*
X130146646Y-54605891D01*
X130357883Y-54640564D01*
X130409025Y-54638748D01*
X130570563Y-54620117D01*
X130651187Y-54580265D01*
X130682812Y-54501678D01*
X130685050Y-54487272D01*
X130676719Y-54370386D01*
X130601001Y-54298610D01*
X130442159Y-54263444D01*
X130256778Y-54255975D01*
X130078835Y-54262314D01*
X129988415Y-54287886D01*
X129960729Y-54340508D01*
X129960445Y-54349444D01*
X129170223Y-54349444D01*
X129170223Y-53690666D01*
X130046924Y-53690666D01*
X130446979Y-53694721D01*
G36*
X124892718Y-54710988D02*
G01*
X125080317Y-54722639D01*
X125194989Y-54739647D01*
X125219111Y-54753056D01*
X125186182Y-54918101D01*
X125098564Y-55122955D01*
X124973013Y-55343249D01*
X124826284Y-55554614D01*
X124675133Y-55732682D01*
X124536314Y-55853084D01*
X124436003Y-55892000D01*
X124354418Y-55853834D01*
X124220706Y-55752254D01*
X124059488Y-55606631D01*
X124005468Y-55553244D01*
X123670247Y-55214488D01*
X123795890Y-55126484D01*
X123913369Y-55011320D01*
X124007328Y-54872573D01*
X124093122Y-54706666D01*
X124656116Y-54706666D01*
X124892718Y-54710988D01*
G37*
X124892718Y-54710988D02*
X125080317Y-54722639D01*
X125194989Y-54739647D01*
X125219111Y-54753056D01*
X125186182Y-54918101D01*
X125098564Y-55122955D01*
X124973013Y-55343249D01*
X124826284Y-55554614D01*
X124675133Y-55732682D01*
X124536314Y-55853084D01*
X124436003Y-55892000D01*
X124354418Y-55853834D01*
X124220706Y-55752254D01*
X124059488Y-55606631D01*
X124005468Y-55553244D01*
X123670247Y-55214488D01*
X123795890Y-55126484D01*
X123913369Y-55011320D01*
X124007328Y-54872573D01*
X124093122Y-54706666D01*
X124656116Y-54706666D01*
X124892718Y-54710988D01*
G36*
X141998567Y-54711018D02*
G01*
X142185133Y-54722747D01*
X142298597Y-54739858D01*
X142321778Y-54753056D01*
X142304843Y-54829782D01*
X142261750Y-54972973D01*
X142231917Y-55063173D01*
X142157674Y-55220734D01*
X142041270Y-55404205D01*
X141902999Y-55588291D01*
X141763151Y-55747696D01*
X141642017Y-55857127D01*
X141567028Y-55892000D01*
X141499687Y-55854154D01*
X141376395Y-55752952D01*
X141218937Y-55606893D01*
X141144220Y-55532955D01*
X140973827Y-55354990D01*
X140879221Y-55238604D01*
X140851556Y-55170668D01*
X140878849Y-55139190D01*
X140964093Y-55070623D01*
X141062957Y-54943658D01*
X141086685Y-54905567D01*
X141204040Y-54706666D01*
X141762909Y-54706666D01*
X141998567Y-54711018D01*
G37*
X141998567Y-54711018D02*
X142185133Y-54722747D01*
X142298597Y-54739858D01*
X142321778Y-54753056D01*
X142304843Y-54829782D01*
X142261750Y-54972973D01*
X142231917Y-55063173D01*
X142157674Y-55220734D01*
X142041270Y-55404205D01*
X141902999Y-55588291D01*
X141763151Y-55747696D01*
X141642017Y-55857127D01*
X141567028Y-55892000D01*
X141499687Y-55854154D01*
X141376395Y-55752952D01*
X141218937Y-55606893D01*
X141144220Y-55532955D01*
X140973827Y-55354990D01*
X140879221Y-55238604D01*
X140851556Y-55170668D01*
X140878849Y-55139190D01*
X140964093Y-55070623D01*
X141062957Y-54943658D01*
X141086685Y-54905567D01*
X141204040Y-54706666D01*
X141762909Y-54706666D01*
X141998567Y-54711018D01*
G36*
X126812250Y-54070152D02*
G01*
X127194667Y-54449639D01*
X127577083Y-54070152D01*
X127959500Y-53690666D01*
X128970973Y-53690666D01*
X128280375Y-54382926D01*
X127589778Y-55075185D01*
X127589778Y-55398926D01*
X127584370Y-55585104D01*
X127563012Y-55683777D01*
X127518007Y-55720024D01*
X127490412Y-55722666D01*
X127424806Y-55684090D01*
X127292119Y-55575545D01*
X127104169Y-55407805D01*
X126872770Y-55191645D01*
X126609739Y-54937838D01*
X126376223Y-54706666D01*
X125361399Y-53690666D01*
X126429834Y-53690666D01*
X126812250Y-54070152D01*
G37*
X126812250Y-54070152D02*
X127194667Y-54449639D01*
X127577083Y-54070152D01*
X127959500Y-53690666D01*
X128970973Y-53690666D01*
X128280375Y-54382926D01*
X127589778Y-55075185D01*
X127589778Y-55398926D01*
X127584370Y-55585104D01*
X127563012Y-55683777D01*
X127518007Y-55720024D01*
X127490412Y-55722666D01*
X127424806Y-55684090D01*
X127292119Y-55575545D01*
X127104169Y-55407805D01*
X126872770Y-55191645D01*
X126609739Y-54937838D01*
X126376223Y-54706666D01*
X125361399Y-53690666D01*
X126429834Y-53690666D01*
X126812250Y-54070152D01*
G36*
X148599806Y-54070152D02*
G01*
X148982223Y-54449639D01*
X149364639Y-54070152D01*
X149747056Y-53690666D01*
X150758528Y-53690666D01*
X150067931Y-54382926D01*
X149377334Y-55075185D01*
X149377334Y-55398926D01*
X149371927Y-55585100D01*
X149350572Y-55683771D01*
X149305569Y-55720021D01*
X149277951Y-55722666D01*
X149211807Y-55684109D01*
X149078931Y-55575780D01*
X148891442Y-55408688D01*
X148661462Y-55193846D01*
X148401111Y-54942263D01*
X148205507Y-54748411D01*
X147935786Y-54476719D01*
X147694768Y-54230792D01*
X147493342Y-54022001D01*
X147342397Y-53861717D01*
X147252824Y-53761309D01*
X147232445Y-53732411D01*
X147284616Y-53713768D01*
X147424080Y-53699418D01*
X147625260Y-53691531D01*
X147724917Y-53690666D01*
X148217389Y-53690666D01*
X148599806Y-54070152D01*
G37*
X148599806Y-54070152D02*
X148982223Y-54449639D01*
X149364639Y-54070152D01*
X149747056Y-53690666D01*
X150758528Y-53690666D01*
X150067931Y-54382926D01*
X149377334Y-55075185D01*
X149377334Y-55398926D01*
X149371927Y-55585100D01*
X149350572Y-55683771D01*
X149305569Y-55720021D01*
X149277951Y-55722666D01*
X149211807Y-55684109D01*
X149078931Y-55575780D01*
X148891442Y-55408688D01*
X148661462Y-55193846D01*
X148401111Y-54942263D01*
X148205507Y-54748411D01*
X147935786Y-54476719D01*
X147694768Y-54230792D01*
X147493342Y-54022001D01*
X147342397Y-53861717D01*
X147252824Y-53761309D01*
X147232445Y-53732411D01*
X147284616Y-53713768D01*
X147424080Y-53699418D01*
X147625260Y-53691531D01*
X147724917Y-53690666D01*
X148217389Y-53690666D01*
X148599806Y-54070152D01*
G36*
X134476000Y-54255111D02*
G01*
X133770445Y-54255111D01*
X133503161Y-54257452D01*
X133282334Y-54263845D01*
X133129337Y-54273343D01*
X133065543Y-54285000D01*
X133064889Y-54286349D01*
X133097006Y-54345572D01*
X133177895Y-54458034D01*
X133220111Y-54512125D01*
X133375334Y-54706663D01*
X133925667Y-54706665D01*
X134476000Y-54706666D01*
X134476000Y-55327555D01*
X132977397Y-55327555D01*
X132569588Y-54917005D01*
X132161778Y-54506456D01*
X132161778Y-53634222D01*
X134476000Y-53634222D01*
X134476000Y-54255111D01*
G37*
X134476000Y-54255111D02*
X133770445Y-54255111D01*
X133503161Y-54257452D01*
X133282334Y-54263845D01*
X133129337Y-54273343D01*
X133065543Y-54285000D01*
X133064889Y-54286349D01*
X133097006Y-54345572D01*
X133177895Y-54458034D01*
X133220111Y-54512125D01*
X133375334Y-54706663D01*
X133925667Y-54706665D01*
X134476000Y-54706666D01*
X134476000Y-55327555D01*
X132977397Y-55327555D01*
X132569588Y-54917005D01*
X132161778Y-54506456D01*
X132161778Y-53634222D01*
X134476000Y-53634222D01*
X134476000Y-54255111D01*
G36*
X147006667Y-54255111D02*
G01*
X146047111Y-54255111D01*
X146047111Y-54763111D01*
X146042398Y-55022237D01*
X146026912Y-55183011D01*
X145998631Y-55259629D01*
X145974789Y-55271111D01*
X145903618Y-55233122D01*
X145779189Y-55132293D01*
X145625250Y-54988329D01*
X145583610Y-54946555D01*
X145381945Y-54720061D01*
X145271720Y-54542464D01*
X145246710Y-54452666D01*
X145228667Y-54283333D01*
X144734778Y-54267024D01*
X144240889Y-54250716D01*
X144240889Y-53634222D01*
X147006667Y-53634222D01*
X147006667Y-54255111D01*
G37*
X147006667Y-54255111D02*
X146047111Y-54255111D01*
X146047111Y-54763111D01*
X146042398Y-55022237D01*
X146026912Y-55183011D01*
X145998631Y-55259629D01*
X145974789Y-55271111D01*
X145903618Y-55233122D01*
X145779189Y-55132293D01*
X145625250Y-54988329D01*
X145583610Y-54946555D01*
X145381945Y-54720061D01*
X145271720Y-54542464D01*
X145246710Y-54452666D01*
X145228667Y-54283333D01*
X144734778Y-54267024D01*
X144240889Y-54250716D01*
X144240889Y-53634222D01*
X147006667Y-53634222D01*
X147006667Y-54255111D01*
G36*
X143676445Y-54170444D02*
G01*
X143669547Y-54425868D01*
X143649676Y-54588977D01*
X143618064Y-54650018D01*
X143615810Y-54650222D01*
X143549249Y-54613568D01*
X143425918Y-54516147D01*
X143269115Y-54376773D01*
X143220699Y-54331185D01*
X143039146Y-54147039D01*
X142933753Y-54008889D01*
X142889853Y-53895696D01*
X142886223Y-53851408D01*
X142886223Y-53690666D01*
X143676445Y-53690666D01*
X143676445Y-54170444D01*
G37*
X143676445Y-54170444D02*
X143669547Y-54425868D01*
X143649676Y-54588977D01*
X143618064Y-54650018D01*
X143615810Y-54650222D01*
X143549249Y-54613568D01*
X143425918Y-54516147D01*
X143269115Y-54376773D01*
X143220699Y-54331185D01*
X143039146Y-54147039D01*
X142933753Y-54008889D01*
X142889853Y-53895696D01*
X142886223Y-53851408D01*
X142886223Y-53690666D01*
X143676445Y-53690666D01*
X143676445Y-54170444D01*
G36*
X123514928Y-52463276D02*
G01*
X123928304Y-52557406D01*
X124313671Y-52735170D01*
X124654933Y-52993550D01*
X124935993Y-53329527D01*
X125074023Y-53577777D01*
X125151131Y-53754862D01*
X125203604Y-53896072D01*
X125218560Y-53958777D01*
X125184395Y-53993758D01*
X125072606Y-54015879D01*
X124870233Y-54026787D01*
X124668778Y-54028634D01*
X124118445Y-54027935D01*
X123989677Y-53829174D01*
X123780301Y-53595022D01*
X123530821Y-53456026D01*
X123261509Y-53411954D01*
X122992636Y-53462574D01*
X122744471Y-53607653D01*
X122538000Y-53845820D01*
X122450256Y-53963174D01*
X122377454Y-54024636D01*
X122367036Y-54027159D01*
X122304250Y-53990256D01*
X122184504Y-53889547D01*
X122028556Y-53743101D01*
X121943703Y-53658589D01*
X121578445Y-53287844D01*
X121903292Y-52983433D01*
X122267727Y-52712857D01*
X122668542Y-52537984D01*
X123089642Y-52455796D01*
X123514928Y-52463276D01*
G37*
X123514928Y-52463276D02*
X123928304Y-52557406D01*
X124313671Y-52735170D01*
X124654933Y-52993550D01*
X124935993Y-53329527D01*
X125074023Y-53577777D01*
X125151131Y-53754862D01*
X125203604Y-53896072D01*
X125218560Y-53958777D01*
X125184395Y-53993758D01*
X125072606Y-54015879D01*
X124870233Y-54026787D01*
X124668778Y-54028634D01*
X124118445Y-54027935D01*
X123989677Y-53829174D01*
X123780301Y-53595022D01*
X123530821Y-53456026D01*
X123261509Y-53411954D01*
X122992636Y-53462574D01*
X122744471Y-53607653D01*
X122538000Y-53845820D01*
X122450256Y-53963174D01*
X122377454Y-54024636D01*
X122367036Y-54027159D01*
X122304250Y-53990256D01*
X122184504Y-53889547D01*
X122028556Y-53743101D01*
X121943703Y-53658589D01*
X121578445Y-53287844D01*
X121903292Y-52983433D01*
X122267727Y-52712857D01*
X122668542Y-52537984D01*
X123089642Y-52455796D01*
X123514928Y-52463276D01*
G36*
X140617595Y-52463276D02*
G01*
X141030971Y-52557406D01*
X141416338Y-52735170D01*
X141757600Y-52993550D01*
X142038659Y-53329527D01*
X142176689Y-53577777D01*
X142253798Y-53754862D01*
X142306270Y-53896072D01*
X142321227Y-53958777D01*
X142287062Y-53993758D01*
X142175273Y-54015879D01*
X141972899Y-54026787D01*
X141771445Y-54028634D01*
X141221111Y-54027935D01*
X141092344Y-53829174D01*
X140882967Y-53595022D01*
X140633488Y-53456026D01*
X140364176Y-53411954D01*
X140095303Y-53462574D01*
X139847137Y-53607653D01*
X139640667Y-53845820D01*
X139552923Y-53963174D01*
X139480120Y-54024636D01*
X139469703Y-54027159D01*
X139406917Y-53990256D01*
X139287171Y-53889547D01*
X139131223Y-53743101D01*
X139046370Y-53658589D01*
X138681111Y-53287844D01*
X139005959Y-52983433D01*
X139370393Y-52712857D01*
X139771209Y-52537984D01*
X140192309Y-52455796D01*
X140617595Y-52463276D01*
G37*
X140617595Y-52463276D02*
X141030971Y-52557406D01*
X141416338Y-52735170D01*
X141757600Y-52993550D01*
X142038659Y-53329527D01*
X142176689Y-53577777D01*
X142253798Y-53754862D01*
X142306270Y-53896072D01*
X142321227Y-53958777D01*
X142287062Y-53993758D01*
X142175273Y-54015879D01*
X141972899Y-54026787D01*
X141771445Y-54028634D01*
X141221111Y-54027935D01*
X141092344Y-53829174D01*
X140882967Y-53595022D01*
X140633488Y-53456026D01*
X140364176Y-53411954D01*
X140095303Y-53462574D01*
X139847137Y-53607653D01*
X139640667Y-53845820D01*
X139552923Y-53963174D01*
X139480120Y-54024636D01*
X139469703Y-54027159D01*
X139406917Y-53990256D01*
X139287171Y-53889547D01*
X139131223Y-53743101D01*
X139046370Y-53658589D01*
X138681111Y-53287844D01*
X139005959Y-52983433D01*
X139370393Y-52712857D01*
X139771209Y-52537984D01*
X140192309Y-52455796D01*
X140617595Y-52463276D01*
D12*
%TO.C, *%
X42500000Y-54000000D02*
G75*
G03*
X42500000Y-54000000I-3500000J0D01*
G01*
X164500000Y-54000000D02*
G75*
G03*
X164500000Y-54000000I-3500000J0D01*
G01*
X164500000Y-146000000D02*
G75*
G03*
X164500000Y-146000000I-3500000J0D01*
G01*
X42500000Y-146000000D02*
G75*
G03*
X42500000Y-146000000I-3500000J0D01*
G01*
%TO.C,A1*%
X64700000Y-100920000D02*
X64700000Y-103460000D01*
X64700000Y-103460000D02*
X67370000Y-103460000D01*
X67370000Y-100920000D02*
X67370000Y-62690000D01*
X67370000Y-106130000D02*
X67370000Y-103460000D01*
X52000000Y-103460000D02*
X49330000Y-103460000D01*
X52000000Y-103460000D02*
X52000000Y-65360000D01*
X52000000Y-65360000D02*
X49330000Y-65360000D01*
X64700000Y-100920000D02*
X67370000Y-100920000D01*
X64700000Y-100920000D02*
X64700000Y-65360000D01*
X64700000Y-65360000D02*
X67370000Y-65360000D01*
X67370000Y-62690000D02*
X49330000Y-62690000D01*
X49330000Y-62690000D02*
X49330000Y-106130000D01*
X49330000Y-106130000D02*
X67370000Y-106130000D01*
D14*
%TO.C,D1*%
X45000000Y-136592000D02*
X45000000Y-136084000D01*
X45000000Y-137354000D02*
X45000000Y-137862000D01*
X44238000Y-137354000D02*
X45762000Y-137354000D01*
X45000000Y-137354000D02*
X44238000Y-136592000D01*
X45762000Y-136592000D02*
X45000000Y-137354000D01*
X44238000Y-136592000D02*
X45762000Y-136592000D01*
D12*
X43455000Y-139660000D02*
X46545000Y-139660000D01*
X45000000Y-135830000D02*
X47100000Y-135830000D01*
X45000000Y-138370000D02*
X46500000Y-138370000D01*
X44999538Y-134110000D02*
G75*
G02*
X46544830Y-139660000I462J-2990000D01*
G01*
X45000462Y-134110000D02*
G75*
G03*
X43455170Y-139660000I-462J-2990000D01*
G01*
D14*
%TO.C,D2*%
X50000000Y-126592000D02*
X50000000Y-126084000D01*
X50000000Y-127354000D02*
X50000000Y-127862000D01*
X49238000Y-127354000D02*
X50762000Y-127354000D01*
X50000000Y-127354000D02*
X49238000Y-126592000D01*
X50762000Y-126592000D02*
X50000000Y-127354000D01*
X49238000Y-126592000D02*
X50762000Y-126592000D01*
D12*
X48455000Y-129660000D02*
X51545000Y-129660000D01*
X50000000Y-125830000D02*
X52100000Y-125830000D01*
X50000000Y-128370000D02*
X51500000Y-128370000D01*
X49999538Y-124110000D02*
G75*
G02*
X51544830Y-129660000I462J-2990000D01*
G01*
X50000462Y-124110000D02*
G75*
G03*
X48455170Y-129660000I-462J-2990000D01*
G01*
%TO.C,D3*%
X55000000Y-138370000D02*
X56500000Y-138370000D01*
X55000000Y-135830000D02*
X57100000Y-135830000D01*
X53455000Y-139660000D02*
X56545000Y-139660000D01*
D14*
X54238000Y-136592000D02*
X55762000Y-136592000D01*
X55762000Y-136592000D02*
X55000000Y-137354000D01*
X55000000Y-137354000D02*
X54238000Y-136592000D01*
X54238000Y-137354000D02*
X55762000Y-137354000D01*
X55000000Y-137354000D02*
X55000000Y-137862000D01*
X55000000Y-136592000D02*
X55000000Y-136084000D01*
D12*
X55000462Y-134110000D02*
G75*
G03*
X53455170Y-139660000I-462J-2990000D01*
G01*
X54999538Y-134110000D02*
G75*
G02*
X56544830Y-139660000I462J-2990000D01*
G01*
D14*
%TO.C,D4*%
X65000000Y-136592000D02*
X65000000Y-136084000D01*
X65000000Y-137354000D02*
X65000000Y-137862000D01*
X64238000Y-137354000D02*
X65762000Y-137354000D01*
X65000000Y-137354000D02*
X64238000Y-136592000D01*
X65762000Y-136592000D02*
X65000000Y-137354000D01*
X64238000Y-136592000D02*
X65762000Y-136592000D01*
D12*
X63455000Y-139660000D02*
X66545000Y-139660000D01*
X65000000Y-135830000D02*
X67100000Y-135830000D01*
X65000000Y-138370000D02*
X66500000Y-138370000D01*
X64999538Y-134110000D02*
G75*
G02*
X66544830Y-139660000I462J-2990000D01*
G01*
X65000462Y-134110000D02*
G75*
G03*
X63455170Y-139660000I-462J-2990000D01*
G01*
%TO.C,D5*%
X70000000Y-128370000D02*
X71500000Y-128370000D01*
X70000000Y-125830000D02*
X72100000Y-125830000D01*
X68455000Y-129660000D02*
X71545000Y-129660000D01*
D14*
X69238000Y-126592000D02*
X70762000Y-126592000D01*
X70762000Y-126592000D02*
X70000000Y-127354000D01*
X70000000Y-127354000D02*
X69238000Y-126592000D01*
X69238000Y-127354000D02*
X70762000Y-127354000D01*
X70000000Y-127354000D02*
X70000000Y-127862000D01*
X70000000Y-126592000D02*
X70000000Y-126084000D01*
D12*
X70000462Y-124110000D02*
G75*
G03*
X68455170Y-129660000I-462J-2990000D01*
G01*
X69999538Y-124110000D02*
G75*
G02*
X71544830Y-129660000I462J-2990000D01*
G01*
%TO.C,D6*%
X75000000Y-138370000D02*
X76500000Y-138370000D01*
X75000000Y-135830000D02*
X77100000Y-135830000D01*
X73455000Y-139660000D02*
X76545000Y-139660000D01*
D14*
X74238000Y-136592000D02*
X75762000Y-136592000D01*
X75762000Y-136592000D02*
X75000000Y-137354000D01*
X75000000Y-137354000D02*
X74238000Y-136592000D01*
X74238000Y-137354000D02*
X75762000Y-137354000D01*
X75000000Y-137354000D02*
X75000000Y-137862000D01*
X75000000Y-136592000D02*
X75000000Y-136084000D01*
D12*
X75000462Y-134110000D02*
G75*
G03*
X73455170Y-139660000I-462J-2990000D01*
G01*
X74999538Y-134110000D02*
G75*
G02*
X76544830Y-139660000I462J-2990000D01*
G01*
D14*
%TO.C,D7*%
X80000000Y-126592000D02*
X80000000Y-126084000D01*
X80000000Y-127354000D02*
X80000000Y-127862000D01*
X79238000Y-127354000D02*
X80762000Y-127354000D01*
X80000000Y-127354000D02*
X79238000Y-126592000D01*
X80762000Y-126592000D02*
X80000000Y-127354000D01*
X79238000Y-126592000D02*
X80762000Y-126592000D01*
D12*
X78455000Y-129660000D02*
X81545000Y-129660000D01*
X80000000Y-125830000D02*
X82100000Y-125830000D01*
X80000000Y-128370000D02*
X81500000Y-128370000D01*
X79999538Y-124110000D02*
G75*
G02*
X81544830Y-129660000I462J-2990000D01*
G01*
X80000462Y-124110000D02*
G75*
G03*
X78455170Y-129660000I-462J-2990000D01*
G01*
%TO.C,D8*%
X85000000Y-138370000D02*
X86500000Y-138370000D01*
X85000000Y-135830000D02*
X87100000Y-135830000D01*
X83455000Y-139660000D02*
X86545000Y-139660000D01*
D14*
X84238000Y-136592000D02*
X85762000Y-136592000D01*
X85762000Y-136592000D02*
X85000000Y-137354000D01*
X85000000Y-137354000D02*
X84238000Y-136592000D01*
X84238000Y-137354000D02*
X85762000Y-137354000D01*
X85000000Y-137354000D02*
X85000000Y-137862000D01*
X85000000Y-136592000D02*
X85000000Y-136084000D01*
D12*
X85000462Y-134110000D02*
G75*
G03*
X83455170Y-139660000I-462J-2990000D01*
G01*
X84999538Y-134110000D02*
G75*
G02*
X86544830Y-139660000I462J-2990000D01*
G01*
%TO.C,D9*%
X95000000Y-138370000D02*
X96500000Y-138370000D01*
X95000000Y-135830000D02*
X97100000Y-135830000D01*
X93455000Y-139660000D02*
X96545000Y-139660000D01*
D14*
X94238000Y-136592000D02*
X95762000Y-136592000D01*
X95762000Y-136592000D02*
X95000000Y-137354000D01*
X95000000Y-137354000D02*
X94238000Y-136592000D01*
X94238000Y-137354000D02*
X95762000Y-137354000D01*
X95000000Y-137354000D02*
X95000000Y-137862000D01*
X95000000Y-136592000D02*
X95000000Y-136084000D01*
D12*
X95000462Y-134110000D02*
G75*
G03*
X93455170Y-139660000I-462J-2990000D01*
G01*
X94999538Y-134110000D02*
G75*
G02*
X96544830Y-139660000I462J-2990000D01*
G01*
D14*
%TO.C,D10*%
X100000000Y-126592000D02*
X100000000Y-126084000D01*
X100000000Y-127354000D02*
X100000000Y-127862000D01*
X99238000Y-127354000D02*
X100762000Y-127354000D01*
X100000000Y-127354000D02*
X99238000Y-126592000D01*
X100762000Y-126592000D02*
X100000000Y-127354000D01*
X99238000Y-126592000D02*
X100762000Y-126592000D01*
D12*
X98455000Y-129660000D02*
X101545000Y-129660000D01*
X100000000Y-125830000D02*
X102100000Y-125830000D01*
X100000000Y-128370000D02*
X101500000Y-128370000D01*
X99999538Y-124110000D02*
G75*
G02*
X101544830Y-129660000I462J-2990000D01*
G01*
X100000462Y-124110000D02*
G75*
G03*
X98455170Y-129660000I-462J-2990000D01*
G01*
%TO.C,D11*%
X105000000Y-138370000D02*
X106500000Y-138370000D01*
X105000000Y-135830000D02*
X107100000Y-135830000D01*
X103455000Y-139660000D02*
X106545000Y-139660000D01*
D14*
X104238000Y-136592000D02*
X105762000Y-136592000D01*
X105762000Y-136592000D02*
X105000000Y-137354000D01*
X105000000Y-137354000D02*
X104238000Y-136592000D01*
X104238000Y-137354000D02*
X105762000Y-137354000D01*
X105000000Y-137354000D02*
X105000000Y-137862000D01*
X105000000Y-136592000D02*
X105000000Y-136084000D01*
D12*
X105000462Y-134110000D02*
G75*
G03*
X103455170Y-139660000I-462J-2990000D01*
G01*
X104999538Y-134110000D02*
G75*
G02*
X106544830Y-139660000I462J-2990000D01*
G01*
D14*
%TO.C,D12*%
X110000000Y-126592000D02*
X110000000Y-126084000D01*
X110000000Y-127354000D02*
X110000000Y-127862000D01*
X109238000Y-127354000D02*
X110762000Y-127354000D01*
X110000000Y-127354000D02*
X109238000Y-126592000D01*
X110762000Y-126592000D02*
X110000000Y-127354000D01*
X109238000Y-126592000D02*
X110762000Y-126592000D01*
D12*
X108455000Y-129660000D02*
X111545000Y-129660000D01*
X110000000Y-125830000D02*
X112100000Y-125830000D01*
X110000000Y-128370000D02*
X111500000Y-128370000D01*
X109999538Y-124110000D02*
G75*
G02*
X111544830Y-129660000I462J-2990000D01*
G01*
X110000462Y-124110000D02*
G75*
G03*
X108455170Y-129660000I-462J-2990000D01*
G01*
D14*
%TO.C,D13*%
X115000000Y-136592000D02*
X115000000Y-136084000D01*
X115000000Y-137354000D02*
X115000000Y-137862000D01*
X114238000Y-137354000D02*
X115762000Y-137354000D01*
X115000000Y-137354000D02*
X114238000Y-136592000D01*
X115762000Y-136592000D02*
X115000000Y-137354000D01*
X114238000Y-136592000D02*
X115762000Y-136592000D01*
D12*
X113455000Y-139660000D02*
X116545000Y-139660000D01*
X115000000Y-135830000D02*
X117100000Y-135830000D01*
X115000000Y-138370000D02*
X116500000Y-138370000D01*
X114999538Y-134110000D02*
G75*
G02*
X116544830Y-139660000I462J-2990000D01*
G01*
X115000462Y-134110000D02*
G75*
G03*
X113455170Y-139660000I-462J-2990000D01*
G01*
%TO.C,D14*%
X120000000Y-128370000D02*
X121500000Y-128370000D01*
X120000000Y-125830000D02*
X122100000Y-125830000D01*
X118455000Y-129660000D02*
X121545000Y-129660000D01*
D14*
X119238000Y-126592000D02*
X120762000Y-126592000D01*
X120762000Y-126592000D02*
X120000000Y-127354000D01*
X120000000Y-127354000D02*
X119238000Y-126592000D01*
X119238000Y-127354000D02*
X120762000Y-127354000D01*
X120000000Y-127354000D02*
X120000000Y-127862000D01*
X120000000Y-126592000D02*
X120000000Y-126084000D01*
D12*
X120000462Y-124110000D02*
G75*
G03*
X118455170Y-129660000I-462J-2990000D01*
G01*
X119999538Y-124110000D02*
G75*
G02*
X121544830Y-129660000I462J-2990000D01*
G01*
D14*
%TO.C,D15*%
X125000000Y-136592000D02*
X125000000Y-136084000D01*
X125000000Y-137354000D02*
X125000000Y-137862000D01*
X124238000Y-137354000D02*
X125762000Y-137354000D01*
X125000000Y-137354000D02*
X124238000Y-136592000D01*
X125762000Y-136592000D02*
X125000000Y-137354000D01*
X124238000Y-136592000D02*
X125762000Y-136592000D01*
D12*
X123455000Y-139660000D02*
X126545000Y-139660000D01*
X125000000Y-135830000D02*
X127100000Y-135830000D01*
X125000000Y-138370000D02*
X126500000Y-138370000D01*
X124999538Y-134110000D02*
G75*
G02*
X126544830Y-139660000I462J-2990000D01*
G01*
X125000462Y-134110000D02*
G75*
G03*
X123455170Y-139660000I-462J-2990000D01*
G01*
%TO.C,D16*%
X135000000Y-138370000D02*
X136500000Y-138370000D01*
X135000000Y-135830000D02*
X137100000Y-135830000D01*
X133455000Y-139660000D02*
X136545000Y-139660000D01*
D14*
X134238000Y-136592000D02*
X135762000Y-136592000D01*
X135762000Y-136592000D02*
X135000000Y-137354000D01*
X135000000Y-137354000D02*
X134238000Y-136592000D01*
X134238000Y-137354000D02*
X135762000Y-137354000D01*
X135000000Y-137354000D02*
X135000000Y-137862000D01*
X135000000Y-136592000D02*
X135000000Y-136084000D01*
D12*
X135000462Y-134110000D02*
G75*
G03*
X133455170Y-139660000I-462J-2990000D01*
G01*
X134999538Y-134110000D02*
G75*
G02*
X136544830Y-139660000I462J-2990000D01*
G01*
%TO.C,D17*%
X140000000Y-128370000D02*
X141500000Y-128370000D01*
X140000000Y-125830000D02*
X142100000Y-125830000D01*
X138455000Y-129660000D02*
X141545000Y-129660000D01*
D14*
X139238000Y-126592000D02*
X140762000Y-126592000D01*
X140762000Y-126592000D02*
X140000000Y-127354000D01*
X140000000Y-127354000D02*
X139238000Y-126592000D01*
X139238000Y-127354000D02*
X140762000Y-127354000D01*
X140000000Y-127354000D02*
X140000000Y-127862000D01*
X140000000Y-126592000D02*
X140000000Y-126084000D01*
D12*
X140000462Y-124110000D02*
G75*
G03*
X138455170Y-129660000I-462J-2990000D01*
G01*
X139999538Y-124110000D02*
G75*
G02*
X141544830Y-129660000I462J-2990000D01*
G01*
D14*
%TO.C,D18*%
X145000000Y-136592000D02*
X145000000Y-136084000D01*
X145000000Y-137354000D02*
X145000000Y-137862000D01*
X144238000Y-137354000D02*
X145762000Y-137354000D01*
X145000000Y-137354000D02*
X144238000Y-136592000D01*
X145762000Y-136592000D02*
X145000000Y-137354000D01*
X144238000Y-136592000D02*
X145762000Y-136592000D01*
D12*
X143455000Y-139660000D02*
X146545000Y-139660000D01*
X145000000Y-135830000D02*
X147100000Y-135830000D01*
X145000000Y-138370000D02*
X146500000Y-138370000D01*
X144999538Y-134110000D02*
G75*
G02*
X146544830Y-139660000I462J-2990000D01*
G01*
X145000462Y-134110000D02*
G75*
G03*
X143455170Y-139660000I-462J-2990000D01*
G01*
%TO.C,D19*%
X150000000Y-128370000D02*
X151500000Y-128370000D01*
X150000000Y-125830000D02*
X152100000Y-125830000D01*
X148455000Y-129660000D02*
X151545000Y-129660000D01*
D14*
X149238000Y-126592000D02*
X150762000Y-126592000D01*
X150762000Y-126592000D02*
X150000000Y-127354000D01*
X150000000Y-127354000D02*
X149238000Y-126592000D01*
X149238000Y-127354000D02*
X150762000Y-127354000D01*
X150000000Y-127354000D02*
X150000000Y-127862000D01*
X150000000Y-126592000D02*
X150000000Y-126084000D01*
D12*
X150000462Y-124110000D02*
G75*
G03*
X148455170Y-129660000I-462J-2990000D01*
G01*
X149999538Y-124110000D02*
G75*
G02*
X151544830Y-129660000I462J-2990000D01*
G01*
D14*
%TO.C,D20*%
X155000000Y-136592000D02*
X155000000Y-136084000D01*
X155000000Y-137354000D02*
X155000000Y-137862000D01*
X154238000Y-137354000D02*
X155762000Y-137354000D01*
X155000000Y-137354000D02*
X154238000Y-136592000D01*
X155762000Y-136592000D02*
X155000000Y-137354000D01*
X154238000Y-136592000D02*
X155762000Y-136592000D01*
D12*
X153455000Y-139660000D02*
X156545000Y-139660000D01*
X155000000Y-135830000D02*
X157100000Y-135830000D01*
X155000000Y-138370000D02*
X156500000Y-138370000D01*
X154999538Y-134110000D02*
G75*
G02*
X156544830Y-139660000I462J-2990000D01*
G01*
X155000462Y-134110000D02*
G75*
G03*
X153455170Y-139660000I-462J-2990000D01*
G01*
%TO.C,J1*%
X93378000Y-56880000D02*
X93928000Y-56380000D01*
X93378000Y-55880000D02*
X93378000Y-56880000D01*
X93928000Y-56380000D02*
X93378000Y-55880000D01*
D14*
X106228000Y-50580000D02*
X106228000Y-58330000D01*
X106228000Y-62680000D02*
X106228000Y-65080000D01*
X106228000Y-65080000D02*
X94428000Y-65080000D01*
X94428000Y-65080000D02*
X94428000Y-64980000D01*
X94428000Y-62380000D02*
X94428000Y-58630000D01*
X94428000Y-54130000D02*
X94428000Y-50580000D01*
X94428000Y-50580000D02*
X106228000Y-50580000D01*
X103128000Y-50580000D02*
X103128000Y-46980000D01*
X103128000Y-46980000D02*
X96928000Y-46980000D01*
X96928000Y-46980000D02*
X96928000Y-50580000D01*
D12*
%TO.C,LS1*%
X114950000Y-88600000D02*
G75*
G03*
X114950000Y-88600000I-15000000J0D01*
G01*
D13*
%TO.C,R1*%
G36*
X99864713Y-106216892D02*
G01*
X99837408Y-106173274D01*
X99791317Y-106064755D01*
X99732384Y-105908907D01*
X99666556Y-105723303D01*
X99599776Y-105525516D01*
X99537991Y-105333117D01*
X99487145Y-105163680D01*
X99453182Y-105034777D01*
X99441961Y-104967314D01*
X99421391Y-104903417D01*
X99398608Y-104891975D01*
X99359975Y-104926652D01*
X99355557Y-104953893D01*
X99341238Y-105030284D01*
X99298845Y-105184942D01*
X99229227Y-105415037D01*
X99133231Y-105717737D01*
X99052172Y-105967102D01*
X99003519Y-106097186D01*
X98957978Y-106188594D01*
X98932910Y-106216756D01*
X98907674Y-106182912D01*
X98863115Y-106083427D01*
X98804999Y-105935026D01*
X98739092Y-105754435D01*
X98671161Y-105558377D01*
X98606972Y-105363577D01*
X98552291Y-105186760D01*
X98512886Y-105044651D01*
X98494522Y-104953974D01*
X98493881Y-104943427D01*
X98482118Y-104900941D01*
X98451770Y-104931671D01*
X98408019Y-105026074D01*
X98356047Y-105174609D01*
X98340190Y-105226405D01*
X98272720Y-105453207D01*
X97285785Y-105441659D01*
X96920782Y-105435068D01*
X96638924Y-105425285D01*
X96440553Y-105413033D01*
X96326007Y-105399031D01*
X96295625Y-105384001D01*
X96349749Y-105368662D01*
X96488716Y-105353736D01*
X96712868Y-105339943D01*
X97022544Y-105328003D01*
X97229606Y-105322484D01*
X98160469Y-105300958D01*
X98278679Y-104965914D01*
X98336569Y-104807703D01*
X98386352Y-104682210D01*
X98419484Y-104610642D01*
X98424906Y-104602852D01*
X98463062Y-104594182D01*
X98506703Y-104646996D01*
X98560153Y-104768968D01*
X98624165Y-104956552D01*
X98686891Y-105151102D01*
X98753353Y-105354042D01*
X98801150Y-105497554D01*
X98845366Y-105640494D01*
X98874731Y-105758190D01*
X98881998Y-105809672D01*
X98903991Y-105873070D01*
X98945586Y-105872406D01*
X98970207Y-105808866D01*
X98970280Y-105806806D01*
X98985389Y-105720284D01*
X99023376Y-105581522D01*
X99077970Y-105408003D01*
X99142899Y-105217211D01*
X99211893Y-105026630D01*
X99278680Y-104853743D01*
X99336989Y-104716033D01*
X99380549Y-104630984D01*
X99398798Y-104612145D01*
X99434578Y-104650993D01*
X99485824Y-104756788D01*
X99545360Y-104913406D01*
X99580845Y-105021128D01*
X99674268Y-105317552D01*
X99746146Y-105539771D01*
X99799595Y-105696074D01*
X99837730Y-105794752D01*
X99863667Y-105844094D01*
X99880523Y-105852390D01*
X99888293Y-105839094D01*
X99947161Y-105659041D01*
X100020556Y-105424042D01*
X100099800Y-105162064D01*
X100128781Y-105064179D01*
X100197492Y-104840510D01*
X100253880Y-104692269D01*
X100303675Y-104620703D01*
X100352606Y-104627063D01*
X100406405Y-104712596D01*
X100470802Y-104878552D01*
X100551527Y-105126179D01*
X100561670Y-105158523D01*
X100629477Y-105373962D01*
X100690393Y-105565229D01*
X100738706Y-105714550D01*
X100768704Y-105804151D01*
X100772873Y-105815671D01*
X100793673Y-105829259D01*
X100826469Y-105782338D01*
X100874225Y-105668393D01*
X100939902Y-105480908D01*
X100978419Y-105363638D01*
X101046398Y-105151343D01*
X101106567Y-104959083D01*
X101152787Y-104806769D01*
X101178922Y-104714312D01*
X101180222Y-104709009D01*
X101219512Y-104610693D01*
X101269575Y-104596573D01*
X101329160Y-104665586D01*
X101397012Y-104816670D01*
X101434165Y-104924264D01*
X101498764Y-105128685D01*
X101565080Y-105344762D01*
X101618826Y-105525941D01*
X101619124Y-105526975D01*
X101662637Y-105664349D01*
X101700908Y-105761313D01*
X101724651Y-105796043D01*
X101748453Y-105757788D01*
X101780762Y-105658944D01*
X101805692Y-105559264D01*
X101858681Y-105322484D01*
X102824238Y-105322484D01*
X103140811Y-105323159D01*
X103381246Y-105325629D01*
X103555497Y-105330560D01*
X103673521Y-105338617D01*
X103745271Y-105350466D01*
X103780704Y-105366774D01*
X103789794Y-105387060D01*
X103779464Y-105408887D01*
X103741620Y-105425284D01*
X103665982Y-105436987D01*
X103542270Y-105444732D01*
X103360204Y-105449255D01*
X103109504Y-105451294D01*
X102888267Y-105451636D01*
X102576913Y-105453649D01*
X102320401Y-105459441D01*
X102126718Y-105468646D01*
X102003853Y-105480894D01*
X101960334Y-105494362D01*
X101939936Y-105557068D01*
X101913555Y-105676951D01*
X101891221Y-105802279D01*
X101849195Y-106010602D01*
X101802616Y-106148021D01*
X101753893Y-106208689D01*
X101724833Y-106205940D01*
X101693670Y-106155660D01*
X101648824Y-106046912D01*
X101603543Y-105914141D01*
X101550457Y-105744147D01*
X101484018Y-105531099D01*
X101416437Y-105314160D01*
X101399273Y-105259018D01*
X101341920Y-105077374D01*
X101301195Y-104974451D01*
X101267991Y-104950987D01*
X101233201Y-105007724D01*
X101187720Y-105145399D01*
X101147875Y-105279433D01*
X101076634Y-105513757D01*
X101005754Y-105736321D01*
X100940901Y-105930277D01*
X100887742Y-106078774D01*
X100851944Y-106164961D01*
X100847241Y-106173440D01*
X100810000Y-106210000D01*
X100771851Y-106190093D01*
X100727352Y-106105542D01*
X100671061Y-105948167D01*
X100646945Y-105872375D01*
X100549291Y-105559537D01*
X100474035Y-105320326D01*
X100417850Y-105146200D01*
X100377409Y-105028619D01*
X100349386Y-104959039D01*
X100330453Y-104928920D01*
X100317284Y-104929719D01*
X100306553Y-104952896D01*
X100298643Y-104978077D01*
X100184304Y-105346548D01*
X100091723Y-105639448D01*
X100018431Y-105863827D01*
X99961956Y-106026737D01*
X99919831Y-106135229D01*
X99889583Y-106196354D01*
X99868745Y-106217163D01*
X99864713Y-106216892D01*
G37*
X99864713Y-106216892D02*
X99837408Y-106173274D01*
X99791317Y-106064755D01*
X99732384Y-105908907D01*
X99666556Y-105723303D01*
X99599776Y-105525516D01*
X99537991Y-105333117D01*
X99487145Y-105163680D01*
X99453182Y-105034777D01*
X99441961Y-104967314D01*
X99421391Y-104903417D01*
X99398608Y-104891975D01*
X99359975Y-104926652D01*
X99355557Y-104953893D01*
X99341238Y-105030284D01*
X99298845Y-105184942D01*
X99229227Y-105415037D01*
X99133231Y-105717737D01*
X99052172Y-105967102D01*
X99003519Y-106097186D01*
X98957978Y-106188594D01*
X98932910Y-106216756D01*
X98907674Y-106182912D01*
X98863115Y-106083427D01*
X98804999Y-105935026D01*
X98739092Y-105754435D01*
X98671161Y-105558377D01*
X98606972Y-105363577D01*
X98552291Y-105186760D01*
X98512886Y-105044651D01*
X98494522Y-104953974D01*
X98493881Y-104943427D01*
X98482118Y-104900941D01*
X98451770Y-104931671D01*
X98408019Y-105026074D01*
X98356047Y-105174609D01*
X98340190Y-105226405D01*
X98272720Y-105453207D01*
X97285785Y-105441659D01*
X96920782Y-105435068D01*
X96638924Y-105425285D01*
X96440553Y-105413033D01*
X96326007Y-105399031D01*
X96295625Y-105384001D01*
X96349749Y-105368662D01*
X96488716Y-105353736D01*
X96712868Y-105339943D01*
X97022544Y-105328003D01*
X97229606Y-105322484D01*
X98160469Y-105300958D01*
X98278679Y-104965914D01*
X98336569Y-104807703D01*
X98386352Y-104682210D01*
X98419484Y-104610642D01*
X98424906Y-104602852D01*
X98463062Y-104594182D01*
X98506703Y-104646996D01*
X98560153Y-104768968D01*
X98624165Y-104956552D01*
X98686891Y-105151102D01*
X98753353Y-105354042D01*
X98801150Y-105497554D01*
X98845366Y-105640494D01*
X98874731Y-105758190D01*
X98881998Y-105809672D01*
X98903991Y-105873070D01*
X98945586Y-105872406D01*
X98970207Y-105808866D01*
X98970280Y-105806806D01*
X98985389Y-105720284D01*
X99023376Y-105581522D01*
X99077970Y-105408003D01*
X99142899Y-105217211D01*
X99211893Y-105026630D01*
X99278680Y-104853743D01*
X99336989Y-104716033D01*
X99380549Y-104630984D01*
X99398798Y-104612145D01*
X99434578Y-104650993D01*
X99485824Y-104756788D01*
X99545360Y-104913406D01*
X99580845Y-105021128D01*
X99674268Y-105317552D01*
X99746146Y-105539771D01*
X99799595Y-105696074D01*
X99837730Y-105794752D01*
X99863667Y-105844094D01*
X99880523Y-105852390D01*
X99888293Y-105839094D01*
X99947161Y-105659041D01*
X100020556Y-105424042D01*
X100099800Y-105162064D01*
X100128781Y-105064179D01*
X100197492Y-104840510D01*
X100253880Y-104692269D01*
X100303675Y-104620703D01*
X100352606Y-104627063D01*
X100406405Y-104712596D01*
X100470802Y-104878552D01*
X100551527Y-105126179D01*
X100561670Y-105158523D01*
X100629477Y-105373962D01*
X100690393Y-105565229D01*
X100738706Y-105714550D01*
X100768704Y-105804151D01*
X100772873Y-105815671D01*
X100793673Y-105829259D01*
X100826469Y-105782338D01*
X100874225Y-105668393D01*
X100939902Y-105480908D01*
X100978419Y-105363638D01*
X101046398Y-105151343D01*
X101106567Y-104959083D01*
X101152787Y-104806769D01*
X101178922Y-104714312D01*
X101180222Y-104709009D01*
X101219512Y-104610693D01*
X101269575Y-104596573D01*
X101329160Y-104665586D01*
X101397012Y-104816670D01*
X101434165Y-104924264D01*
X101498764Y-105128685D01*
X101565080Y-105344762D01*
X101618826Y-105525941D01*
X101619124Y-105526975D01*
X101662637Y-105664349D01*
X101700908Y-105761313D01*
X101724651Y-105796043D01*
X101748453Y-105757788D01*
X101780762Y-105658944D01*
X101805692Y-105559264D01*
X101858681Y-105322484D01*
X102824238Y-105322484D01*
X103140811Y-105323159D01*
X103381246Y-105325629D01*
X103555497Y-105330560D01*
X103673521Y-105338617D01*
X103745271Y-105350466D01*
X103780704Y-105366774D01*
X103789794Y-105387060D01*
X103779464Y-105408887D01*
X103741620Y-105425284D01*
X103665982Y-105436987D01*
X103542270Y-105444732D01*
X103360204Y-105449255D01*
X103109504Y-105451294D01*
X102888267Y-105451636D01*
X102576913Y-105453649D01*
X102320401Y-105459441D01*
X102126718Y-105468646D01*
X102003853Y-105480894D01*
X101960334Y-105494362D01*
X101939936Y-105557068D01*
X101913555Y-105676951D01*
X101891221Y-105802279D01*
X101849195Y-106010602D01*
X101802616Y-106148021D01*
X101753893Y-106208689D01*
X101724833Y-106205940D01*
X101693670Y-106155660D01*
X101648824Y-106046912D01*
X101603543Y-105914141D01*
X101550457Y-105744147D01*
X101484018Y-105531099D01*
X101416437Y-105314160D01*
X101399273Y-105259018D01*
X101341920Y-105077374D01*
X101301195Y-104974451D01*
X101267991Y-104950987D01*
X101233201Y-105007724D01*
X101187720Y-105145399D01*
X101147875Y-105279433D01*
X101076634Y-105513757D01*
X101005754Y-105736321D01*
X100940901Y-105930277D01*
X100887742Y-106078774D01*
X100851944Y-106164961D01*
X100847241Y-106173440D01*
X100810000Y-106210000D01*
X100771851Y-106190093D01*
X100727352Y-106105542D01*
X100671061Y-105948167D01*
X100646945Y-105872375D01*
X100549291Y-105559537D01*
X100474035Y-105320326D01*
X100417850Y-105146200D01*
X100377409Y-105028619D01*
X100349386Y-104959039D01*
X100330453Y-104928920D01*
X100317284Y-104929719D01*
X100306553Y-104952896D01*
X100298643Y-104978077D01*
X100184304Y-105346548D01*
X100091723Y-105639448D01*
X100018431Y-105863827D01*
X99961956Y-106026737D01*
X99919831Y-106135229D01*
X99889583Y-106196354D01*
X99868745Y-106217163D01*
X99864713Y-106216892D01*
D12*
X105000000Y-105400000D02*
X103000000Y-105400000D01*
X95000000Y-105400000D02*
X97000000Y-105400000D01*
%TO.C,R2*%
X80000000Y-110100000D02*
X80000000Y-112100000D01*
X80000000Y-120100000D02*
X80000000Y-118100000D01*
D13*
G36*
X79183108Y-114964713D02*
G01*
X79226726Y-114937408D01*
X79335245Y-114891317D01*
X79491093Y-114832384D01*
X79676697Y-114766556D01*
X79874484Y-114699776D01*
X80066883Y-114637991D01*
X80236320Y-114587145D01*
X80365223Y-114553182D01*
X80432686Y-114541961D01*
X80496583Y-114521391D01*
X80508025Y-114498608D01*
X80473348Y-114459975D01*
X80446107Y-114455557D01*
X80369716Y-114441238D01*
X80215058Y-114398845D01*
X79984963Y-114329227D01*
X79682263Y-114233231D01*
X79432898Y-114152172D01*
X79302814Y-114103519D01*
X79211406Y-114057978D01*
X79183244Y-114032910D01*
X79217088Y-114007674D01*
X79316573Y-113963115D01*
X79464974Y-113904999D01*
X79645565Y-113839092D01*
X79841623Y-113771161D01*
X80036423Y-113706972D01*
X80213240Y-113652291D01*
X80355349Y-113612886D01*
X80446026Y-113594522D01*
X80456573Y-113593881D01*
X80499059Y-113582118D01*
X80468329Y-113551770D01*
X80373926Y-113508019D01*
X80225391Y-113456047D01*
X80173595Y-113440190D01*
X79946793Y-113372720D01*
X79958341Y-112385785D01*
X79964932Y-112020782D01*
X79974715Y-111738924D01*
X79986967Y-111540553D01*
X80000969Y-111426007D01*
X80015999Y-111395625D01*
X80031338Y-111449749D01*
X80046264Y-111588716D01*
X80060057Y-111812868D01*
X80071997Y-112122544D01*
X80077516Y-112329606D01*
X80099042Y-113260469D01*
X80434086Y-113378679D01*
X80592297Y-113436569D01*
X80717790Y-113486352D01*
X80789358Y-113519484D01*
X80797148Y-113524906D01*
X80805818Y-113563062D01*
X80753004Y-113606703D01*
X80631032Y-113660153D01*
X80443448Y-113724165D01*
X80248898Y-113786891D01*
X80045958Y-113853353D01*
X79902446Y-113901150D01*
X79759506Y-113945366D01*
X79641810Y-113974731D01*
X79590328Y-113981998D01*
X79526930Y-114003991D01*
X79527594Y-114045586D01*
X79591134Y-114070207D01*
X79593194Y-114070280D01*
X79679716Y-114085389D01*
X79818478Y-114123376D01*
X79991997Y-114177970D01*
X80182789Y-114242899D01*
X80373370Y-114311893D01*
X80546257Y-114378680D01*
X80683967Y-114436989D01*
X80769016Y-114480549D01*
X80787855Y-114498798D01*
X80749007Y-114534578D01*
X80643212Y-114585824D01*
X80486594Y-114645360D01*
X80378872Y-114680845D01*
X80082448Y-114774268D01*
X79860229Y-114846146D01*
X79703926Y-114899595D01*
X79605248Y-114937730D01*
X79555906Y-114963667D01*
X79547610Y-114980523D01*
X79560906Y-114988293D01*
X79740959Y-115047161D01*
X79975958Y-115120556D01*
X80237936Y-115199800D01*
X80335821Y-115228781D01*
X80559490Y-115297492D01*
X80707731Y-115353880D01*
X80779297Y-115403675D01*
X80772937Y-115452606D01*
X80687404Y-115506405D01*
X80521448Y-115570802D01*
X80273821Y-115651527D01*
X80241477Y-115661670D01*
X80026038Y-115729477D01*
X79834771Y-115790393D01*
X79685450Y-115838706D01*
X79595849Y-115868704D01*
X79584329Y-115872873D01*
X79570741Y-115893673D01*
X79617662Y-115926469D01*
X79731607Y-115974225D01*
X79919092Y-116039902D01*
X80036362Y-116078419D01*
X80248657Y-116146398D01*
X80440917Y-116206567D01*
X80593231Y-116252787D01*
X80685688Y-116278922D01*
X80690991Y-116280222D01*
X80789307Y-116319512D01*
X80803427Y-116369575D01*
X80734414Y-116429160D01*
X80583330Y-116497012D01*
X80475736Y-116534165D01*
X80271315Y-116598764D01*
X80055238Y-116665080D01*
X79874059Y-116718826D01*
X79873025Y-116719124D01*
X79735651Y-116762637D01*
X79638687Y-116800908D01*
X79603957Y-116824651D01*
X79642212Y-116848453D01*
X79741056Y-116880762D01*
X79840736Y-116905692D01*
X80077516Y-116958681D01*
X80077516Y-117924238D01*
X80076841Y-118240811D01*
X80074371Y-118481246D01*
X80069440Y-118655497D01*
X80061383Y-118773521D01*
X80049534Y-118845271D01*
X80033226Y-118880704D01*
X80012940Y-118889794D01*
X79991113Y-118879464D01*
X79974716Y-118841620D01*
X79963013Y-118765982D01*
X79955268Y-118642270D01*
X79950745Y-118460204D01*
X79948706Y-118209504D01*
X79948364Y-117988267D01*
X79946351Y-117676913D01*
X79940559Y-117420401D01*
X79931354Y-117226718D01*
X79919106Y-117103853D01*
X79905638Y-117060334D01*
X79842932Y-117039936D01*
X79723049Y-117013555D01*
X79597721Y-116991221D01*
X79389398Y-116949195D01*
X79251979Y-116902616D01*
X79191311Y-116853893D01*
X79194060Y-116824833D01*
X79244340Y-116793670D01*
X79353088Y-116748824D01*
X79485859Y-116703543D01*
X79655853Y-116650457D01*
X79868901Y-116584018D01*
X80085840Y-116516437D01*
X80140982Y-116499273D01*
X80322626Y-116441920D01*
X80425549Y-116401195D01*
X80449013Y-116367991D01*
X80392276Y-116333201D01*
X80254601Y-116287720D01*
X80120567Y-116247875D01*
X79886243Y-116176634D01*
X79663679Y-116105754D01*
X79469723Y-116040901D01*
X79321226Y-115987742D01*
X79235039Y-115951944D01*
X79226560Y-115947241D01*
X79190000Y-115910000D01*
X79209907Y-115871851D01*
X79294458Y-115827352D01*
X79451833Y-115771061D01*
X79527625Y-115746945D01*
X79840463Y-115649291D01*
X80079674Y-115574035D01*
X80253800Y-115517850D01*
X80371381Y-115477409D01*
X80440961Y-115449386D01*
X80471080Y-115430453D01*
X80470281Y-115417284D01*
X80447104Y-115406553D01*
X80421923Y-115398643D01*
X80053452Y-115284304D01*
X79760552Y-115191723D01*
X79536173Y-115118431D01*
X79373263Y-115061956D01*
X79264771Y-115019831D01*
X79203646Y-114989583D01*
X79182837Y-114968745D01*
X79183108Y-114964713D01*
G37*
X79183108Y-114964713D02*
X79226726Y-114937408D01*
X79335245Y-114891317D01*
X79491093Y-114832384D01*
X79676697Y-114766556D01*
X79874484Y-114699776D01*
X80066883Y-114637991D01*
X80236320Y-114587145D01*
X80365223Y-114553182D01*
X80432686Y-114541961D01*
X80496583Y-114521391D01*
X80508025Y-114498608D01*
X80473348Y-114459975D01*
X80446107Y-114455557D01*
X80369716Y-114441238D01*
X80215058Y-114398845D01*
X79984963Y-114329227D01*
X79682263Y-114233231D01*
X79432898Y-114152172D01*
X79302814Y-114103519D01*
X79211406Y-114057978D01*
X79183244Y-114032910D01*
X79217088Y-114007674D01*
X79316573Y-113963115D01*
X79464974Y-113904999D01*
X79645565Y-113839092D01*
X79841623Y-113771161D01*
X80036423Y-113706972D01*
X80213240Y-113652291D01*
X80355349Y-113612886D01*
X80446026Y-113594522D01*
X80456573Y-113593881D01*
X80499059Y-113582118D01*
X80468329Y-113551770D01*
X80373926Y-113508019D01*
X80225391Y-113456047D01*
X80173595Y-113440190D01*
X79946793Y-113372720D01*
X79958341Y-112385785D01*
X79964932Y-112020782D01*
X79974715Y-111738924D01*
X79986967Y-111540553D01*
X80000969Y-111426007D01*
X80015999Y-111395625D01*
X80031338Y-111449749D01*
X80046264Y-111588716D01*
X80060057Y-111812868D01*
X80071997Y-112122544D01*
X80077516Y-112329606D01*
X80099042Y-113260469D01*
X80434086Y-113378679D01*
X80592297Y-113436569D01*
X80717790Y-113486352D01*
X80789358Y-113519484D01*
X80797148Y-113524906D01*
X80805818Y-113563062D01*
X80753004Y-113606703D01*
X80631032Y-113660153D01*
X80443448Y-113724165D01*
X80248898Y-113786891D01*
X80045958Y-113853353D01*
X79902446Y-113901150D01*
X79759506Y-113945366D01*
X79641810Y-113974731D01*
X79590328Y-113981998D01*
X79526930Y-114003991D01*
X79527594Y-114045586D01*
X79591134Y-114070207D01*
X79593194Y-114070280D01*
X79679716Y-114085389D01*
X79818478Y-114123376D01*
X79991997Y-114177970D01*
X80182789Y-114242899D01*
X80373370Y-114311893D01*
X80546257Y-114378680D01*
X80683967Y-114436989D01*
X80769016Y-114480549D01*
X80787855Y-114498798D01*
X80749007Y-114534578D01*
X80643212Y-114585824D01*
X80486594Y-114645360D01*
X80378872Y-114680845D01*
X80082448Y-114774268D01*
X79860229Y-114846146D01*
X79703926Y-114899595D01*
X79605248Y-114937730D01*
X79555906Y-114963667D01*
X79547610Y-114980523D01*
X79560906Y-114988293D01*
X79740959Y-115047161D01*
X79975958Y-115120556D01*
X80237936Y-115199800D01*
X80335821Y-115228781D01*
X80559490Y-115297492D01*
X80707731Y-115353880D01*
X80779297Y-115403675D01*
X80772937Y-115452606D01*
X80687404Y-115506405D01*
X80521448Y-115570802D01*
X80273821Y-115651527D01*
X80241477Y-115661670D01*
X80026038Y-115729477D01*
X79834771Y-115790393D01*
X79685450Y-115838706D01*
X79595849Y-115868704D01*
X79584329Y-115872873D01*
X79570741Y-115893673D01*
X79617662Y-115926469D01*
X79731607Y-115974225D01*
X79919092Y-116039902D01*
X80036362Y-116078419D01*
X80248657Y-116146398D01*
X80440917Y-116206567D01*
X80593231Y-116252787D01*
X80685688Y-116278922D01*
X80690991Y-116280222D01*
X80789307Y-116319512D01*
X80803427Y-116369575D01*
X80734414Y-116429160D01*
X80583330Y-116497012D01*
X80475736Y-116534165D01*
X80271315Y-116598764D01*
X80055238Y-116665080D01*
X79874059Y-116718826D01*
X79873025Y-116719124D01*
X79735651Y-116762637D01*
X79638687Y-116800908D01*
X79603957Y-116824651D01*
X79642212Y-116848453D01*
X79741056Y-116880762D01*
X79840736Y-116905692D01*
X80077516Y-116958681D01*
X80077516Y-117924238D01*
X80076841Y-118240811D01*
X80074371Y-118481246D01*
X80069440Y-118655497D01*
X80061383Y-118773521D01*
X80049534Y-118845271D01*
X80033226Y-118880704D01*
X80012940Y-118889794D01*
X79991113Y-118879464D01*
X79974716Y-118841620D01*
X79963013Y-118765982D01*
X79955268Y-118642270D01*
X79950745Y-118460204D01*
X79948706Y-118209504D01*
X79948364Y-117988267D01*
X79946351Y-117676913D01*
X79940559Y-117420401D01*
X79931354Y-117226718D01*
X79919106Y-117103853D01*
X79905638Y-117060334D01*
X79842932Y-117039936D01*
X79723049Y-117013555D01*
X79597721Y-116991221D01*
X79389398Y-116949195D01*
X79251979Y-116902616D01*
X79191311Y-116853893D01*
X79194060Y-116824833D01*
X79244340Y-116793670D01*
X79353088Y-116748824D01*
X79485859Y-116703543D01*
X79655853Y-116650457D01*
X79868901Y-116584018D01*
X80085840Y-116516437D01*
X80140982Y-116499273D01*
X80322626Y-116441920D01*
X80425549Y-116401195D01*
X80449013Y-116367991D01*
X80392276Y-116333201D01*
X80254601Y-116287720D01*
X80120567Y-116247875D01*
X79886243Y-116176634D01*
X79663679Y-116105754D01*
X79469723Y-116040901D01*
X79321226Y-115987742D01*
X79235039Y-115951944D01*
X79226560Y-115947241D01*
X79190000Y-115910000D01*
X79209907Y-115871851D01*
X79294458Y-115827352D01*
X79451833Y-115771061D01*
X79527625Y-115746945D01*
X79840463Y-115649291D01*
X80079674Y-115574035D01*
X80253800Y-115517850D01*
X80371381Y-115477409D01*
X80440961Y-115449386D01*
X80471080Y-115430453D01*
X80470281Y-115417284D01*
X80447104Y-115406553D01*
X80421923Y-115398643D01*
X80053452Y-115284304D01*
X79760552Y-115191723D01*
X79536173Y-115118431D01*
X79373263Y-115061956D01*
X79264771Y-115019831D01*
X79203646Y-114989583D01*
X79182837Y-114968745D01*
X79183108Y-114964713D01*
%TO.C,R3*%
G36*
X89183108Y-114964713D02*
G01*
X89226726Y-114937408D01*
X89335245Y-114891317D01*
X89491093Y-114832384D01*
X89676697Y-114766556D01*
X89874484Y-114699776D01*
X90066883Y-114637991D01*
X90236320Y-114587145D01*
X90365223Y-114553182D01*
X90432686Y-114541961D01*
X90496583Y-114521391D01*
X90508025Y-114498608D01*
X90473348Y-114459975D01*
X90446107Y-114455557D01*
X90369716Y-114441238D01*
X90215058Y-114398845D01*
X89984963Y-114329227D01*
X89682263Y-114233231D01*
X89432898Y-114152172D01*
X89302814Y-114103519D01*
X89211406Y-114057978D01*
X89183244Y-114032910D01*
X89217088Y-114007674D01*
X89316573Y-113963115D01*
X89464974Y-113904999D01*
X89645565Y-113839092D01*
X89841623Y-113771161D01*
X90036423Y-113706972D01*
X90213240Y-113652291D01*
X90355349Y-113612886D01*
X90446026Y-113594522D01*
X90456573Y-113593881D01*
X90499059Y-113582118D01*
X90468329Y-113551770D01*
X90373926Y-113508019D01*
X90225391Y-113456047D01*
X90173595Y-113440190D01*
X89946793Y-113372720D01*
X89958341Y-112385785D01*
X89964932Y-112020782D01*
X89974715Y-111738924D01*
X89986967Y-111540553D01*
X90000969Y-111426007D01*
X90015999Y-111395625D01*
X90031338Y-111449749D01*
X90046264Y-111588716D01*
X90060057Y-111812868D01*
X90071997Y-112122544D01*
X90077516Y-112329606D01*
X90099042Y-113260469D01*
X90434086Y-113378679D01*
X90592297Y-113436569D01*
X90717790Y-113486352D01*
X90789358Y-113519484D01*
X90797148Y-113524906D01*
X90805818Y-113563062D01*
X90753004Y-113606703D01*
X90631032Y-113660153D01*
X90443448Y-113724165D01*
X90248898Y-113786891D01*
X90045958Y-113853353D01*
X89902446Y-113901150D01*
X89759506Y-113945366D01*
X89641810Y-113974731D01*
X89590328Y-113981998D01*
X89526930Y-114003991D01*
X89527594Y-114045586D01*
X89591134Y-114070207D01*
X89593194Y-114070280D01*
X89679716Y-114085389D01*
X89818478Y-114123376D01*
X89991997Y-114177970D01*
X90182789Y-114242899D01*
X90373370Y-114311893D01*
X90546257Y-114378680D01*
X90683967Y-114436989D01*
X90769016Y-114480549D01*
X90787855Y-114498798D01*
X90749007Y-114534578D01*
X90643212Y-114585824D01*
X90486594Y-114645360D01*
X90378872Y-114680845D01*
X90082448Y-114774268D01*
X89860229Y-114846146D01*
X89703926Y-114899595D01*
X89605248Y-114937730D01*
X89555906Y-114963667D01*
X89547610Y-114980523D01*
X89560906Y-114988293D01*
X89740959Y-115047161D01*
X89975958Y-115120556D01*
X90237936Y-115199800D01*
X90335821Y-115228781D01*
X90559490Y-115297492D01*
X90707731Y-115353880D01*
X90779297Y-115403675D01*
X90772937Y-115452606D01*
X90687404Y-115506405D01*
X90521448Y-115570802D01*
X90273821Y-115651527D01*
X90241477Y-115661670D01*
X90026038Y-115729477D01*
X89834771Y-115790393D01*
X89685450Y-115838706D01*
X89595849Y-115868704D01*
X89584329Y-115872873D01*
X89570741Y-115893673D01*
X89617662Y-115926469D01*
X89731607Y-115974225D01*
X89919092Y-116039902D01*
X90036362Y-116078419D01*
X90248657Y-116146398D01*
X90440917Y-116206567D01*
X90593231Y-116252787D01*
X90685688Y-116278922D01*
X90690991Y-116280222D01*
X90789307Y-116319512D01*
X90803427Y-116369575D01*
X90734414Y-116429160D01*
X90583330Y-116497012D01*
X90475736Y-116534165D01*
X90271315Y-116598764D01*
X90055238Y-116665080D01*
X89874059Y-116718826D01*
X89873025Y-116719124D01*
X89735651Y-116762637D01*
X89638687Y-116800908D01*
X89603957Y-116824651D01*
X89642212Y-116848453D01*
X89741056Y-116880762D01*
X89840736Y-116905692D01*
X90077516Y-116958681D01*
X90077516Y-117924238D01*
X90076841Y-118240811D01*
X90074371Y-118481246D01*
X90069440Y-118655497D01*
X90061383Y-118773521D01*
X90049534Y-118845271D01*
X90033226Y-118880704D01*
X90012940Y-118889794D01*
X89991113Y-118879464D01*
X89974716Y-118841620D01*
X89963013Y-118765982D01*
X89955268Y-118642270D01*
X89950745Y-118460204D01*
X89948706Y-118209504D01*
X89948364Y-117988267D01*
X89946351Y-117676913D01*
X89940559Y-117420401D01*
X89931354Y-117226718D01*
X89919106Y-117103853D01*
X89905638Y-117060334D01*
X89842932Y-117039936D01*
X89723049Y-117013555D01*
X89597721Y-116991221D01*
X89389398Y-116949195D01*
X89251979Y-116902616D01*
X89191311Y-116853893D01*
X89194060Y-116824833D01*
X89244340Y-116793670D01*
X89353088Y-116748824D01*
X89485859Y-116703543D01*
X89655853Y-116650457D01*
X89868901Y-116584018D01*
X90085840Y-116516437D01*
X90140982Y-116499273D01*
X90322626Y-116441920D01*
X90425549Y-116401195D01*
X90449013Y-116367991D01*
X90392276Y-116333201D01*
X90254601Y-116287720D01*
X90120567Y-116247875D01*
X89886243Y-116176634D01*
X89663679Y-116105754D01*
X89469723Y-116040901D01*
X89321226Y-115987742D01*
X89235039Y-115951944D01*
X89226560Y-115947241D01*
X89190000Y-115910000D01*
X89209907Y-115871851D01*
X89294458Y-115827352D01*
X89451833Y-115771061D01*
X89527625Y-115746945D01*
X89840463Y-115649291D01*
X90079674Y-115574035D01*
X90253800Y-115517850D01*
X90371381Y-115477409D01*
X90440961Y-115449386D01*
X90471080Y-115430453D01*
X90470281Y-115417284D01*
X90447104Y-115406553D01*
X90421923Y-115398643D01*
X90053452Y-115284304D01*
X89760552Y-115191723D01*
X89536173Y-115118431D01*
X89373263Y-115061956D01*
X89264771Y-115019831D01*
X89203646Y-114989583D01*
X89182837Y-114968745D01*
X89183108Y-114964713D01*
G37*
X89183108Y-114964713D02*
X89226726Y-114937408D01*
X89335245Y-114891317D01*
X89491093Y-114832384D01*
X89676697Y-114766556D01*
X89874484Y-114699776D01*
X90066883Y-114637991D01*
X90236320Y-114587145D01*
X90365223Y-114553182D01*
X90432686Y-114541961D01*
X90496583Y-114521391D01*
X90508025Y-114498608D01*
X90473348Y-114459975D01*
X90446107Y-114455557D01*
X90369716Y-114441238D01*
X90215058Y-114398845D01*
X89984963Y-114329227D01*
X89682263Y-114233231D01*
X89432898Y-114152172D01*
X89302814Y-114103519D01*
X89211406Y-114057978D01*
X89183244Y-114032910D01*
X89217088Y-114007674D01*
X89316573Y-113963115D01*
X89464974Y-113904999D01*
X89645565Y-113839092D01*
X89841623Y-113771161D01*
X90036423Y-113706972D01*
X90213240Y-113652291D01*
X90355349Y-113612886D01*
X90446026Y-113594522D01*
X90456573Y-113593881D01*
X90499059Y-113582118D01*
X90468329Y-113551770D01*
X90373926Y-113508019D01*
X90225391Y-113456047D01*
X90173595Y-113440190D01*
X89946793Y-113372720D01*
X89958341Y-112385785D01*
X89964932Y-112020782D01*
X89974715Y-111738924D01*
X89986967Y-111540553D01*
X90000969Y-111426007D01*
X90015999Y-111395625D01*
X90031338Y-111449749D01*
X90046264Y-111588716D01*
X90060057Y-111812868D01*
X90071997Y-112122544D01*
X90077516Y-112329606D01*
X90099042Y-113260469D01*
X90434086Y-113378679D01*
X90592297Y-113436569D01*
X90717790Y-113486352D01*
X90789358Y-113519484D01*
X90797148Y-113524906D01*
X90805818Y-113563062D01*
X90753004Y-113606703D01*
X90631032Y-113660153D01*
X90443448Y-113724165D01*
X90248898Y-113786891D01*
X90045958Y-113853353D01*
X89902446Y-113901150D01*
X89759506Y-113945366D01*
X89641810Y-113974731D01*
X89590328Y-113981998D01*
X89526930Y-114003991D01*
X89527594Y-114045586D01*
X89591134Y-114070207D01*
X89593194Y-114070280D01*
X89679716Y-114085389D01*
X89818478Y-114123376D01*
X89991997Y-114177970D01*
X90182789Y-114242899D01*
X90373370Y-114311893D01*
X90546257Y-114378680D01*
X90683967Y-114436989D01*
X90769016Y-114480549D01*
X90787855Y-114498798D01*
X90749007Y-114534578D01*
X90643212Y-114585824D01*
X90486594Y-114645360D01*
X90378872Y-114680845D01*
X90082448Y-114774268D01*
X89860229Y-114846146D01*
X89703926Y-114899595D01*
X89605248Y-114937730D01*
X89555906Y-114963667D01*
X89547610Y-114980523D01*
X89560906Y-114988293D01*
X89740959Y-115047161D01*
X89975958Y-115120556D01*
X90237936Y-115199800D01*
X90335821Y-115228781D01*
X90559490Y-115297492D01*
X90707731Y-115353880D01*
X90779297Y-115403675D01*
X90772937Y-115452606D01*
X90687404Y-115506405D01*
X90521448Y-115570802D01*
X90273821Y-115651527D01*
X90241477Y-115661670D01*
X90026038Y-115729477D01*
X89834771Y-115790393D01*
X89685450Y-115838706D01*
X89595849Y-115868704D01*
X89584329Y-115872873D01*
X89570741Y-115893673D01*
X89617662Y-115926469D01*
X89731607Y-115974225D01*
X89919092Y-116039902D01*
X90036362Y-116078419D01*
X90248657Y-116146398D01*
X90440917Y-116206567D01*
X90593231Y-116252787D01*
X90685688Y-116278922D01*
X90690991Y-116280222D01*
X90789307Y-116319512D01*
X90803427Y-116369575D01*
X90734414Y-116429160D01*
X90583330Y-116497012D01*
X90475736Y-116534165D01*
X90271315Y-116598764D01*
X90055238Y-116665080D01*
X89874059Y-116718826D01*
X89873025Y-116719124D01*
X89735651Y-116762637D01*
X89638687Y-116800908D01*
X89603957Y-116824651D01*
X89642212Y-116848453D01*
X89741056Y-116880762D01*
X89840736Y-116905692D01*
X90077516Y-116958681D01*
X90077516Y-117924238D01*
X90076841Y-118240811D01*
X90074371Y-118481246D01*
X90069440Y-118655497D01*
X90061383Y-118773521D01*
X90049534Y-118845271D01*
X90033226Y-118880704D01*
X90012940Y-118889794D01*
X89991113Y-118879464D01*
X89974716Y-118841620D01*
X89963013Y-118765982D01*
X89955268Y-118642270D01*
X89950745Y-118460204D01*
X89948706Y-118209504D01*
X89948364Y-117988267D01*
X89946351Y-117676913D01*
X89940559Y-117420401D01*
X89931354Y-117226718D01*
X89919106Y-117103853D01*
X89905638Y-117060334D01*
X89842932Y-117039936D01*
X89723049Y-117013555D01*
X89597721Y-116991221D01*
X89389398Y-116949195D01*
X89251979Y-116902616D01*
X89191311Y-116853893D01*
X89194060Y-116824833D01*
X89244340Y-116793670D01*
X89353088Y-116748824D01*
X89485859Y-116703543D01*
X89655853Y-116650457D01*
X89868901Y-116584018D01*
X90085840Y-116516437D01*
X90140982Y-116499273D01*
X90322626Y-116441920D01*
X90425549Y-116401195D01*
X90449013Y-116367991D01*
X90392276Y-116333201D01*
X90254601Y-116287720D01*
X90120567Y-116247875D01*
X89886243Y-116176634D01*
X89663679Y-116105754D01*
X89469723Y-116040901D01*
X89321226Y-115987742D01*
X89235039Y-115951944D01*
X89226560Y-115947241D01*
X89190000Y-115910000D01*
X89209907Y-115871851D01*
X89294458Y-115827352D01*
X89451833Y-115771061D01*
X89527625Y-115746945D01*
X89840463Y-115649291D01*
X90079674Y-115574035D01*
X90253800Y-115517850D01*
X90371381Y-115477409D01*
X90440961Y-115449386D01*
X90471080Y-115430453D01*
X90470281Y-115417284D01*
X90447104Y-115406553D01*
X90421923Y-115398643D01*
X90053452Y-115284304D01*
X89760552Y-115191723D01*
X89536173Y-115118431D01*
X89373263Y-115061956D01*
X89264771Y-115019831D01*
X89203646Y-114989583D01*
X89182837Y-114968745D01*
X89183108Y-114964713D01*
D12*
X90000000Y-120100000D02*
X90000000Y-118100000D01*
X90000000Y-110100000D02*
X90000000Y-112100000D01*
%TO.C,R4*%
X100000000Y-110100000D02*
X100000000Y-112100000D01*
X100000000Y-120100000D02*
X100000000Y-118100000D01*
D13*
G36*
X99183108Y-114964713D02*
G01*
X99226726Y-114937408D01*
X99335245Y-114891317D01*
X99491093Y-114832384D01*
X99676697Y-114766556D01*
X99874484Y-114699776D01*
X100066883Y-114637991D01*
X100236320Y-114587145D01*
X100365223Y-114553182D01*
X100432686Y-114541961D01*
X100496583Y-114521391D01*
X100508025Y-114498608D01*
X100473348Y-114459975D01*
X100446107Y-114455557D01*
X100369716Y-114441238D01*
X100215058Y-114398845D01*
X99984963Y-114329227D01*
X99682263Y-114233231D01*
X99432898Y-114152172D01*
X99302814Y-114103519D01*
X99211406Y-114057978D01*
X99183244Y-114032910D01*
X99217088Y-114007674D01*
X99316573Y-113963115D01*
X99464974Y-113904999D01*
X99645565Y-113839092D01*
X99841623Y-113771161D01*
X100036423Y-113706972D01*
X100213240Y-113652291D01*
X100355349Y-113612886D01*
X100446026Y-113594522D01*
X100456573Y-113593881D01*
X100499059Y-113582118D01*
X100468329Y-113551770D01*
X100373926Y-113508019D01*
X100225391Y-113456047D01*
X100173595Y-113440190D01*
X99946793Y-113372720D01*
X99958341Y-112385785D01*
X99964932Y-112020782D01*
X99974715Y-111738924D01*
X99986967Y-111540553D01*
X100000969Y-111426007D01*
X100015999Y-111395625D01*
X100031338Y-111449749D01*
X100046264Y-111588716D01*
X100060057Y-111812868D01*
X100071997Y-112122544D01*
X100077516Y-112329606D01*
X100099042Y-113260469D01*
X100434086Y-113378679D01*
X100592297Y-113436569D01*
X100717790Y-113486352D01*
X100789358Y-113519484D01*
X100797148Y-113524906D01*
X100805818Y-113563062D01*
X100753004Y-113606703D01*
X100631032Y-113660153D01*
X100443448Y-113724165D01*
X100248898Y-113786891D01*
X100045958Y-113853353D01*
X99902446Y-113901150D01*
X99759506Y-113945366D01*
X99641810Y-113974731D01*
X99590328Y-113981998D01*
X99526930Y-114003991D01*
X99527594Y-114045586D01*
X99591134Y-114070207D01*
X99593194Y-114070280D01*
X99679716Y-114085389D01*
X99818478Y-114123376D01*
X99991997Y-114177970D01*
X100182789Y-114242899D01*
X100373370Y-114311893D01*
X100546257Y-114378680D01*
X100683967Y-114436989D01*
X100769016Y-114480549D01*
X100787855Y-114498798D01*
X100749007Y-114534578D01*
X100643212Y-114585824D01*
X100486594Y-114645360D01*
X100378872Y-114680845D01*
X100082448Y-114774268D01*
X99860229Y-114846146D01*
X99703926Y-114899595D01*
X99605248Y-114937730D01*
X99555906Y-114963667D01*
X99547610Y-114980523D01*
X99560906Y-114988293D01*
X99740959Y-115047161D01*
X99975958Y-115120556D01*
X100237936Y-115199800D01*
X100335821Y-115228781D01*
X100559490Y-115297492D01*
X100707731Y-115353880D01*
X100779297Y-115403675D01*
X100772937Y-115452606D01*
X100687404Y-115506405D01*
X100521448Y-115570802D01*
X100273821Y-115651527D01*
X100241477Y-115661670D01*
X100026038Y-115729477D01*
X99834771Y-115790393D01*
X99685450Y-115838706D01*
X99595849Y-115868704D01*
X99584329Y-115872873D01*
X99570741Y-115893673D01*
X99617662Y-115926469D01*
X99731607Y-115974225D01*
X99919092Y-116039902D01*
X100036362Y-116078419D01*
X100248657Y-116146398D01*
X100440917Y-116206567D01*
X100593231Y-116252787D01*
X100685688Y-116278922D01*
X100690991Y-116280222D01*
X100789307Y-116319512D01*
X100803427Y-116369575D01*
X100734414Y-116429160D01*
X100583330Y-116497012D01*
X100475736Y-116534165D01*
X100271315Y-116598764D01*
X100055238Y-116665080D01*
X99874059Y-116718826D01*
X99873025Y-116719124D01*
X99735651Y-116762637D01*
X99638687Y-116800908D01*
X99603957Y-116824651D01*
X99642212Y-116848453D01*
X99741056Y-116880762D01*
X99840736Y-116905692D01*
X100077516Y-116958681D01*
X100077516Y-117924238D01*
X100076841Y-118240811D01*
X100074371Y-118481246D01*
X100069440Y-118655497D01*
X100061383Y-118773521D01*
X100049534Y-118845271D01*
X100033226Y-118880704D01*
X100012940Y-118889794D01*
X99991113Y-118879464D01*
X99974716Y-118841620D01*
X99963013Y-118765982D01*
X99955268Y-118642270D01*
X99950745Y-118460204D01*
X99948706Y-118209504D01*
X99948364Y-117988267D01*
X99946351Y-117676913D01*
X99940559Y-117420401D01*
X99931354Y-117226718D01*
X99919106Y-117103853D01*
X99905638Y-117060334D01*
X99842932Y-117039936D01*
X99723049Y-117013555D01*
X99597721Y-116991221D01*
X99389398Y-116949195D01*
X99251979Y-116902616D01*
X99191311Y-116853893D01*
X99194060Y-116824833D01*
X99244340Y-116793670D01*
X99353088Y-116748824D01*
X99485859Y-116703543D01*
X99655853Y-116650457D01*
X99868901Y-116584018D01*
X100085840Y-116516437D01*
X100140982Y-116499273D01*
X100322626Y-116441920D01*
X100425549Y-116401195D01*
X100449013Y-116367991D01*
X100392276Y-116333201D01*
X100254601Y-116287720D01*
X100120567Y-116247875D01*
X99886243Y-116176634D01*
X99663679Y-116105754D01*
X99469723Y-116040901D01*
X99321226Y-115987742D01*
X99235039Y-115951944D01*
X99226560Y-115947241D01*
X99190000Y-115910000D01*
X99209907Y-115871851D01*
X99294458Y-115827352D01*
X99451833Y-115771061D01*
X99527625Y-115746945D01*
X99840463Y-115649291D01*
X100079674Y-115574035D01*
X100253800Y-115517850D01*
X100371381Y-115477409D01*
X100440961Y-115449386D01*
X100471080Y-115430453D01*
X100470281Y-115417284D01*
X100447104Y-115406553D01*
X100421923Y-115398643D01*
X100053452Y-115284304D01*
X99760552Y-115191723D01*
X99536173Y-115118431D01*
X99373263Y-115061956D01*
X99264771Y-115019831D01*
X99203646Y-114989583D01*
X99182837Y-114968745D01*
X99183108Y-114964713D01*
G37*
X99183108Y-114964713D02*
X99226726Y-114937408D01*
X99335245Y-114891317D01*
X99491093Y-114832384D01*
X99676697Y-114766556D01*
X99874484Y-114699776D01*
X100066883Y-114637991D01*
X100236320Y-114587145D01*
X100365223Y-114553182D01*
X100432686Y-114541961D01*
X100496583Y-114521391D01*
X100508025Y-114498608D01*
X100473348Y-114459975D01*
X100446107Y-114455557D01*
X100369716Y-114441238D01*
X100215058Y-114398845D01*
X99984963Y-114329227D01*
X99682263Y-114233231D01*
X99432898Y-114152172D01*
X99302814Y-114103519D01*
X99211406Y-114057978D01*
X99183244Y-114032910D01*
X99217088Y-114007674D01*
X99316573Y-113963115D01*
X99464974Y-113904999D01*
X99645565Y-113839092D01*
X99841623Y-113771161D01*
X100036423Y-113706972D01*
X100213240Y-113652291D01*
X100355349Y-113612886D01*
X100446026Y-113594522D01*
X100456573Y-113593881D01*
X100499059Y-113582118D01*
X100468329Y-113551770D01*
X100373926Y-113508019D01*
X100225391Y-113456047D01*
X100173595Y-113440190D01*
X99946793Y-113372720D01*
X99958341Y-112385785D01*
X99964932Y-112020782D01*
X99974715Y-111738924D01*
X99986967Y-111540553D01*
X100000969Y-111426007D01*
X100015999Y-111395625D01*
X100031338Y-111449749D01*
X100046264Y-111588716D01*
X100060057Y-111812868D01*
X100071997Y-112122544D01*
X100077516Y-112329606D01*
X100099042Y-113260469D01*
X100434086Y-113378679D01*
X100592297Y-113436569D01*
X100717790Y-113486352D01*
X100789358Y-113519484D01*
X100797148Y-113524906D01*
X100805818Y-113563062D01*
X100753004Y-113606703D01*
X100631032Y-113660153D01*
X100443448Y-113724165D01*
X100248898Y-113786891D01*
X100045958Y-113853353D01*
X99902446Y-113901150D01*
X99759506Y-113945366D01*
X99641810Y-113974731D01*
X99590328Y-113981998D01*
X99526930Y-114003991D01*
X99527594Y-114045586D01*
X99591134Y-114070207D01*
X99593194Y-114070280D01*
X99679716Y-114085389D01*
X99818478Y-114123376D01*
X99991997Y-114177970D01*
X100182789Y-114242899D01*
X100373370Y-114311893D01*
X100546257Y-114378680D01*
X100683967Y-114436989D01*
X100769016Y-114480549D01*
X100787855Y-114498798D01*
X100749007Y-114534578D01*
X100643212Y-114585824D01*
X100486594Y-114645360D01*
X100378872Y-114680845D01*
X100082448Y-114774268D01*
X99860229Y-114846146D01*
X99703926Y-114899595D01*
X99605248Y-114937730D01*
X99555906Y-114963667D01*
X99547610Y-114980523D01*
X99560906Y-114988293D01*
X99740959Y-115047161D01*
X99975958Y-115120556D01*
X100237936Y-115199800D01*
X100335821Y-115228781D01*
X100559490Y-115297492D01*
X100707731Y-115353880D01*
X100779297Y-115403675D01*
X100772937Y-115452606D01*
X100687404Y-115506405D01*
X100521448Y-115570802D01*
X100273821Y-115651527D01*
X100241477Y-115661670D01*
X100026038Y-115729477D01*
X99834771Y-115790393D01*
X99685450Y-115838706D01*
X99595849Y-115868704D01*
X99584329Y-115872873D01*
X99570741Y-115893673D01*
X99617662Y-115926469D01*
X99731607Y-115974225D01*
X99919092Y-116039902D01*
X100036362Y-116078419D01*
X100248657Y-116146398D01*
X100440917Y-116206567D01*
X100593231Y-116252787D01*
X100685688Y-116278922D01*
X100690991Y-116280222D01*
X100789307Y-116319512D01*
X100803427Y-116369575D01*
X100734414Y-116429160D01*
X100583330Y-116497012D01*
X100475736Y-116534165D01*
X100271315Y-116598764D01*
X100055238Y-116665080D01*
X99874059Y-116718826D01*
X99873025Y-116719124D01*
X99735651Y-116762637D01*
X99638687Y-116800908D01*
X99603957Y-116824651D01*
X99642212Y-116848453D01*
X99741056Y-116880762D01*
X99840736Y-116905692D01*
X100077516Y-116958681D01*
X100077516Y-117924238D01*
X100076841Y-118240811D01*
X100074371Y-118481246D01*
X100069440Y-118655497D01*
X100061383Y-118773521D01*
X100049534Y-118845271D01*
X100033226Y-118880704D01*
X100012940Y-118889794D01*
X99991113Y-118879464D01*
X99974716Y-118841620D01*
X99963013Y-118765982D01*
X99955268Y-118642270D01*
X99950745Y-118460204D01*
X99948706Y-118209504D01*
X99948364Y-117988267D01*
X99946351Y-117676913D01*
X99940559Y-117420401D01*
X99931354Y-117226718D01*
X99919106Y-117103853D01*
X99905638Y-117060334D01*
X99842932Y-117039936D01*
X99723049Y-117013555D01*
X99597721Y-116991221D01*
X99389398Y-116949195D01*
X99251979Y-116902616D01*
X99191311Y-116853893D01*
X99194060Y-116824833D01*
X99244340Y-116793670D01*
X99353088Y-116748824D01*
X99485859Y-116703543D01*
X99655853Y-116650457D01*
X99868901Y-116584018D01*
X100085840Y-116516437D01*
X100140982Y-116499273D01*
X100322626Y-116441920D01*
X100425549Y-116401195D01*
X100449013Y-116367991D01*
X100392276Y-116333201D01*
X100254601Y-116287720D01*
X100120567Y-116247875D01*
X99886243Y-116176634D01*
X99663679Y-116105754D01*
X99469723Y-116040901D01*
X99321226Y-115987742D01*
X99235039Y-115951944D01*
X99226560Y-115947241D01*
X99190000Y-115910000D01*
X99209907Y-115871851D01*
X99294458Y-115827352D01*
X99451833Y-115771061D01*
X99527625Y-115746945D01*
X99840463Y-115649291D01*
X100079674Y-115574035D01*
X100253800Y-115517850D01*
X100371381Y-115477409D01*
X100440961Y-115449386D01*
X100471080Y-115430453D01*
X100470281Y-115417284D01*
X100447104Y-115406553D01*
X100421923Y-115398643D01*
X100053452Y-115284304D01*
X99760552Y-115191723D01*
X99536173Y-115118431D01*
X99373263Y-115061956D01*
X99264771Y-115019831D01*
X99203646Y-114989583D01*
X99182837Y-114968745D01*
X99183108Y-114964713D01*
%TO.C,R5*%
G36*
X109183108Y-114964713D02*
G01*
X109226726Y-114937408D01*
X109335245Y-114891317D01*
X109491093Y-114832384D01*
X109676697Y-114766556D01*
X109874484Y-114699776D01*
X110066883Y-114637991D01*
X110236320Y-114587145D01*
X110365223Y-114553182D01*
X110432686Y-114541961D01*
X110496583Y-114521391D01*
X110508025Y-114498608D01*
X110473348Y-114459975D01*
X110446107Y-114455557D01*
X110369716Y-114441238D01*
X110215058Y-114398845D01*
X109984963Y-114329227D01*
X109682263Y-114233231D01*
X109432898Y-114152172D01*
X109302814Y-114103519D01*
X109211406Y-114057978D01*
X109183244Y-114032910D01*
X109217088Y-114007674D01*
X109316573Y-113963115D01*
X109464974Y-113904999D01*
X109645565Y-113839092D01*
X109841623Y-113771161D01*
X110036423Y-113706972D01*
X110213240Y-113652291D01*
X110355349Y-113612886D01*
X110446026Y-113594522D01*
X110456573Y-113593881D01*
X110499059Y-113582118D01*
X110468329Y-113551770D01*
X110373926Y-113508019D01*
X110225391Y-113456047D01*
X110173595Y-113440190D01*
X109946793Y-113372720D01*
X109958341Y-112385785D01*
X109964932Y-112020782D01*
X109974715Y-111738924D01*
X109986967Y-111540553D01*
X110000969Y-111426007D01*
X110015999Y-111395625D01*
X110031338Y-111449749D01*
X110046264Y-111588716D01*
X110060057Y-111812868D01*
X110071997Y-112122544D01*
X110077516Y-112329606D01*
X110099042Y-113260469D01*
X110434086Y-113378679D01*
X110592297Y-113436569D01*
X110717790Y-113486352D01*
X110789358Y-113519484D01*
X110797148Y-113524906D01*
X110805818Y-113563062D01*
X110753004Y-113606703D01*
X110631032Y-113660153D01*
X110443448Y-113724165D01*
X110248898Y-113786891D01*
X110045958Y-113853353D01*
X109902446Y-113901150D01*
X109759506Y-113945366D01*
X109641810Y-113974731D01*
X109590328Y-113981998D01*
X109526930Y-114003991D01*
X109527594Y-114045586D01*
X109591134Y-114070207D01*
X109593194Y-114070280D01*
X109679716Y-114085389D01*
X109818478Y-114123376D01*
X109991997Y-114177970D01*
X110182789Y-114242899D01*
X110373370Y-114311893D01*
X110546257Y-114378680D01*
X110683967Y-114436989D01*
X110769016Y-114480549D01*
X110787855Y-114498798D01*
X110749007Y-114534578D01*
X110643212Y-114585824D01*
X110486594Y-114645360D01*
X110378872Y-114680845D01*
X110082448Y-114774268D01*
X109860229Y-114846146D01*
X109703926Y-114899595D01*
X109605248Y-114937730D01*
X109555906Y-114963667D01*
X109547610Y-114980523D01*
X109560906Y-114988293D01*
X109740959Y-115047161D01*
X109975958Y-115120556D01*
X110237936Y-115199800D01*
X110335821Y-115228781D01*
X110559490Y-115297492D01*
X110707731Y-115353880D01*
X110779297Y-115403675D01*
X110772937Y-115452606D01*
X110687404Y-115506405D01*
X110521448Y-115570802D01*
X110273821Y-115651527D01*
X110241477Y-115661670D01*
X110026038Y-115729477D01*
X109834771Y-115790393D01*
X109685450Y-115838706D01*
X109595849Y-115868704D01*
X109584329Y-115872873D01*
X109570741Y-115893673D01*
X109617662Y-115926469D01*
X109731607Y-115974225D01*
X109919092Y-116039902D01*
X110036362Y-116078419D01*
X110248657Y-116146398D01*
X110440917Y-116206567D01*
X110593231Y-116252787D01*
X110685688Y-116278922D01*
X110690991Y-116280222D01*
X110789307Y-116319512D01*
X110803427Y-116369575D01*
X110734414Y-116429160D01*
X110583330Y-116497012D01*
X110475736Y-116534165D01*
X110271315Y-116598764D01*
X110055238Y-116665080D01*
X109874059Y-116718826D01*
X109873025Y-116719124D01*
X109735651Y-116762637D01*
X109638687Y-116800908D01*
X109603957Y-116824651D01*
X109642212Y-116848453D01*
X109741056Y-116880762D01*
X109840736Y-116905692D01*
X110077516Y-116958681D01*
X110077516Y-117924238D01*
X110076841Y-118240811D01*
X110074371Y-118481246D01*
X110069440Y-118655497D01*
X110061383Y-118773521D01*
X110049534Y-118845271D01*
X110033226Y-118880704D01*
X110012940Y-118889794D01*
X109991113Y-118879464D01*
X109974716Y-118841620D01*
X109963013Y-118765982D01*
X109955268Y-118642270D01*
X109950745Y-118460204D01*
X109948706Y-118209504D01*
X109948364Y-117988267D01*
X109946351Y-117676913D01*
X109940559Y-117420401D01*
X109931354Y-117226718D01*
X109919106Y-117103853D01*
X109905638Y-117060334D01*
X109842932Y-117039936D01*
X109723049Y-117013555D01*
X109597721Y-116991221D01*
X109389398Y-116949195D01*
X109251979Y-116902616D01*
X109191311Y-116853893D01*
X109194060Y-116824833D01*
X109244340Y-116793670D01*
X109353088Y-116748824D01*
X109485859Y-116703543D01*
X109655853Y-116650457D01*
X109868901Y-116584018D01*
X110085840Y-116516437D01*
X110140982Y-116499273D01*
X110322626Y-116441920D01*
X110425549Y-116401195D01*
X110449013Y-116367991D01*
X110392276Y-116333201D01*
X110254601Y-116287720D01*
X110120567Y-116247875D01*
X109886243Y-116176634D01*
X109663679Y-116105754D01*
X109469723Y-116040901D01*
X109321226Y-115987742D01*
X109235039Y-115951944D01*
X109226560Y-115947241D01*
X109190000Y-115910000D01*
X109209907Y-115871851D01*
X109294458Y-115827352D01*
X109451833Y-115771061D01*
X109527625Y-115746945D01*
X109840463Y-115649291D01*
X110079674Y-115574035D01*
X110253800Y-115517850D01*
X110371381Y-115477409D01*
X110440961Y-115449386D01*
X110471080Y-115430453D01*
X110470281Y-115417284D01*
X110447104Y-115406553D01*
X110421923Y-115398643D01*
X110053452Y-115284304D01*
X109760552Y-115191723D01*
X109536173Y-115118431D01*
X109373263Y-115061956D01*
X109264771Y-115019831D01*
X109203646Y-114989583D01*
X109182837Y-114968745D01*
X109183108Y-114964713D01*
G37*
X109183108Y-114964713D02*
X109226726Y-114937408D01*
X109335245Y-114891317D01*
X109491093Y-114832384D01*
X109676697Y-114766556D01*
X109874484Y-114699776D01*
X110066883Y-114637991D01*
X110236320Y-114587145D01*
X110365223Y-114553182D01*
X110432686Y-114541961D01*
X110496583Y-114521391D01*
X110508025Y-114498608D01*
X110473348Y-114459975D01*
X110446107Y-114455557D01*
X110369716Y-114441238D01*
X110215058Y-114398845D01*
X109984963Y-114329227D01*
X109682263Y-114233231D01*
X109432898Y-114152172D01*
X109302814Y-114103519D01*
X109211406Y-114057978D01*
X109183244Y-114032910D01*
X109217088Y-114007674D01*
X109316573Y-113963115D01*
X109464974Y-113904999D01*
X109645565Y-113839092D01*
X109841623Y-113771161D01*
X110036423Y-113706972D01*
X110213240Y-113652291D01*
X110355349Y-113612886D01*
X110446026Y-113594522D01*
X110456573Y-113593881D01*
X110499059Y-113582118D01*
X110468329Y-113551770D01*
X110373926Y-113508019D01*
X110225391Y-113456047D01*
X110173595Y-113440190D01*
X109946793Y-113372720D01*
X109958341Y-112385785D01*
X109964932Y-112020782D01*
X109974715Y-111738924D01*
X109986967Y-111540553D01*
X110000969Y-111426007D01*
X110015999Y-111395625D01*
X110031338Y-111449749D01*
X110046264Y-111588716D01*
X110060057Y-111812868D01*
X110071997Y-112122544D01*
X110077516Y-112329606D01*
X110099042Y-113260469D01*
X110434086Y-113378679D01*
X110592297Y-113436569D01*
X110717790Y-113486352D01*
X110789358Y-113519484D01*
X110797148Y-113524906D01*
X110805818Y-113563062D01*
X110753004Y-113606703D01*
X110631032Y-113660153D01*
X110443448Y-113724165D01*
X110248898Y-113786891D01*
X110045958Y-113853353D01*
X109902446Y-113901150D01*
X109759506Y-113945366D01*
X109641810Y-113974731D01*
X109590328Y-113981998D01*
X109526930Y-114003991D01*
X109527594Y-114045586D01*
X109591134Y-114070207D01*
X109593194Y-114070280D01*
X109679716Y-114085389D01*
X109818478Y-114123376D01*
X109991997Y-114177970D01*
X110182789Y-114242899D01*
X110373370Y-114311893D01*
X110546257Y-114378680D01*
X110683967Y-114436989D01*
X110769016Y-114480549D01*
X110787855Y-114498798D01*
X110749007Y-114534578D01*
X110643212Y-114585824D01*
X110486594Y-114645360D01*
X110378872Y-114680845D01*
X110082448Y-114774268D01*
X109860229Y-114846146D01*
X109703926Y-114899595D01*
X109605248Y-114937730D01*
X109555906Y-114963667D01*
X109547610Y-114980523D01*
X109560906Y-114988293D01*
X109740959Y-115047161D01*
X109975958Y-115120556D01*
X110237936Y-115199800D01*
X110335821Y-115228781D01*
X110559490Y-115297492D01*
X110707731Y-115353880D01*
X110779297Y-115403675D01*
X110772937Y-115452606D01*
X110687404Y-115506405D01*
X110521448Y-115570802D01*
X110273821Y-115651527D01*
X110241477Y-115661670D01*
X110026038Y-115729477D01*
X109834771Y-115790393D01*
X109685450Y-115838706D01*
X109595849Y-115868704D01*
X109584329Y-115872873D01*
X109570741Y-115893673D01*
X109617662Y-115926469D01*
X109731607Y-115974225D01*
X109919092Y-116039902D01*
X110036362Y-116078419D01*
X110248657Y-116146398D01*
X110440917Y-116206567D01*
X110593231Y-116252787D01*
X110685688Y-116278922D01*
X110690991Y-116280222D01*
X110789307Y-116319512D01*
X110803427Y-116369575D01*
X110734414Y-116429160D01*
X110583330Y-116497012D01*
X110475736Y-116534165D01*
X110271315Y-116598764D01*
X110055238Y-116665080D01*
X109874059Y-116718826D01*
X109873025Y-116719124D01*
X109735651Y-116762637D01*
X109638687Y-116800908D01*
X109603957Y-116824651D01*
X109642212Y-116848453D01*
X109741056Y-116880762D01*
X109840736Y-116905692D01*
X110077516Y-116958681D01*
X110077516Y-117924238D01*
X110076841Y-118240811D01*
X110074371Y-118481246D01*
X110069440Y-118655497D01*
X110061383Y-118773521D01*
X110049534Y-118845271D01*
X110033226Y-118880704D01*
X110012940Y-118889794D01*
X109991113Y-118879464D01*
X109974716Y-118841620D01*
X109963013Y-118765982D01*
X109955268Y-118642270D01*
X109950745Y-118460204D01*
X109948706Y-118209504D01*
X109948364Y-117988267D01*
X109946351Y-117676913D01*
X109940559Y-117420401D01*
X109931354Y-117226718D01*
X109919106Y-117103853D01*
X109905638Y-117060334D01*
X109842932Y-117039936D01*
X109723049Y-117013555D01*
X109597721Y-116991221D01*
X109389398Y-116949195D01*
X109251979Y-116902616D01*
X109191311Y-116853893D01*
X109194060Y-116824833D01*
X109244340Y-116793670D01*
X109353088Y-116748824D01*
X109485859Y-116703543D01*
X109655853Y-116650457D01*
X109868901Y-116584018D01*
X110085840Y-116516437D01*
X110140982Y-116499273D01*
X110322626Y-116441920D01*
X110425549Y-116401195D01*
X110449013Y-116367991D01*
X110392276Y-116333201D01*
X110254601Y-116287720D01*
X110120567Y-116247875D01*
X109886243Y-116176634D01*
X109663679Y-116105754D01*
X109469723Y-116040901D01*
X109321226Y-115987742D01*
X109235039Y-115951944D01*
X109226560Y-115947241D01*
X109190000Y-115910000D01*
X109209907Y-115871851D01*
X109294458Y-115827352D01*
X109451833Y-115771061D01*
X109527625Y-115746945D01*
X109840463Y-115649291D01*
X110079674Y-115574035D01*
X110253800Y-115517850D01*
X110371381Y-115477409D01*
X110440961Y-115449386D01*
X110471080Y-115430453D01*
X110470281Y-115417284D01*
X110447104Y-115406553D01*
X110421923Y-115398643D01*
X110053452Y-115284304D01*
X109760552Y-115191723D01*
X109536173Y-115118431D01*
X109373263Y-115061956D01*
X109264771Y-115019831D01*
X109203646Y-114989583D01*
X109182837Y-114968745D01*
X109183108Y-114964713D01*
D12*
X110000000Y-120100000D02*
X110000000Y-118100000D01*
X110000000Y-110100000D02*
X110000000Y-112100000D01*
%TO.C,R6*%
X120000000Y-110100000D02*
X120000000Y-112100000D01*
X120000000Y-120100000D02*
X120000000Y-118100000D01*
D13*
G36*
X119183108Y-114964713D02*
G01*
X119226726Y-114937408D01*
X119335245Y-114891317D01*
X119491093Y-114832384D01*
X119676697Y-114766556D01*
X119874484Y-114699776D01*
X120066883Y-114637991D01*
X120236320Y-114587145D01*
X120365223Y-114553182D01*
X120432686Y-114541961D01*
X120496583Y-114521391D01*
X120508025Y-114498608D01*
X120473348Y-114459975D01*
X120446107Y-114455557D01*
X120369716Y-114441238D01*
X120215058Y-114398845D01*
X119984963Y-114329227D01*
X119682263Y-114233231D01*
X119432898Y-114152172D01*
X119302814Y-114103519D01*
X119211406Y-114057978D01*
X119183244Y-114032910D01*
X119217088Y-114007674D01*
X119316573Y-113963115D01*
X119464974Y-113904999D01*
X119645565Y-113839092D01*
X119841623Y-113771161D01*
X120036423Y-113706972D01*
X120213240Y-113652291D01*
X120355349Y-113612886D01*
X120446026Y-113594522D01*
X120456573Y-113593881D01*
X120499059Y-113582118D01*
X120468329Y-113551770D01*
X120373926Y-113508019D01*
X120225391Y-113456047D01*
X120173595Y-113440190D01*
X119946793Y-113372720D01*
X119958341Y-112385785D01*
X119964932Y-112020782D01*
X119974715Y-111738924D01*
X119986967Y-111540553D01*
X120000969Y-111426007D01*
X120015999Y-111395625D01*
X120031338Y-111449749D01*
X120046264Y-111588716D01*
X120060057Y-111812868D01*
X120071997Y-112122544D01*
X120077516Y-112329606D01*
X120099042Y-113260469D01*
X120434086Y-113378679D01*
X120592297Y-113436569D01*
X120717790Y-113486352D01*
X120789358Y-113519484D01*
X120797148Y-113524906D01*
X120805818Y-113563062D01*
X120753004Y-113606703D01*
X120631032Y-113660153D01*
X120443448Y-113724165D01*
X120248898Y-113786891D01*
X120045958Y-113853353D01*
X119902446Y-113901150D01*
X119759506Y-113945366D01*
X119641810Y-113974731D01*
X119590328Y-113981998D01*
X119526930Y-114003991D01*
X119527594Y-114045586D01*
X119591134Y-114070207D01*
X119593194Y-114070280D01*
X119679716Y-114085389D01*
X119818478Y-114123376D01*
X119991997Y-114177970D01*
X120182789Y-114242899D01*
X120373370Y-114311893D01*
X120546257Y-114378680D01*
X120683967Y-114436989D01*
X120769016Y-114480549D01*
X120787855Y-114498798D01*
X120749007Y-114534578D01*
X120643212Y-114585824D01*
X120486594Y-114645360D01*
X120378872Y-114680845D01*
X120082448Y-114774268D01*
X119860229Y-114846146D01*
X119703926Y-114899595D01*
X119605248Y-114937730D01*
X119555906Y-114963667D01*
X119547610Y-114980523D01*
X119560906Y-114988293D01*
X119740959Y-115047161D01*
X119975958Y-115120556D01*
X120237936Y-115199800D01*
X120335821Y-115228781D01*
X120559490Y-115297492D01*
X120707731Y-115353880D01*
X120779297Y-115403675D01*
X120772937Y-115452606D01*
X120687404Y-115506405D01*
X120521448Y-115570802D01*
X120273821Y-115651527D01*
X120241477Y-115661670D01*
X120026038Y-115729477D01*
X119834771Y-115790393D01*
X119685450Y-115838706D01*
X119595849Y-115868704D01*
X119584329Y-115872873D01*
X119570741Y-115893673D01*
X119617662Y-115926469D01*
X119731607Y-115974225D01*
X119919092Y-116039902D01*
X120036362Y-116078419D01*
X120248657Y-116146398D01*
X120440917Y-116206567D01*
X120593231Y-116252787D01*
X120685688Y-116278922D01*
X120690991Y-116280222D01*
X120789307Y-116319512D01*
X120803427Y-116369575D01*
X120734414Y-116429160D01*
X120583330Y-116497012D01*
X120475736Y-116534165D01*
X120271315Y-116598764D01*
X120055238Y-116665080D01*
X119874059Y-116718826D01*
X119873025Y-116719124D01*
X119735651Y-116762637D01*
X119638687Y-116800908D01*
X119603957Y-116824651D01*
X119642212Y-116848453D01*
X119741056Y-116880762D01*
X119840736Y-116905692D01*
X120077516Y-116958681D01*
X120077516Y-117924238D01*
X120076841Y-118240811D01*
X120074371Y-118481246D01*
X120069440Y-118655497D01*
X120061383Y-118773521D01*
X120049534Y-118845271D01*
X120033226Y-118880704D01*
X120012940Y-118889794D01*
X119991113Y-118879464D01*
X119974716Y-118841620D01*
X119963013Y-118765982D01*
X119955268Y-118642270D01*
X119950745Y-118460204D01*
X119948706Y-118209504D01*
X119948364Y-117988267D01*
X119946351Y-117676913D01*
X119940559Y-117420401D01*
X119931354Y-117226718D01*
X119919106Y-117103853D01*
X119905638Y-117060334D01*
X119842932Y-117039936D01*
X119723049Y-117013555D01*
X119597721Y-116991221D01*
X119389398Y-116949195D01*
X119251979Y-116902616D01*
X119191311Y-116853893D01*
X119194060Y-116824833D01*
X119244340Y-116793670D01*
X119353088Y-116748824D01*
X119485859Y-116703543D01*
X119655853Y-116650457D01*
X119868901Y-116584018D01*
X120085840Y-116516437D01*
X120140982Y-116499273D01*
X120322626Y-116441920D01*
X120425549Y-116401195D01*
X120449013Y-116367991D01*
X120392276Y-116333201D01*
X120254601Y-116287720D01*
X120120567Y-116247875D01*
X119886243Y-116176634D01*
X119663679Y-116105754D01*
X119469723Y-116040901D01*
X119321226Y-115987742D01*
X119235039Y-115951944D01*
X119226560Y-115947241D01*
X119190000Y-115910000D01*
X119209907Y-115871851D01*
X119294458Y-115827352D01*
X119451833Y-115771061D01*
X119527625Y-115746945D01*
X119840463Y-115649291D01*
X120079674Y-115574035D01*
X120253800Y-115517850D01*
X120371381Y-115477409D01*
X120440961Y-115449386D01*
X120471080Y-115430453D01*
X120470281Y-115417284D01*
X120447104Y-115406553D01*
X120421923Y-115398643D01*
X120053452Y-115284304D01*
X119760552Y-115191723D01*
X119536173Y-115118431D01*
X119373263Y-115061956D01*
X119264771Y-115019831D01*
X119203646Y-114989583D01*
X119182837Y-114968745D01*
X119183108Y-114964713D01*
G37*
X119183108Y-114964713D02*
X119226726Y-114937408D01*
X119335245Y-114891317D01*
X119491093Y-114832384D01*
X119676697Y-114766556D01*
X119874484Y-114699776D01*
X120066883Y-114637991D01*
X120236320Y-114587145D01*
X120365223Y-114553182D01*
X120432686Y-114541961D01*
X120496583Y-114521391D01*
X120508025Y-114498608D01*
X120473348Y-114459975D01*
X120446107Y-114455557D01*
X120369716Y-114441238D01*
X120215058Y-114398845D01*
X119984963Y-114329227D01*
X119682263Y-114233231D01*
X119432898Y-114152172D01*
X119302814Y-114103519D01*
X119211406Y-114057978D01*
X119183244Y-114032910D01*
X119217088Y-114007674D01*
X119316573Y-113963115D01*
X119464974Y-113904999D01*
X119645565Y-113839092D01*
X119841623Y-113771161D01*
X120036423Y-113706972D01*
X120213240Y-113652291D01*
X120355349Y-113612886D01*
X120446026Y-113594522D01*
X120456573Y-113593881D01*
X120499059Y-113582118D01*
X120468329Y-113551770D01*
X120373926Y-113508019D01*
X120225391Y-113456047D01*
X120173595Y-113440190D01*
X119946793Y-113372720D01*
X119958341Y-112385785D01*
X119964932Y-112020782D01*
X119974715Y-111738924D01*
X119986967Y-111540553D01*
X120000969Y-111426007D01*
X120015999Y-111395625D01*
X120031338Y-111449749D01*
X120046264Y-111588716D01*
X120060057Y-111812868D01*
X120071997Y-112122544D01*
X120077516Y-112329606D01*
X120099042Y-113260469D01*
X120434086Y-113378679D01*
X120592297Y-113436569D01*
X120717790Y-113486352D01*
X120789358Y-113519484D01*
X120797148Y-113524906D01*
X120805818Y-113563062D01*
X120753004Y-113606703D01*
X120631032Y-113660153D01*
X120443448Y-113724165D01*
X120248898Y-113786891D01*
X120045958Y-113853353D01*
X119902446Y-113901150D01*
X119759506Y-113945366D01*
X119641810Y-113974731D01*
X119590328Y-113981998D01*
X119526930Y-114003991D01*
X119527594Y-114045586D01*
X119591134Y-114070207D01*
X119593194Y-114070280D01*
X119679716Y-114085389D01*
X119818478Y-114123376D01*
X119991997Y-114177970D01*
X120182789Y-114242899D01*
X120373370Y-114311893D01*
X120546257Y-114378680D01*
X120683967Y-114436989D01*
X120769016Y-114480549D01*
X120787855Y-114498798D01*
X120749007Y-114534578D01*
X120643212Y-114585824D01*
X120486594Y-114645360D01*
X120378872Y-114680845D01*
X120082448Y-114774268D01*
X119860229Y-114846146D01*
X119703926Y-114899595D01*
X119605248Y-114937730D01*
X119555906Y-114963667D01*
X119547610Y-114980523D01*
X119560906Y-114988293D01*
X119740959Y-115047161D01*
X119975958Y-115120556D01*
X120237936Y-115199800D01*
X120335821Y-115228781D01*
X120559490Y-115297492D01*
X120707731Y-115353880D01*
X120779297Y-115403675D01*
X120772937Y-115452606D01*
X120687404Y-115506405D01*
X120521448Y-115570802D01*
X120273821Y-115651527D01*
X120241477Y-115661670D01*
X120026038Y-115729477D01*
X119834771Y-115790393D01*
X119685450Y-115838706D01*
X119595849Y-115868704D01*
X119584329Y-115872873D01*
X119570741Y-115893673D01*
X119617662Y-115926469D01*
X119731607Y-115974225D01*
X119919092Y-116039902D01*
X120036362Y-116078419D01*
X120248657Y-116146398D01*
X120440917Y-116206567D01*
X120593231Y-116252787D01*
X120685688Y-116278922D01*
X120690991Y-116280222D01*
X120789307Y-116319512D01*
X120803427Y-116369575D01*
X120734414Y-116429160D01*
X120583330Y-116497012D01*
X120475736Y-116534165D01*
X120271315Y-116598764D01*
X120055238Y-116665080D01*
X119874059Y-116718826D01*
X119873025Y-116719124D01*
X119735651Y-116762637D01*
X119638687Y-116800908D01*
X119603957Y-116824651D01*
X119642212Y-116848453D01*
X119741056Y-116880762D01*
X119840736Y-116905692D01*
X120077516Y-116958681D01*
X120077516Y-117924238D01*
X120076841Y-118240811D01*
X120074371Y-118481246D01*
X120069440Y-118655497D01*
X120061383Y-118773521D01*
X120049534Y-118845271D01*
X120033226Y-118880704D01*
X120012940Y-118889794D01*
X119991113Y-118879464D01*
X119974716Y-118841620D01*
X119963013Y-118765982D01*
X119955268Y-118642270D01*
X119950745Y-118460204D01*
X119948706Y-118209504D01*
X119948364Y-117988267D01*
X119946351Y-117676913D01*
X119940559Y-117420401D01*
X119931354Y-117226718D01*
X119919106Y-117103853D01*
X119905638Y-117060334D01*
X119842932Y-117039936D01*
X119723049Y-117013555D01*
X119597721Y-116991221D01*
X119389398Y-116949195D01*
X119251979Y-116902616D01*
X119191311Y-116853893D01*
X119194060Y-116824833D01*
X119244340Y-116793670D01*
X119353088Y-116748824D01*
X119485859Y-116703543D01*
X119655853Y-116650457D01*
X119868901Y-116584018D01*
X120085840Y-116516437D01*
X120140982Y-116499273D01*
X120322626Y-116441920D01*
X120425549Y-116401195D01*
X120449013Y-116367991D01*
X120392276Y-116333201D01*
X120254601Y-116287720D01*
X120120567Y-116247875D01*
X119886243Y-116176634D01*
X119663679Y-116105754D01*
X119469723Y-116040901D01*
X119321226Y-115987742D01*
X119235039Y-115951944D01*
X119226560Y-115947241D01*
X119190000Y-115910000D01*
X119209907Y-115871851D01*
X119294458Y-115827352D01*
X119451833Y-115771061D01*
X119527625Y-115746945D01*
X119840463Y-115649291D01*
X120079674Y-115574035D01*
X120253800Y-115517850D01*
X120371381Y-115477409D01*
X120440961Y-115449386D01*
X120471080Y-115430453D01*
X120470281Y-115417284D01*
X120447104Y-115406553D01*
X120421923Y-115398643D01*
X120053452Y-115284304D01*
X119760552Y-115191723D01*
X119536173Y-115118431D01*
X119373263Y-115061956D01*
X119264771Y-115019831D01*
X119203646Y-114989583D01*
X119182837Y-114968745D01*
X119183108Y-114964713D01*
D12*
%TO.C,U1*%
X148310000Y-80790000D02*
X156940000Y-80790000D01*
X148310000Y-80908095D02*
X156940000Y-80908095D01*
X148310000Y-81026190D02*
X156940000Y-81026190D01*
X148310000Y-81144285D02*
X156940000Y-81144285D01*
X148310000Y-81262380D02*
X156940000Y-81262380D01*
X148310000Y-81380475D02*
X156940000Y-81380475D01*
X148310000Y-81498570D02*
X156940000Y-81498570D01*
X148310000Y-81616665D02*
X156940000Y-81616665D01*
X148310000Y-81734760D02*
X156940000Y-81734760D01*
X148310000Y-81852855D02*
X156940000Y-81852855D01*
X148310000Y-81970950D02*
X156940000Y-81970950D01*
X148310000Y-82089045D02*
X156940000Y-82089045D01*
X148310000Y-82207140D02*
X156940000Y-82207140D01*
X148310000Y-82325235D02*
X156940000Y-82325235D01*
X148310000Y-82443330D02*
X156940000Y-82443330D01*
X148310000Y-82561425D02*
X156940000Y-82561425D01*
X148310000Y-82679520D02*
X156940000Y-82679520D01*
X148310000Y-82797615D02*
X156940000Y-82797615D01*
X148310000Y-82915710D02*
X156940000Y-82915710D01*
X148310000Y-83033805D02*
X156940000Y-83033805D01*
X148310000Y-83151900D02*
X156940000Y-83151900D01*
X156940000Y-81640000D02*
X157290000Y-81640000D01*
X156940000Y-82360000D02*
X157290000Y-82360000D01*
X156940000Y-84180000D02*
X157350000Y-84180000D01*
X156940000Y-84900000D02*
X157350000Y-84900000D01*
X156940000Y-86720000D02*
X157350000Y-86720000D01*
X156940000Y-87440000D02*
X157350000Y-87440000D01*
X156940000Y-89260000D02*
X157350000Y-89260000D01*
X156940000Y-89980000D02*
X157350000Y-89980000D01*
X148310000Y-83270000D02*
X156940000Y-83270000D01*
X148310000Y-85810000D02*
X156940000Y-85810000D01*
X148310000Y-88350000D02*
X156940000Y-88350000D01*
X148310000Y-80670000D02*
X156940000Y-80670000D01*
X156940000Y-80670000D02*
X156940000Y-90950000D01*
X148310000Y-90950000D02*
X156940000Y-90950000D01*
X148310000Y-80670000D02*
X148310000Y-90950000D01*
X159510000Y-80670000D02*
X159510000Y-82000000D01*
X158400000Y-80670000D02*
X159510000Y-80670000D01*
%TO.C,A1*%
D14*
X57635714Y-107436666D02*
X58111904Y-107436666D01*
X57540476Y-107722380D02*
X57873809Y-106722380D01*
X58207142Y-107722380D01*
X59064285Y-107722380D02*
X58492857Y-107722380D01*
X58778571Y-107722380D02*
X58778571Y-106722380D01*
X58683333Y-106865238D01*
X58588095Y-106960476D01*
X58492857Y-107008095D01*
X57088095Y-63542380D02*
X57088095Y-64351904D01*
X57135714Y-64447142D01*
X57183333Y-64494761D01*
X57278571Y-64542380D01*
X57469047Y-64542380D01*
X57564285Y-64494761D01*
X57611904Y-64447142D01*
X57659523Y-64351904D01*
X57659523Y-63542380D01*
X58088095Y-64494761D02*
X58230952Y-64542380D01*
X58469047Y-64542380D01*
X58564285Y-64494761D01*
X58611904Y-64447142D01*
X58659523Y-64351904D01*
X58659523Y-64256666D01*
X58611904Y-64161428D01*
X58564285Y-64113809D01*
X58469047Y-64066190D01*
X58278571Y-64018571D01*
X58183333Y-63970952D01*
X58135714Y-63923333D01*
X58088095Y-63828095D01*
X58088095Y-63732857D01*
X58135714Y-63637619D01*
X58183333Y-63590000D01*
X58278571Y-63542380D01*
X58516666Y-63542380D01*
X58659523Y-63590000D01*
X59421428Y-64018571D02*
X59564285Y-64066190D01*
X59611904Y-64113809D01*
X59659523Y-64209047D01*
X59659523Y-64351904D01*
X59611904Y-64447142D01*
X59564285Y-64494761D01*
X59469047Y-64542380D01*
X59088095Y-64542380D01*
X59088095Y-63542380D01*
X59421428Y-63542380D01*
X59516666Y-63590000D01*
X59564285Y-63637619D01*
X59611904Y-63732857D01*
X59611904Y-63828095D01*
X59564285Y-63923333D01*
X59516666Y-63970952D01*
X59421428Y-64018571D01*
X59088095Y-64018571D01*
%TO.C,D1*%
X44241904Y-140922380D02*
X44241904Y-139922380D01*
X44480000Y-139922380D01*
X44622857Y-139970000D01*
X44718095Y-140065238D01*
X44765714Y-140160476D01*
X44813333Y-140350952D01*
X44813333Y-140493809D01*
X44765714Y-140684285D01*
X44718095Y-140779523D01*
X44622857Y-140874761D01*
X44480000Y-140922380D01*
X44241904Y-140922380D01*
X45765714Y-140922380D02*
X45194285Y-140922380D01*
X45480000Y-140922380D02*
X45480000Y-139922380D01*
X45384761Y-140065238D01*
X45289523Y-140160476D01*
X45194285Y-140208095D01*
X43371428Y-138861904D02*
X43371428Y-138100000D01*
X43371428Y-136100000D02*
X43371428Y-135338095D01*
X43752380Y-135719047D02*
X42990476Y-135719047D01*
%TO.C,D2*%
X49241904Y-130922380D02*
X49241904Y-129922380D01*
X49480000Y-129922380D01*
X49622857Y-129970000D01*
X49718095Y-130065238D01*
X49765714Y-130160476D01*
X49813333Y-130350952D01*
X49813333Y-130493809D01*
X49765714Y-130684285D01*
X49718095Y-130779523D01*
X49622857Y-130874761D01*
X49480000Y-130922380D01*
X49241904Y-130922380D01*
X50194285Y-130017619D02*
X50241904Y-129970000D01*
X50337142Y-129922380D01*
X50575238Y-129922380D01*
X50670476Y-129970000D01*
X50718095Y-130017619D01*
X50765714Y-130112857D01*
X50765714Y-130208095D01*
X50718095Y-130350952D01*
X50146666Y-130922380D01*
X50765714Y-130922380D01*
X48371428Y-128861904D02*
X48371428Y-128100000D01*
X48371428Y-126100000D02*
X48371428Y-125338095D01*
X48752380Y-125719047D02*
X47990476Y-125719047D01*
%TO.C,D3*%
X54241904Y-140922380D02*
X54241904Y-139922380D01*
X54480000Y-139922380D01*
X54622857Y-139970000D01*
X54718095Y-140065238D01*
X54765714Y-140160476D01*
X54813333Y-140350952D01*
X54813333Y-140493809D01*
X54765714Y-140684285D01*
X54718095Y-140779523D01*
X54622857Y-140874761D01*
X54480000Y-140922380D01*
X54241904Y-140922380D01*
X55146666Y-139922380D02*
X55765714Y-139922380D01*
X55432380Y-140303333D01*
X55575238Y-140303333D01*
X55670476Y-140350952D01*
X55718095Y-140398571D01*
X55765714Y-140493809D01*
X55765714Y-140731904D01*
X55718095Y-140827142D01*
X55670476Y-140874761D01*
X55575238Y-140922380D01*
X55289523Y-140922380D01*
X55194285Y-140874761D01*
X55146666Y-140827142D01*
X53371428Y-138861904D02*
X53371428Y-138100000D01*
X53371428Y-136100000D02*
X53371428Y-135338095D01*
X53752380Y-135719047D02*
X52990476Y-135719047D01*
%TO.C,D4*%
X64241904Y-140922380D02*
X64241904Y-139922380D01*
X64480000Y-139922380D01*
X64622857Y-139970000D01*
X64718095Y-140065238D01*
X64765714Y-140160476D01*
X64813333Y-140350952D01*
X64813333Y-140493809D01*
X64765714Y-140684285D01*
X64718095Y-140779523D01*
X64622857Y-140874761D01*
X64480000Y-140922380D01*
X64241904Y-140922380D01*
X65670476Y-140255714D02*
X65670476Y-140922380D01*
X65432380Y-139874761D02*
X65194285Y-140589047D01*
X65813333Y-140589047D01*
X63371428Y-138861904D02*
X63371428Y-138100000D01*
X63371428Y-136100000D02*
X63371428Y-135338095D01*
X63752380Y-135719047D02*
X62990476Y-135719047D01*
%TO.C,D5*%
X69241904Y-130922380D02*
X69241904Y-129922380D01*
X69480000Y-129922380D01*
X69622857Y-129970000D01*
X69718095Y-130065238D01*
X69765714Y-130160476D01*
X69813333Y-130350952D01*
X69813333Y-130493809D01*
X69765714Y-130684285D01*
X69718095Y-130779523D01*
X69622857Y-130874761D01*
X69480000Y-130922380D01*
X69241904Y-130922380D01*
X70718095Y-129922380D02*
X70241904Y-129922380D01*
X70194285Y-130398571D01*
X70241904Y-130350952D01*
X70337142Y-130303333D01*
X70575238Y-130303333D01*
X70670476Y-130350952D01*
X70718095Y-130398571D01*
X70765714Y-130493809D01*
X70765714Y-130731904D01*
X70718095Y-130827142D01*
X70670476Y-130874761D01*
X70575238Y-130922380D01*
X70337142Y-130922380D01*
X70241904Y-130874761D01*
X70194285Y-130827142D01*
X68371428Y-128861904D02*
X68371428Y-128100000D01*
X68371428Y-126100000D02*
X68371428Y-125338095D01*
X68752380Y-125719047D02*
X67990476Y-125719047D01*
%TO.C,D6*%
X74241904Y-140922380D02*
X74241904Y-139922380D01*
X74480000Y-139922380D01*
X74622857Y-139970000D01*
X74718095Y-140065238D01*
X74765714Y-140160476D01*
X74813333Y-140350952D01*
X74813333Y-140493809D01*
X74765714Y-140684285D01*
X74718095Y-140779523D01*
X74622857Y-140874761D01*
X74480000Y-140922380D01*
X74241904Y-140922380D01*
X75670476Y-139922380D02*
X75480000Y-139922380D01*
X75384761Y-139970000D01*
X75337142Y-140017619D01*
X75241904Y-140160476D01*
X75194285Y-140350952D01*
X75194285Y-140731904D01*
X75241904Y-140827142D01*
X75289523Y-140874761D01*
X75384761Y-140922380D01*
X75575238Y-140922380D01*
X75670476Y-140874761D01*
X75718095Y-140827142D01*
X75765714Y-140731904D01*
X75765714Y-140493809D01*
X75718095Y-140398571D01*
X75670476Y-140350952D01*
X75575238Y-140303333D01*
X75384761Y-140303333D01*
X75289523Y-140350952D01*
X75241904Y-140398571D01*
X75194285Y-140493809D01*
X73371428Y-138861904D02*
X73371428Y-138100000D01*
X73371428Y-136100000D02*
X73371428Y-135338095D01*
X73752380Y-135719047D02*
X72990476Y-135719047D01*
%TO.C,D7*%
X79241904Y-130922380D02*
X79241904Y-129922380D01*
X79480000Y-129922380D01*
X79622857Y-129970000D01*
X79718095Y-130065238D01*
X79765714Y-130160476D01*
X79813333Y-130350952D01*
X79813333Y-130493809D01*
X79765714Y-130684285D01*
X79718095Y-130779523D01*
X79622857Y-130874761D01*
X79480000Y-130922380D01*
X79241904Y-130922380D01*
X80146666Y-129922380D02*
X80813333Y-129922380D01*
X80384761Y-130922380D01*
X78371428Y-128861904D02*
X78371428Y-128100000D01*
X78371428Y-126100000D02*
X78371428Y-125338095D01*
X78752380Y-125719047D02*
X77990476Y-125719047D01*
%TO.C,D8*%
X84241904Y-140922380D02*
X84241904Y-139922380D01*
X84480000Y-139922380D01*
X84622857Y-139970000D01*
X84718095Y-140065238D01*
X84765714Y-140160476D01*
X84813333Y-140350952D01*
X84813333Y-140493809D01*
X84765714Y-140684285D01*
X84718095Y-140779523D01*
X84622857Y-140874761D01*
X84480000Y-140922380D01*
X84241904Y-140922380D01*
X85384761Y-140350952D02*
X85289523Y-140303333D01*
X85241904Y-140255714D01*
X85194285Y-140160476D01*
X85194285Y-140112857D01*
X85241904Y-140017619D01*
X85289523Y-139970000D01*
X85384761Y-139922380D01*
X85575238Y-139922380D01*
X85670476Y-139970000D01*
X85718095Y-140017619D01*
X85765714Y-140112857D01*
X85765714Y-140160476D01*
X85718095Y-140255714D01*
X85670476Y-140303333D01*
X85575238Y-140350952D01*
X85384761Y-140350952D01*
X85289523Y-140398571D01*
X85241904Y-140446190D01*
X85194285Y-140541428D01*
X85194285Y-140731904D01*
X85241904Y-140827142D01*
X85289523Y-140874761D01*
X85384761Y-140922380D01*
X85575238Y-140922380D01*
X85670476Y-140874761D01*
X85718095Y-140827142D01*
X85765714Y-140731904D01*
X85765714Y-140541428D01*
X85718095Y-140446190D01*
X85670476Y-140398571D01*
X85575238Y-140350952D01*
X83371428Y-138861904D02*
X83371428Y-138100000D01*
X83371428Y-136100000D02*
X83371428Y-135338095D01*
X83752380Y-135719047D02*
X82990476Y-135719047D01*
%TO.C,D9*%
X94241904Y-140922380D02*
X94241904Y-139922380D01*
X94480000Y-139922380D01*
X94622857Y-139970000D01*
X94718095Y-140065238D01*
X94765714Y-140160476D01*
X94813333Y-140350952D01*
X94813333Y-140493809D01*
X94765714Y-140684285D01*
X94718095Y-140779523D01*
X94622857Y-140874761D01*
X94480000Y-140922380D01*
X94241904Y-140922380D01*
X95289523Y-140922380D02*
X95480000Y-140922380D01*
X95575238Y-140874761D01*
X95622857Y-140827142D01*
X95718095Y-140684285D01*
X95765714Y-140493809D01*
X95765714Y-140112857D01*
X95718095Y-140017619D01*
X95670476Y-139970000D01*
X95575238Y-139922380D01*
X95384761Y-139922380D01*
X95289523Y-139970000D01*
X95241904Y-140017619D01*
X95194285Y-140112857D01*
X95194285Y-140350952D01*
X95241904Y-140446190D01*
X95289523Y-140493809D01*
X95384761Y-140541428D01*
X95575238Y-140541428D01*
X95670476Y-140493809D01*
X95718095Y-140446190D01*
X95765714Y-140350952D01*
X93371428Y-138861904D02*
X93371428Y-138100000D01*
X93371428Y-136100000D02*
X93371428Y-135338095D01*
X93752380Y-135719047D02*
X92990476Y-135719047D01*
%TO.C,D10*%
X98765714Y-130922380D02*
X98765714Y-129922380D01*
X99003809Y-129922380D01*
X99146666Y-129970000D01*
X99241904Y-130065238D01*
X99289523Y-130160476D01*
X99337142Y-130350952D01*
X99337142Y-130493809D01*
X99289523Y-130684285D01*
X99241904Y-130779523D01*
X99146666Y-130874761D01*
X99003809Y-130922380D01*
X98765714Y-130922380D01*
X100289523Y-130922380D02*
X99718095Y-130922380D01*
X100003809Y-130922380D02*
X100003809Y-129922380D01*
X99908571Y-130065238D01*
X99813333Y-130160476D01*
X99718095Y-130208095D01*
X100908571Y-129922380D02*
X101003809Y-129922380D01*
X101099047Y-129970000D01*
X101146666Y-130017619D01*
X101194285Y-130112857D01*
X101241904Y-130303333D01*
X101241904Y-130541428D01*
X101194285Y-130731904D01*
X101146666Y-130827142D01*
X101099047Y-130874761D01*
X101003809Y-130922380D01*
X100908571Y-130922380D01*
X100813333Y-130874761D01*
X100765714Y-130827142D01*
X100718095Y-130731904D01*
X100670476Y-130541428D01*
X100670476Y-130303333D01*
X100718095Y-130112857D01*
X100765714Y-130017619D01*
X100813333Y-129970000D01*
X100908571Y-129922380D01*
X98371428Y-128861904D02*
X98371428Y-128100000D01*
X98371428Y-126100000D02*
X98371428Y-125338095D01*
X98752380Y-125719047D02*
X97990476Y-125719047D01*
%TO.C,D11*%
X103765714Y-140922380D02*
X103765714Y-139922380D01*
X104003809Y-139922380D01*
X104146666Y-139970000D01*
X104241904Y-140065238D01*
X104289523Y-140160476D01*
X104337142Y-140350952D01*
X104337142Y-140493809D01*
X104289523Y-140684285D01*
X104241904Y-140779523D01*
X104146666Y-140874761D01*
X104003809Y-140922380D01*
X103765714Y-140922380D01*
X105289523Y-140922380D02*
X104718095Y-140922380D01*
X105003809Y-140922380D02*
X105003809Y-139922380D01*
X104908571Y-140065238D01*
X104813333Y-140160476D01*
X104718095Y-140208095D01*
X106241904Y-140922380D02*
X105670476Y-140922380D01*
X105956190Y-140922380D02*
X105956190Y-139922380D01*
X105860952Y-140065238D01*
X105765714Y-140160476D01*
X105670476Y-140208095D01*
X103371428Y-138861904D02*
X103371428Y-138100000D01*
X103371428Y-136100000D02*
X103371428Y-135338095D01*
X103752380Y-135719047D02*
X102990476Y-135719047D01*
%TO.C,D12*%
X108765714Y-130922380D02*
X108765714Y-129922380D01*
X109003809Y-129922380D01*
X109146666Y-129970000D01*
X109241904Y-130065238D01*
X109289523Y-130160476D01*
X109337142Y-130350952D01*
X109337142Y-130493809D01*
X109289523Y-130684285D01*
X109241904Y-130779523D01*
X109146666Y-130874761D01*
X109003809Y-130922380D01*
X108765714Y-130922380D01*
X110289523Y-130922380D02*
X109718095Y-130922380D01*
X110003809Y-130922380D02*
X110003809Y-129922380D01*
X109908571Y-130065238D01*
X109813333Y-130160476D01*
X109718095Y-130208095D01*
X110670476Y-130017619D02*
X110718095Y-129970000D01*
X110813333Y-129922380D01*
X111051428Y-129922380D01*
X111146666Y-129970000D01*
X111194285Y-130017619D01*
X111241904Y-130112857D01*
X111241904Y-130208095D01*
X111194285Y-130350952D01*
X110622857Y-130922380D01*
X111241904Y-130922380D01*
X108371428Y-128861904D02*
X108371428Y-128100000D01*
X108371428Y-126100000D02*
X108371428Y-125338095D01*
X108752380Y-125719047D02*
X107990476Y-125719047D01*
%TO.C,D13*%
X113765714Y-140922380D02*
X113765714Y-139922380D01*
X114003809Y-139922380D01*
X114146666Y-139970000D01*
X114241904Y-140065238D01*
X114289523Y-140160476D01*
X114337142Y-140350952D01*
X114337142Y-140493809D01*
X114289523Y-140684285D01*
X114241904Y-140779523D01*
X114146666Y-140874761D01*
X114003809Y-140922380D01*
X113765714Y-140922380D01*
X115289523Y-140922380D02*
X114718095Y-140922380D01*
X115003809Y-140922380D02*
X115003809Y-139922380D01*
X114908571Y-140065238D01*
X114813333Y-140160476D01*
X114718095Y-140208095D01*
X115622857Y-139922380D02*
X116241904Y-139922380D01*
X115908571Y-140303333D01*
X116051428Y-140303333D01*
X116146666Y-140350952D01*
X116194285Y-140398571D01*
X116241904Y-140493809D01*
X116241904Y-140731904D01*
X116194285Y-140827142D01*
X116146666Y-140874761D01*
X116051428Y-140922380D01*
X115765714Y-140922380D01*
X115670476Y-140874761D01*
X115622857Y-140827142D01*
X113371428Y-138861904D02*
X113371428Y-138100000D01*
X113371428Y-136100000D02*
X113371428Y-135338095D01*
X113752380Y-135719047D02*
X112990476Y-135719047D01*
%TO.C,D14*%
X118765714Y-130922380D02*
X118765714Y-129922380D01*
X119003809Y-129922380D01*
X119146666Y-129970000D01*
X119241904Y-130065238D01*
X119289523Y-130160476D01*
X119337142Y-130350952D01*
X119337142Y-130493809D01*
X119289523Y-130684285D01*
X119241904Y-130779523D01*
X119146666Y-130874761D01*
X119003809Y-130922380D01*
X118765714Y-130922380D01*
X120289523Y-130922380D02*
X119718095Y-130922380D01*
X120003809Y-130922380D02*
X120003809Y-129922380D01*
X119908571Y-130065238D01*
X119813333Y-130160476D01*
X119718095Y-130208095D01*
X121146666Y-130255714D02*
X121146666Y-130922380D01*
X120908571Y-129874761D02*
X120670476Y-130589047D01*
X121289523Y-130589047D01*
X118371428Y-128861904D02*
X118371428Y-128100000D01*
X118371428Y-126100000D02*
X118371428Y-125338095D01*
X118752380Y-125719047D02*
X117990476Y-125719047D01*
%TO.C,D15*%
X123765714Y-140922380D02*
X123765714Y-139922380D01*
X124003809Y-139922380D01*
X124146666Y-139970000D01*
X124241904Y-140065238D01*
X124289523Y-140160476D01*
X124337142Y-140350952D01*
X124337142Y-140493809D01*
X124289523Y-140684285D01*
X124241904Y-140779523D01*
X124146666Y-140874761D01*
X124003809Y-140922380D01*
X123765714Y-140922380D01*
X125289523Y-140922380D02*
X124718095Y-140922380D01*
X125003809Y-140922380D02*
X125003809Y-139922380D01*
X124908571Y-140065238D01*
X124813333Y-140160476D01*
X124718095Y-140208095D01*
X126194285Y-139922380D02*
X125718095Y-139922380D01*
X125670476Y-140398571D01*
X125718095Y-140350952D01*
X125813333Y-140303333D01*
X126051428Y-140303333D01*
X126146666Y-140350952D01*
X126194285Y-140398571D01*
X126241904Y-140493809D01*
X126241904Y-140731904D01*
X126194285Y-140827142D01*
X126146666Y-140874761D01*
X126051428Y-140922380D01*
X125813333Y-140922380D01*
X125718095Y-140874761D01*
X125670476Y-140827142D01*
X123371428Y-138861904D02*
X123371428Y-138100000D01*
X123371428Y-136100000D02*
X123371428Y-135338095D01*
X123752380Y-135719047D02*
X122990476Y-135719047D01*
%TO.C,D16*%
X133765714Y-140922380D02*
X133765714Y-139922380D01*
X134003809Y-139922380D01*
X134146666Y-139970000D01*
X134241904Y-140065238D01*
X134289523Y-140160476D01*
X134337142Y-140350952D01*
X134337142Y-140493809D01*
X134289523Y-140684285D01*
X134241904Y-140779523D01*
X134146666Y-140874761D01*
X134003809Y-140922380D01*
X133765714Y-140922380D01*
X135289523Y-140922380D02*
X134718095Y-140922380D01*
X135003809Y-140922380D02*
X135003809Y-139922380D01*
X134908571Y-140065238D01*
X134813333Y-140160476D01*
X134718095Y-140208095D01*
X136146666Y-139922380D02*
X135956190Y-139922380D01*
X135860952Y-139970000D01*
X135813333Y-140017619D01*
X135718095Y-140160476D01*
X135670476Y-140350952D01*
X135670476Y-140731904D01*
X135718095Y-140827142D01*
X135765714Y-140874761D01*
X135860952Y-140922380D01*
X136051428Y-140922380D01*
X136146666Y-140874761D01*
X136194285Y-140827142D01*
X136241904Y-140731904D01*
X136241904Y-140493809D01*
X136194285Y-140398571D01*
X136146666Y-140350952D01*
X136051428Y-140303333D01*
X135860952Y-140303333D01*
X135765714Y-140350952D01*
X135718095Y-140398571D01*
X135670476Y-140493809D01*
X133371428Y-138861904D02*
X133371428Y-138100000D01*
X133371428Y-136100000D02*
X133371428Y-135338095D01*
X133752380Y-135719047D02*
X132990476Y-135719047D01*
%TO.C,D17*%
X138765714Y-130922380D02*
X138765714Y-129922380D01*
X139003809Y-129922380D01*
X139146666Y-129970000D01*
X139241904Y-130065238D01*
X139289523Y-130160476D01*
X139337142Y-130350952D01*
X139337142Y-130493809D01*
X139289523Y-130684285D01*
X139241904Y-130779523D01*
X139146666Y-130874761D01*
X139003809Y-130922380D01*
X138765714Y-130922380D01*
X140289523Y-130922380D02*
X139718095Y-130922380D01*
X140003809Y-130922380D02*
X140003809Y-129922380D01*
X139908571Y-130065238D01*
X139813333Y-130160476D01*
X139718095Y-130208095D01*
X140622857Y-129922380D02*
X141289523Y-129922380D01*
X140860952Y-130922380D01*
X138371428Y-128861904D02*
X138371428Y-128100000D01*
X138371428Y-126100000D02*
X138371428Y-125338095D01*
X138752380Y-125719047D02*
X137990476Y-125719047D01*
%TO.C,D18*%
X143765714Y-140922380D02*
X143765714Y-139922380D01*
X144003809Y-139922380D01*
X144146666Y-139970000D01*
X144241904Y-140065238D01*
X144289523Y-140160476D01*
X144337142Y-140350952D01*
X144337142Y-140493809D01*
X144289523Y-140684285D01*
X144241904Y-140779523D01*
X144146666Y-140874761D01*
X144003809Y-140922380D01*
X143765714Y-140922380D01*
X145289523Y-140922380D02*
X144718095Y-140922380D01*
X145003809Y-140922380D02*
X145003809Y-139922380D01*
X144908571Y-140065238D01*
X144813333Y-140160476D01*
X144718095Y-140208095D01*
X145860952Y-140350952D02*
X145765714Y-140303333D01*
X145718095Y-140255714D01*
X145670476Y-140160476D01*
X145670476Y-140112857D01*
X145718095Y-140017619D01*
X145765714Y-139970000D01*
X145860952Y-139922380D01*
X146051428Y-139922380D01*
X146146666Y-139970000D01*
X146194285Y-140017619D01*
X146241904Y-140112857D01*
X146241904Y-140160476D01*
X146194285Y-140255714D01*
X146146666Y-140303333D01*
X146051428Y-140350952D01*
X145860952Y-140350952D01*
X145765714Y-140398571D01*
X145718095Y-140446190D01*
X145670476Y-140541428D01*
X145670476Y-140731904D01*
X145718095Y-140827142D01*
X145765714Y-140874761D01*
X145860952Y-140922380D01*
X146051428Y-140922380D01*
X146146666Y-140874761D01*
X146194285Y-140827142D01*
X146241904Y-140731904D01*
X146241904Y-140541428D01*
X146194285Y-140446190D01*
X146146666Y-140398571D01*
X146051428Y-140350952D01*
X143371428Y-138861904D02*
X143371428Y-138100000D01*
X143371428Y-136100000D02*
X143371428Y-135338095D01*
X143752380Y-135719047D02*
X142990476Y-135719047D01*
%TO.C,D19*%
X148765714Y-130922380D02*
X148765714Y-129922380D01*
X149003809Y-129922380D01*
X149146666Y-129970000D01*
X149241904Y-130065238D01*
X149289523Y-130160476D01*
X149337142Y-130350952D01*
X149337142Y-130493809D01*
X149289523Y-130684285D01*
X149241904Y-130779523D01*
X149146666Y-130874761D01*
X149003809Y-130922380D01*
X148765714Y-130922380D01*
X150289523Y-130922380D02*
X149718095Y-130922380D01*
X150003809Y-130922380D02*
X150003809Y-129922380D01*
X149908571Y-130065238D01*
X149813333Y-130160476D01*
X149718095Y-130208095D01*
X150765714Y-130922380D02*
X150956190Y-130922380D01*
X151051428Y-130874761D01*
X151099047Y-130827142D01*
X151194285Y-130684285D01*
X151241904Y-130493809D01*
X151241904Y-130112857D01*
X151194285Y-130017619D01*
X151146666Y-129970000D01*
X151051428Y-129922380D01*
X150860952Y-129922380D01*
X150765714Y-129970000D01*
X150718095Y-130017619D01*
X150670476Y-130112857D01*
X150670476Y-130350952D01*
X150718095Y-130446190D01*
X150765714Y-130493809D01*
X150860952Y-130541428D01*
X151051428Y-130541428D01*
X151146666Y-130493809D01*
X151194285Y-130446190D01*
X151241904Y-130350952D01*
X148371428Y-128861904D02*
X148371428Y-128100000D01*
X148371428Y-126100000D02*
X148371428Y-125338095D01*
X148752380Y-125719047D02*
X147990476Y-125719047D01*
%TO.C,D20*%
X153765714Y-140922380D02*
X153765714Y-139922380D01*
X154003809Y-139922380D01*
X154146666Y-139970000D01*
X154241904Y-140065238D01*
X154289523Y-140160476D01*
X154337142Y-140350952D01*
X154337142Y-140493809D01*
X154289523Y-140684285D01*
X154241904Y-140779523D01*
X154146666Y-140874761D01*
X154003809Y-140922380D01*
X153765714Y-140922380D01*
X154718095Y-140017619D02*
X154765714Y-139970000D01*
X154860952Y-139922380D01*
X155099047Y-139922380D01*
X155194285Y-139970000D01*
X155241904Y-140017619D01*
X155289523Y-140112857D01*
X155289523Y-140208095D01*
X155241904Y-140350952D01*
X154670476Y-140922380D01*
X155289523Y-140922380D01*
X155908571Y-139922380D02*
X156003809Y-139922380D01*
X156099047Y-139970000D01*
X156146666Y-140017619D01*
X156194285Y-140112857D01*
X156241904Y-140303333D01*
X156241904Y-140541428D01*
X156194285Y-140731904D01*
X156146666Y-140827142D01*
X156099047Y-140874761D01*
X156003809Y-140922380D01*
X155908571Y-140922380D01*
X155813333Y-140874761D01*
X155765714Y-140827142D01*
X155718095Y-140731904D01*
X155670476Y-140541428D01*
X155670476Y-140303333D01*
X155718095Y-140112857D01*
X155765714Y-140017619D01*
X155813333Y-139970000D01*
X155908571Y-139922380D01*
X153371428Y-138861904D02*
X153371428Y-138100000D01*
X153371428Y-136100000D02*
X153371428Y-135338095D01*
X153752380Y-135719047D02*
X152990476Y-135719047D01*
%TO.C,J1*%
X97152380Y-53213333D02*
X97866666Y-53213333D01*
X98009523Y-53260952D01*
X98104761Y-53356190D01*
X98152380Y-53499047D01*
X98152380Y-53594285D01*
X98152380Y-52213333D02*
X98152380Y-52784761D01*
X98152380Y-52499047D02*
X97152380Y-52499047D01*
X97295238Y-52594285D01*
X97390476Y-52689523D01*
X97438095Y-52784761D01*
%TO.C,LS1*%
X99307142Y-78892380D02*
X98830952Y-78892380D01*
X98830952Y-77892380D01*
X99592857Y-78844761D02*
X99735714Y-78892380D01*
X99973809Y-78892380D01*
X100069047Y-78844761D01*
X100116666Y-78797142D01*
X100164285Y-78701904D01*
X100164285Y-78606666D01*
X100116666Y-78511428D01*
X100069047Y-78463809D01*
X99973809Y-78416190D01*
X99783333Y-78368571D01*
X99688095Y-78320952D01*
X99640476Y-78273333D01*
X99592857Y-78178095D01*
X99592857Y-78082857D01*
X99640476Y-77987619D01*
X99688095Y-77940000D01*
X99783333Y-77892380D01*
X100021428Y-77892380D01*
X100164285Y-77940000D01*
X101116666Y-78892380D02*
X100545238Y-78892380D01*
X100830952Y-78892380D02*
X100830952Y-77892380D01*
X100735714Y-78035238D01*
X100640476Y-78130476D01*
X100545238Y-78178095D01*
D15*
X91688095Y-91282857D02*
X93211904Y-91282857D01*
X92450000Y-92044761D02*
X92450000Y-90520952D01*
X106688095Y-91282857D02*
X108211904Y-91282857D01*
D10*
X94426190Y-85599523D02*
X94711904Y-85694761D01*
X95188095Y-85694761D01*
X95378571Y-85599523D01*
X95473809Y-85504285D01*
X95569047Y-85313809D01*
X95569047Y-85123333D01*
X95473809Y-84932857D01*
X95378571Y-84837619D01*
X95188095Y-84742380D01*
X94807142Y-84647142D01*
X94616666Y-84551904D01*
X94521428Y-84456666D01*
X94426190Y-84266190D01*
X94426190Y-84075714D01*
X94521428Y-83885238D01*
X94616666Y-83790000D01*
X94807142Y-83694761D01*
X95283333Y-83694761D01*
X95569047Y-83790000D01*
X96426190Y-84361428D02*
X96426190Y-86361428D01*
X96426190Y-84456666D02*
X96616666Y-84361428D01*
X96997619Y-84361428D01*
X97188095Y-84456666D01*
X97283333Y-84551904D01*
X97378571Y-84742380D01*
X97378571Y-85313809D01*
X97283333Y-85504285D01*
X97188095Y-85599523D01*
X96997619Y-85694761D01*
X96616666Y-85694761D01*
X96426190Y-85599523D01*
X98997619Y-85599523D02*
X98807142Y-85694761D01*
X98426190Y-85694761D01*
X98235714Y-85599523D01*
X98140476Y-85409047D01*
X98140476Y-84647142D01*
X98235714Y-84456666D01*
X98426190Y-84361428D01*
X98807142Y-84361428D01*
X98997619Y-84456666D01*
X99092857Y-84647142D01*
X99092857Y-84837619D01*
X98140476Y-85028095D01*
X100807142Y-85694761D02*
X100807142Y-84647142D01*
X100711904Y-84456666D01*
X100521428Y-84361428D01*
X100140476Y-84361428D01*
X99950000Y-84456666D01*
X100807142Y-85599523D02*
X100616666Y-85694761D01*
X100140476Y-85694761D01*
X99950000Y-85599523D01*
X99854761Y-85409047D01*
X99854761Y-85218571D01*
X99950000Y-85028095D01*
X100140476Y-84932857D01*
X100616666Y-84932857D01*
X100807142Y-84837619D01*
X101759523Y-85694761D02*
X101759523Y-83694761D01*
X101950000Y-84932857D02*
X102521428Y-85694761D01*
X102521428Y-84361428D02*
X101759523Y-85123333D01*
X104140476Y-85599523D02*
X103950000Y-85694761D01*
X103569047Y-85694761D01*
X103378571Y-85599523D01*
X103283333Y-85409047D01*
X103283333Y-84647142D01*
X103378571Y-84456666D01*
X103569047Y-84361428D01*
X103950000Y-84361428D01*
X104140476Y-84456666D01*
X104235714Y-84647142D01*
X104235714Y-84837619D01*
X103283333Y-85028095D01*
X105092857Y-85694761D02*
X105092857Y-84361428D01*
X105092857Y-84742380D02*
X105188095Y-84551904D01*
X105283333Y-84456666D01*
X105473809Y-84361428D01*
X105664285Y-84361428D01*
%TO.C,R1*%
D14*
X98133333Y-108102380D02*
X97800000Y-107626190D01*
X97561904Y-108102380D02*
X97561904Y-107102380D01*
X97942857Y-107102380D01*
X98038095Y-107150000D01*
X98085714Y-107197619D01*
X98133333Y-107292857D01*
X98133333Y-107435714D01*
X98085714Y-107530952D01*
X98038095Y-107578571D01*
X97942857Y-107626190D01*
X97561904Y-107626190D01*
X99085714Y-108102380D02*
X98514285Y-108102380D01*
X98800000Y-108102380D02*
X98800000Y-107102380D01*
X98704761Y-107245238D01*
X98609523Y-107340476D01*
X98514285Y-107388095D01*
X100733333Y-108052380D02*
X100161904Y-108052380D01*
X100447619Y-108052380D02*
X100447619Y-107052380D01*
X100352380Y-107195238D01*
X100257142Y-107290476D01*
X100161904Y-107338095D01*
X101352380Y-107052380D02*
X101447619Y-107052380D01*
X101542857Y-107100000D01*
X101590476Y-107147619D01*
X101638095Y-107242857D01*
X101685714Y-107433333D01*
X101685714Y-107671428D01*
X101638095Y-107861904D01*
X101590476Y-107957142D01*
X101542857Y-108004761D01*
X101447619Y-108052380D01*
X101352380Y-108052380D01*
X101257142Y-108004761D01*
X101209523Y-107957142D01*
X101161904Y-107861904D01*
X101114285Y-107671428D01*
X101114285Y-107433333D01*
X101161904Y-107242857D01*
X101209523Y-107147619D01*
X101257142Y-107100000D01*
X101352380Y-107052380D01*
X102304761Y-107052380D02*
X102400000Y-107052380D01*
X102495238Y-107100000D01*
X102542857Y-107147619D01*
X102590476Y-107242857D01*
X102638095Y-107433333D01*
X102638095Y-107671428D01*
X102590476Y-107861904D01*
X102542857Y-107957142D01*
X102495238Y-108004761D01*
X102400000Y-108052380D01*
X102304761Y-108052380D01*
X102209523Y-108004761D01*
X102161904Y-107957142D01*
X102114285Y-107861904D01*
X102066666Y-107671428D01*
X102066666Y-107433333D01*
X102114285Y-107242857D01*
X102161904Y-107147619D01*
X102209523Y-107100000D01*
X102304761Y-107052380D01*
%TO.C,R2*%
X78082380Y-115266666D02*
X77606190Y-115600000D01*
X78082380Y-115838095D02*
X77082380Y-115838095D01*
X77082380Y-115457142D01*
X77130000Y-115361904D01*
X77177619Y-115314285D01*
X77272857Y-115266666D01*
X77415714Y-115266666D01*
X77510952Y-115314285D01*
X77558571Y-115361904D01*
X77606190Y-115457142D01*
X77606190Y-115838095D01*
X77177619Y-114885714D02*
X77130000Y-114838095D01*
X77082380Y-114742857D01*
X77082380Y-114504761D01*
X77130000Y-114409523D01*
X77177619Y-114361904D01*
X77272857Y-114314285D01*
X77368095Y-114314285D01*
X77510952Y-114361904D01*
X78082380Y-114933333D01*
X78082380Y-114314285D01*
%TO.C,R3*%
X88082380Y-115266666D02*
X87606190Y-115600000D01*
X88082380Y-115838095D02*
X87082380Y-115838095D01*
X87082380Y-115457142D01*
X87130000Y-115361904D01*
X87177619Y-115314285D01*
X87272857Y-115266666D01*
X87415714Y-115266666D01*
X87510952Y-115314285D01*
X87558571Y-115361904D01*
X87606190Y-115457142D01*
X87606190Y-115838095D01*
X87082380Y-114933333D02*
X87082380Y-114314285D01*
X87463333Y-114647619D01*
X87463333Y-114504761D01*
X87510952Y-114409523D01*
X87558571Y-114361904D01*
X87653809Y-114314285D01*
X87891904Y-114314285D01*
X87987142Y-114361904D01*
X88034761Y-114409523D01*
X88082380Y-114504761D01*
X88082380Y-114790476D01*
X88034761Y-114885714D01*
X87987142Y-114933333D01*
%TO.C,R4*%
X98082380Y-115266666D02*
X97606190Y-115600000D01*
X98082380Y-115838095D02*
X97082380Y-115838095D01*
X97082380Y-115457142D01*
X97130000Y-115361904D01*
X97177619Y-115314285D01*
X97272857Y-115266666D01*
X97415714Y-115266666D01*
X97510952Y-115314285D01*
X97558571Y-115361904D01*
X97606190Y-115457142D01*
X97606190Y-115838095D01*
X97415714Y-114409523D02*
X98082380Y-114409523D01*
X97034761Y-114647619D02*
X97749047Y-114885714D01*
X97749047Y-114266666D01*
%TO.C,R5*%
X108082380Y-115266666D02*
X107606190Y-115600000D01*
X108082380Y-115838095D02*
X107082380Y-115838095D01*
X107082380Y-115457142D01*
X107130000Y-115361904D01*
X107177619Y-115314285D01*
X107272857Y-115266666D01*
X107415714Y-115266666D01*
X107510952Y-115314285D01*
X107558571Y-115361904D01*
X107606190Y-115457142D01*
X107606190Y-115838095D01*
X107082380Y-114361904D02*
X107082380Y-114838095D01*
X107558571Y-114885714D01*
X107510952Y-114838095D01*
X107463333Y-114742857D01*
X107463333Y-114504761D01*
X107510952Y-114409523D01*
X107558571Y-114361904D01*
X107653809Y-114314285D01*
X107891904Y-114314285D01*
X107987142Y-114361904D01*
X108034761Y-114409523D01*
X108082380Y-114504761D01*
X108082380Y-114742857D01*
X108034761Y-114838095D01*
X107987142Y-114885714D01*
%TO.C,R6*%
X118082380Y-115266666D02*
X117606190Y-115600000D01*
X118082380Y-115838095D02*
X117082380Y-115838095D01*
X117082380Y-115457142D01*
X117130000Y-115361904D01*
X117177619Y-115314285D01*
X117272857Y-115266666D01*
X117415714Y-115266666D01*
X117510952Y-115314285D01*
X117558571Y-115361904D01*
X117606190Y-115457142D01*
X117606190Y-115838095D01*
X117082380Y-114409523D02*
X117082380Y-114600000D01*
X117130000Y-114695238D01*
X117177619Y-114742857D01*
X117320476Y-114838095D01*
X117510952Y-114885714D01*
X117891904Y-114885714D01*
X117987142Y-114838095D01*
X118034761Y-114790476D01*
X118082380Y-114695238D01*
X118082380Y-114504761D01*
X118034761Y-114409523D01*
X117987142Y-114361904D01*
X117891904Y-114314285D01*
X117653809Y-114314285D01*
X117558571Y-114361904D01*
X117510952Y-114409523D01*
X117463333Y-114504761D01*
X117463333Y-114695238D01*
X117510952Y-114790476D01*
X117558571Y-114838095D01*
X117653809Y-114885714D01*
%TO.C,U1*%
X153258095Y-78682380D02*
X153258095Y-79491904D01*
X153305714Y-79587142D01*
X153353333Y-79634761D01*
X153448571Y-79682380D01*
X153639047Y-79682380D01*
X153734285Y-79634761D01*
X153781904Y-79587142D01*
X153829523Y-79491904D01*
X153829523Y-78682380D01*
X154829523Y-79682380D02*
X154258095Y-79682380D01*
X154543809Y-79682380D02*
X154543809Y-78682380D01*
X154448571Y-78825238D01*
X154353333Y-78920476D01*
X154258095Y-78968095D01*
%TD*%
%LPC*%
D16*
%TO.C, *%
X39000000Y-54000000D03*
%TD*%
%TO.C, *%
X161000000Y-54000000D03*
%TD*%
%TO.C, *%
X161000000Y-146000000D03*
%TD*%
%TO.C, *%
X39000000Y-146000000D03*
%TD*%
D17*
%TO.C,A1*%
X50730000Y-66630000D03*
X65970000Y-66630000D03*
X50730000Y-102190000D03*
X65970000Y-69170000D03*
X50730000Y-99650000D03*
X65970000Y-71710000D03*
X50730000Y-97110000D03*
X65970000Y-74250000D03*
X50730000Y-94570000D03*
X65970000Y-76790000D03*
X50730000Y-92030000D03*
X65970000Y-79330000D03*
X50730000Y-89490000D03*
X65970000Y-81870000D03*
X50730000Y-86950000D03*
X65970000Y-84410000D03*
X50730000Y-84410000D03*
X65970000Y-86950000D03*
X50730000Y-81870000D03*
X65970000Y-89490000D03*
X50730000Y-79330000D03*
X65970000Y-92030000D03*
X50730000Y-76790000D03*
X65970000Y-94570000D03*
X50730000Y-74250000D03*
X65970000Y-97110000D03*
X50730000Y-71710000D03*
X65970000Y-99650000D03*
X50730000Y-69170000D03*
D18*
X65970000Y-102190000D03*
%TD*%
D19*
%TO.C,D1*%
X45000000Y-135830000D03*
D20*
X45000000Y-138370000D03*
%TD*%
D19*
%TO.C,D2*%
X50000000Y-125830000D03*
D20*
X50000000Y-128370000D03*
%TD*%
%TO.C,D3*%
X55000000Y-138370000D03*
D19*
X55000000Y-135830000D03*
%TD*%
%TO.C,D4*%
X65000000Y-135830000D03*
D20*
X65000000Y-138370000D03*
%TD*%
%TO.C,D5*%
X70000000Y-128370000D03*
D19*
X70000000Y-125830000D03*
%TD*%
D20*
%TO.C,D6*%
X75000000Y-138370000D03*
D19*
X75000000Y-135830000D03*
%TD*%
%TO.C,D7*%
X80000000Y-125830000D03*
D20*
X80000000Y-128370000D03*
%TD*%
%TO.C,D8*%
X85000000Y-138370000D03*
D19*
X85000000Y-135830000D03*
%TD*%
D20*
%TO.C,D9*%
X95000000Y-138370000D03*
D19*
X95000000Y-135830000D03*
%TD*%
%TO.C,D10*%
X100000000Y-125830000D03*
D20*
X100000000Y-128370000D03*
%TD*%
%TO.C,D11*%
X105000000Y-138370000D03*
D19*
X105000000Y-135830000D03*
%TD*%
%TO.C,D12*%
X110000000Y-125830000D03*
D20*
X110000000Y-128370000D03*
%TD*%
D19*
%TO.C,D13*%
X115000000Y-135830000D03*
D20*
X115000000Y-138370000D03*
%TD*%
%TO.C,D14*%
X120000000Y-128370000D03*
D19*
X120000000Y-125830000D03*
%TD*%
%TO.C,D15*%
X125000000Y-135830000D03*
D20*
X125000000Y-138370000D03*
%TD*%
%TO.C,D16*%
X135000000Y-138370000D03*
D19*
X135000000Y-135830000D03*
%TD*%
D20*
%TO.C,D17*%
X140000000Y-128370000D03*
D19*
X140000000Y-125830000D03*
%TD*%
%TO.C,D18*%
X145000000Y-135830000D03*
D20*
X145000000Y-138370000D03*
%TD*%
%TO.C,D19*%
X150000000Y-128370000D03*
D19*
X150000000Y-125830000D03*
%TD*%
%TO.C,D20*%
X155000000Y-135830000D03*
D20*
X155000000Y-138370000D03*
%TD*%
D21*
%TO.C,J1*%
X100028000Y-52480000D03*
D22*
X105228000Y-60480000D03*
X102528000Y-59280000D03*
D21*
X95928000Y-63680000D03*
D23*
X95428000Y-56380000D03*
%TD*%
D24*
%TO.C,LS1*%
X92450000Y-88600000D03*
D25*
X107450000Y-88600000D03*
%TD*%
D26*
%TO.C,R1*%
X105000000Y-105400000D03*
X95000000Y-105400000D03*
%TD*%
%TO.C,R2*%
X80000000Y-110100000D03*
X80000000Y-120100000D03*
%TD*%
%TO.C,R3*%
X90000000Y-120100000D03*
X90000000Y-110100000D03*
%TD*%
%TO.C,R4*%
X100000000Y-110100000D03*
X100000000Y-120100000D03*
%TD*%
%TO.C,R5*%
X110000000Y-120100000D03*
X110000000Y-110100000D03*
%TD*%
%TO.C,R6*%
X120000000Y-110100000D03*
X120000000Y-120100000D03*
%TD*%
D27*
%TO.C,U1*%
X158400000Y-82000000D03*
D28*
X158400000Y-84540000D03*
X158400000Y-87080000D03*
X158400000Y-89620000D03*
%TD*%
M02*
